<?xml version="1.0" encoding="UTF-8"?>
<svg id="Layer_2" data-name="Layer 2" xmlns="http://www.w3.org/2000/svg" viewBox="0 0 1606.94 3648.12">
  <defs>
    <style>
      .cls-1 {
        fill: #966455;
      }

      .cls-2 {
        fill: #181f3c;
      }

      .cls-3 {
        fill: #ba9078;
      }

      .cls-4 {
        fill: #7580ab;
      }

      .cls-5 {
        fill: #3c3c73;
      }

      .cls-6 {
        fill: #8682a0;
      }

      .cls-7 {
        fill: #3e273d;
      }

      .cls-8 {
        fill: #45557f;
      }

      .cls-9 {
        fill: #77323d;
      }

      .cls-10 {
        fill: #1a2649;
      }

      .cls-11 {
        fill: #ccaa93;
      }

      .cls-12 {
        fill: #5d6092;
      }

      .cls-13 {
        fill: #ba9d9b;
      }

      .cls-14 {
        fill: #506d8d;
      }

      .cls-15 {
        fill: #161a39;
      }

      .cls-16 {
        fill: #844d4a;
      }

      .cls-17 {
        fill: #4d618e;
      }

      .cls-18 {
        fill: #1b2350;
      }

      .cls-19 {
        fill: #1e2f58;
      }

      .cls-20 {
        fill: #4a497e;
      }

      .cls-21 {
        fill: #36488c;
      }

      .cls-22 {
        fill: #303079;
      }

      .cls-23 {
        fill: #3c3f56;
      }

      .cls-24 {
        fill: #975b42;
      }

      .cls-25 {
        fill: #2a2848;
      }

      .cls-26 {
        fill: #3d4b79;
      }

      .cls-27 {
        fill: #505497;
      }

      .cls-28 {
        fill: #4b528b;
      }

      .cls-29 {
        fill: #302d68;
      }

      .cls-30 {
        fill: #2a3f6a;
      }

      .cls-31 {
        fill: #3b598d;
      }

      .cls-32 {
        fill: #515784;
      }

      .cls-33 {
        fill: #363747;
      }

      .cls-34 {
        fill: #363d81;
      }

      .cls-35 {
        fill: #542630;
      }

      .cls-36 {
        fill: #a27562;
      }

      .cls-37 {
        fill: #3d365e;
      }
    </style>
  </defs>
  <g id="Layer_1-2" data-name="Layer 1">
    <g>
      <path class="cls-32" d="M569.19,423.08c-3.27,22.59-5.71,36.7-7.33,42.35-9.59,33.48-24.85,79.59-45.78,138.35-4.03,11.2-9.43,34.75-16.2,70.65-7.19-51.56-13.31-96.87-67.43-107.96-1.67-.35-2.73-2.02-2.37-3.73.02-.11.05-.21.08-.31,10.85-34.42,21.87-73.61,33.07-117.57,4.77-18.82,10.35-65.54-6.18-84.3-1.34-1.51-3.65-1.66-5.18-.34-22.68,19.99-47.91,33.46-75.69,40.4-3.39.86-6.99-.25-9.34-2.89l-105.07-117.24.74-4.1c.22-1.38.65-2.72,1.28-3.97,16.85-32.58,31.08-67.6,42.69-105.07,13.71-44.28,27.11-88.65,40.2-133.1,3.27-11.29,7.6-21.94,12.97-31.93,1.01-1.9,3.24-2.79,5.24-2.08,15.78,5.65,34.6,13.13,56.47,22.45,21.02,8.96,32.54,15.44,34.55,19.43.74,1.5,2.55,2.11,4.05,1.37.32-.16.61-.37.85-.63,11.63-12.24,41.48-36.91,62.59-38.05,5.17-.26,9.84,3.15,11.23,8.2,15.19,55.53,28.3,92.97,20.91,143.12-4.24,28.57-19.43,82.75-24.6,131.89-.94,8.78.85,20.53,5.38,35.23,10.58,34.28,21.53,67.56,32.87,99.83Z"/>
      <path class="cls-14" d="M261.77,280.5l105.07,117.24c2.36,2.64,5.96,3.76,9.34,2.89,27.79-6.95,53.02-20.42,75.69-40.4,1.53-1.32,3.83-1.17,5.18.34,16.54,18.75,10.96,65.48,6.18,84.3-11.2,43.97-22.23,83.16-33.07,117.57-.53,1.66.36,3.43,1.99,3.95.1.03.2.06.3.08,54.12,11.09,60.23,56.4,67.43,107.96l-2.76,36.3c-.37,4.66,3.1,8.75,7.76,9.12,2.77.22,5.47-.93,7.23-3.07,12.37-14.97,26.67-29,42.89-42.08,43.38-34.91,85.37-71.77,125.98-110.59l41.34-19.43c.36-.19.81-.04.99.32.06.11.08.23.08.35l4.77,167.12c.05,1.36,1.18,2.46,2.53,2.44.86-.01,1.63-.48,2.04-1.23,6.32-10.62,16.07-21.89,29.24-33.81,25.05-22.63,49.39-44.91,73.01-66.82l33.41-31.66c1.9-1.82,4.93-1.75,6.75.15.8.83,1.27,1.93,1.32,3.08,1.75,37.18-24.54,75.22-45.11,104.33-20.93,29.98-42.46,59.47-64.6,88.47-7.39,9.72-7.37,19.92.07,30.59,16.45,23.53,30.65,41.16,42.62,52.91l-26.69,89.68c-.84,2.89-3.86,4.55-6.75,3.71-1.4-.41-2.58-1.35-3.27-2.63-15.06-27.56-36.97-50.49-65.75-68.77-2.88-1.84-6.7-1-8.54,1.88-.24.38-.45.79-.6,1.21-5.02,13.49-7.6,28.61-7.73,45.38-5.42.31-8.27-5-8.54-15.93-.04-2.16-.91-4.23-2.42-5.78-8.87-9.1-18.89-10.06-30.05-2.89-1.76,1.17-2.8,3.12-2.76,5.17.4,15.46-1.79,29.78-6.59,42.96l-26.96-82.69c-1.57-4.81-5.2-8.66-9.88-10.49l-62.38-24.54c-3.14-1.26-6.7.29-7.96,3.46-.28.7-.43,1.44-.44,2.19-.61,33.28,3.43,61.85-22.05,87.12-2.72,2.69-7.08,2.69-9.75,0-.05-.05-.09-.09-.14-.14l-38.99-41.54c-1.3-1.42-3.51-1.52-4.94-.22-.94.85-1.33,2.15-1.04,3.38l19.56,88.13c.22.94.29,1.89.2,2.82l-5.24,55.93c-22.05,6.59-73.68-14.65-95.26-24,3.09-.13,5.33-.63,6.72-1.48,1.57-.99,1.61-3,.13-6.05-19-38.54-43.56-72.36-73.68-101.44-4.45-4.28-10.48-6.47-16.6-6.05-49.75,3.45-98.3,5.92-145.67,7.4-31.33.99-79.8,5.67-145.41,14.05v-144.26c22.23-2.69,44.52-5.4,66.89-8.13,71.86-8.74,135.73-29.65,213.03-57.75,10.22-3.72,21.4-3.74,33.54-.07,37.78,11.38,69.46,20.21,95.05,26.49,3.57.89,7.18-1.28,8.07-4.84.13-.53.2-1.07.2-1.61v-158.31c.02-1.11-.87-2.03-1.99-2.05-.69,0-1.33.33-1.71.9l-43.96,67.49c-1.5,2.25-4.53,2.89-6.77,1.43-.88-.58-1.55-1.43-1.9-2.43-20.62-56.78-34.37-105.16-41.28-145.14-6.66-38.38-14.92-57.21-33.14-100.97-9.14-21.87-19.47-55.19-30.99-99.96l6.72-11.03Z"/>
      <path class="cls-8" d="M255.05,291.52c11.52,44.77,21.85,78.09,30.99,99.96,18.22,43.76,26.49,62.59,33.14,100.97,6.9,39.98,20.66,88.35,41.28,145.14.88,2.53,3.66,3.84,6.2,2.93,1.01-.36,1.87-1.04,2.47-1.93l43.96-67.49c.62-.93,1.87-1.18,2.8-.57.57.38.91,1.02.9,1.71v158.31c0,3.68-2.98,6.66-6.66,6.65-.54,0-1.08-.07-1.61-.2-25.59-6.27-57.27-15.1-95.05-26.49-12.15-3.67-23.33-3.65-33.54.07-77.31,28.1-141.17,49.01-213.03,57.75-22.36,2.73-44.66,5.45-66.89,8.13v-147.76c20.03-6.36,39.8-13.44,59.29-21.24,6.18-2.51,16.31-5.16,30.39-7.93,12.23-2.42,21.58-7.04,28.03-13.85,19.81,1.66,40.69,3.32,62.65,4.97,26.55,2.08,53.24,9.81,80.2,13.91,1.28.16,2.47-.73,2.66-1.99.1-.7-.13-1.41-.64-1.91l-94.92-98.15c11.2-7.39,20.71-17.95,28.5-31.66,32.72,26.66,60.39,57.93,83.02,93.78,8.56,13.58,21.29,18.89,38.18,15.93,1.76-.26,2.97-1.93,2.69-3.73-.03-.19-.08-.39-.14-.57l-13.58-41.14c-.89-2.64-1.53-5.36-1.88-8.13-2.69-21.06-7.33-52.19-13.92-93.38-2.06-12.68-8.31-32.92-18.76-60.7-10.17-26.89-18.37-54.2-24.6-81.95l7.87.54Z"/>
      <path class="cls-19" d="M599.77,423.68c-10.98,24.07-14.7,50.08-11.16,78.05.28,2.47,2.51,4.25,4.98,3.97.72-.08,1.41-.34,2.01-.74l33.81-22.45c5.85-3.88,13.75-2.26,17.64,3.62.23.35.45.71.64,1.08l24.27,46.32,9.01,30.59c-40.6,38.81-82.6,75.67-125.98,110.59-16.22,13.09-30.52,27.11-42.89,42.08-2.97,3.62-8.3,4.14-11.92,1.18-2.15-1.76-3.29-4.46-3.07-7.23l2.76-36.3c6.77-35.9,12.17-59.45,16.2-70.65,20.93-58.75,36.19-104.87,45.78-138.35,1.61-5.65,4.06-19.77,7.33-42.35,3.72-20.93,13.42-41.34,29.11-61.24,1.45-1.83,4.12-2.14,5.95-.69,1.14.91,1.74,2.33,1.58,3.78l-6.05,58.75Z"/>
      <path class="cls-8" d="M671.97,533.53l-24.27-46.32c-3.3-6.23-11.01-8.63-17.21-5.34-.37.2-.73.41-1.08.64l-33.81,22.45c-2.06,1.39-4.86.84-6.25-1.22-.4-.6-.66-1.29-.74-2.01-3.54-27.96.18-53.98,11.16-78.05,15.19.67,27.18,4.46,35.96,11.36,23.93,18.73,47.12,32.67,69.58,41.81,19.09,7.8,25.95,19.29,24.27,37.92-.48,5.51-4.63,9.99-10.08,10.89l-47.53,7.87Z"/>
      <path class="cls-30" d="M189.57,460.99l6.59,9.88c-7.8,13.71-17.3,24.27-28.5,31.66l-72.67,41.21c-5.86,3.29-7.93,10.72-4.61,16.61.65,1.15,1.48,2.2,2.46,3.09l24.87,22.25c-6.45,6.81-15.8,11.43-28.03,13.85-14.07,2.78-24.2,5.42-30.39,7.93-19.5,7.8-39.26,14.88-59.29,21.24v-170.88c35.76-2.11,71.64-4.44,107.63-6.99,21.04-1.48,59.56-2.89,81.95,10.15Z"/>
      <path class="cls-14" d="M167.66,502.54l94.92,98.15c.9.89.88,2.34-.05,3.24-.52.5-1.25.75-1.97.66-26.96-4.1-53.64-11.83-80.2-13.91-21.96-1.66-42.84-3.32-62.65-4.97l-24.87-22.25c-5.01-4.53-5.42-12.25-.92-17.25.88-.98,1.92-1.81,3.07-2.45l72.67-41.21Z"/>
      <path class="cls-19" d="M831.36,688.95c5.15,14.16,8.96,28.5,11.43,43.02,9.14,53.51,14.99,92.05,17.55,115.63,1.21,11.16.92,25.9-.87,44.23-8.65-17.43-25.32-27.74-50.01-30.92-11.97-11.74-26.17-29.38-42.62-52.91-7.44-10.67-7.46-20.86-.07-30.59,22.14-29,43.67-58.49,64.6-88.47Z"/>
      <path class="cls-6" d="M940.13,730.36c.28-1.38,1.62-2.28,3.01-2,1.08.22,1.91,1.11,2.04,2.2,6.5,48.49,10.31,75.83,11.43,82.01,6.25,35.49-3.16,53.58-25.41,78.52-1.59,1.82-4.39,1.96-6.26.32-.09-.08-.18-.16-.26-.25-8.11-8.38-11.38-17.95-9.81-28.7,5.51-38.77,13.94-82.8,25.28-132.09Z"/>
      <path class="cls-3" d="M639.77,954.89l20.97,109.24c.32,1.34,1.66,2.16,2.99,1.85.91-.22,1.63-.93,1.85-1.85l24.54-132.77c.13-16.76,2.71-31.89,7.73-45.38,1.17-3.21,4.72-4.86,7.93-3.69.43.16.83.36,1.21.6,28.77,18.28,50.69,41.21,65.75,68.77,1.43,2.64,4.74,3.63,7.38,2.19,1.28-.69,2.23-1.87,2.63-3.27l26.69-89.68c24.69,3.18,41.37,13.49,50.01,30.92-2.69,37.98-18.82,78.72-24.47,108.37-.76,3.97,1.84,7.82,5.81,8.58.21.04.43.07.64.09,21.44,2.22,53.04-16.2,71.12-28.91,3.99-2.82,7.48-3.38,10.49-1.68,3.09,1.79,5.71,4.73,7.87,8.81-1.34,10.49-4.41,19.97-9.21,28.44-19.18,16.58-32.78,36.57-40.81,59.96-.79,2.28-2.76,3.98-5.18,4.44-17.88,3.16-38.05-34.22-51.76-53.85-3.82-5.48-11.33-6.89-16.87-3.16-1.66,1.12-3.43,4.28-5.31,9.48-11.09,30.39-14.72,56.8-24.27,87.93-5.58,18.29-16.54,66.55-30.72,102.32-1.39,3.54-3.03,5.89-4.91,7.06-2.17,1.36-5.03.69-6.39-1.48-.36-.57-.58-1.21-.67-1.88-2.69-19.36-5.18-43.04-7.46-71.05-.4-4.71-2.31-10.22-5.71-16.54-1.77-3.31-5.88-4.56-9.19-2.79-1.37.73-2.44,1.9-3.05,3.33-17.66,40.47-39.48,79.66-65.48,117.57-1.5,2.21-4.51,2.79-6.72,1.29-1.15-.78-1.9-2.01-2.08-3.38l-1.14-8.07-16.47-80.87-26.76-54.25c-1.33-2.66-2.13-5.54-2.35-8.47-1.7-21.56-6.36-43.54-13.98-65.95-.48-1.45-2.04-2.23-3.48-1.75h-.01s-1.61.95-1.61.95c-.36.2-.55.61-.47,1.01l12.84,55.86c.74,3.15-.98,6.36-4.03,7.53-44.5,16.94-78.99,31.19-116.3,65.41l8.4-127.86,5.24-55.93c.09-.94.02-1.89-.2-2.82l-19.56-88.13c-.44-1.88.72-3.76,2.6-4.2,1.23-.29,2.53.11,3.38,1.04l38.99,41.54c2.59,2.77,6.95,2.89,9.74.27.05-.04.1-.09.14-.14,25.48-25.28,21.44-53.85,22.05-87.12.07-3.41,2.86-6.14,6.24-6.08.74.01,1.47.16,2.16.44l62.38,24.54c4.68,1.83,8.31,5.68,9.88,10.49l26.96,82.69Z"/>
      <path class="cls-15" d="M374.51,1014.32c-4.08-1.39-8.27-1.84-12.57-1.35-25.95-34.62-101.37-39.39-145.81-39.19-52.21.18-87.5-1.23-105.88-4.24-36.66-6.05-73.41-11.14-110.25-15.26v-33.54c65.61-8.38,114.08-13.06,145.41-14.05,47.37-1.48,95.93-3.94,145.67-7.4,6.13-.43,12.16,1.77,16.6,6.05,30.12,29.09,54.68,62.9,73.68,101.44,1.48,3.05,1.43,5.06-.13,6.05-1.39.85-3.63,1.35-6.72,1.48Z"/>
      <path class="cls-36" d="M690.12,931.36l-24.54,132.77c-.32,1.34-1.66,2.16-2.99,1.85-.91-.22-1.63-.93-1.85-1.85l-20.97-109.24c4.8-13.18,6.99-27.5,6.59-42.96-.04-2.05,1-4,2.76-5.17,11.16-7.17,21.18-6.21,30.05,2.89,1.51,1.55,2.38,3.62,2.42,5.78.27,10.94,3.11,16.25,8.54,15.93Z"/>
      <path class="cls-10" d="M361.93,1012.97c-27.34,8.38-42.82,25.37-46.45,50.96l-8.54,38.38c-.27,1.33-.77,2.61-1.48,3.76-3.18,5.11-8.69,11.74-16.54,19.9-13.22,13.71-19.58,31.84-19.09,54.38l5.85,89.61c-23.71,1.07-42.04,4.97-54.99,11.7-49.07,4.44-101.84,5.24-149.24,21.11L0,1263.51v-309.23c36.84,4.12,73.59,9.21,110.25,15.26,18.37,3,53.67,4.41,105.88,4.24,44.44-.2,119.86,4.57,145.81,39.19Z"/>
      <path class="cls-36" d="M361.93,1012.97c4.3-.49,8.49-.04,12.57,1.35,21.58,9.34,73.21,30.59,95.26,24l-8.4,127.86-7.06,13.18c-9.28,15.53-10.62,29.71,4.57,42.35,18.55,15.53,41.34,31.8,26.49,58.22-6.72,11.96-23.8,22.72-36.23,33.07-3.76-41.46-14.03-76.03-30.79-103.73-8.34-30.52-23.15-64.65-44.44-102.38-11.47-20.3-25.79-34.17-42.96-41.61-1.96-.83-4.21-.58-5.92.67-4.75,3.41-7.01,7.82-6.79,13.24-2.33-3.41-3.25-8.49-2.76-15.26,3.63-25.59,19.11-42.58,46.45-50.96Z"/>
      <path class="cls-1" d="M921.71,1015.53c-4.97,59.52-2.64,118.22,6.99,176.13,9.14,9.63,10.29,24.6,3.43,44.91-7.04,20.8-15.08,41.01-24.13,60.64-.62,1.37-1.56,2.57-2.76,3.5l-114.42,90.95c-2.33,1.84-5.71,1.44-7.55-.89-.29-.37-.53-.77-.71-1.2l-45.44-103.39c-.28-.57-.96-.8-1.53-.53-.25.12-.45.33-.56.59l-35.56,104.2c-.09.31-.23.61-.4.87-17.66,33.43-30.56,66.62-38.72,99.56-.37,1.54-1.55,2.77-3.09,3.23-.63.18-1.28.34-1.95.47-6.14-14.29-10.82-31.08-14.05-50.35-6.9-41.23-11.36-78.41-13.38-111.53l6.12-85.98,1.14,8.07c.35,2.65,2.78,4.52,5.43,4.17,1.37-.18,2.6-.94,3.38-2.08,25.99-37.91,47.82-77.11,65.48-117.57,1.47-3.45,5.46-5.05,8.91-3.58,1.42.61,2.6,1.68,3.33,3.05,3.41,6.32,5.31,11.83,5.71,16.54,2.29,28.01,4.77,51.7,7.46,71.05.32,2.54,2.63,4.35,5.18,4.03.67-.08,1.31-.31,1.88-.67,1.88-1.17,3.52-3.52,4.91-7.06,14.18-35.76,25.14-84.03,30.72-102.32,9.55-31.12,13.18-57.54,24.27-87.93,1.88-5.2,3.65-8.36,5.31-9.48,5.54-3.73,13.06-2.32,16.87,3.16,13.71,19.63,33.88,57.01,51.76,53.85,2.42-.46,4.39-2.15,5.18-4.44,8.02-23.4,21.62-43.38,40.81-59.96Z"/>
      <path class="cls-1" d="M617.52,1165.84c-13.89,24.38-22.95,49.39-27.16,75.02-7.08,42.89-14.68,86.14-22.79,129.74.4,3.27-.09,5.8-1.48,7.6-.95,1.24-2.72,1.47-3.96.53-.31-.23-.56-.53-.75-.86l-4.77-8.67c-6.63-16.81-9.7-33.93-9.21-51.36.9-30.79,3.63-59.99,8.2-87.59,1.44-8.52-2.11-17.12-9.14-22.18-19.36-13.91-51.49-31.46-76.97-23.12-2.83.91-5.93.24-8.13-1.75-2.46-2.2-4.82-3.47-7.06-3.83l7.06-13.18c37.31-34.22,71.8-48.47,116.3-65.41,3.05-1.17,4.77-4.38,4.03-7.53l-12.84-55.86c-.08-.4.11-.81.47-1.01l1.61-.94c1.44-.49,3.01.29,3.49,1.73,0,0,0,0,0,.01,7.62,22.41,12.28,44.39,13.98,65.95.22,2.93,1.02,5.81,2.35,8.47l26.76,54.25Z"/>
      <path class="cls-24" d="M315.48,1063.93c-.49,6.77.43,11.85,2.76,15.26.54,17.52,5.13,32.63,13.78,45.31.27.4.56.78.87,1.14l85.44,83.63c16.76,27.7,27.02,62.27,30.79,103.73-6.23,12.86-19,18.69-38.32,17.48-6.18-40.2-39.39-135.66-92.23-132.77-19.67-15.1-35.92-20.88-48.74-17.34-.49-22.54,5.87-40.67,19.09-54.38,7.84-8.16,13.36-14.79,16.54-19.9.71-1.16,1.21-2.43,1.48-3.76l8.54-38.38Z"/>
      <path class="cls-3" d="M418.34,1209.27l-85.44-83.63c-.31-.36-.61-.74-.87-1.14-8.65-12.68-13.24-27.79-13.78-45.31-.22-5.42,2.04-9.84,6.79-13.24,1.7-1.25,3.95-1.51,5.92-.67,17.16,7.44,31.48,21.31,42.96,41.61,21.29,37.74,36.1,71.86,44.44,102.38Z"/>
      <path class="cls-9" d="M864.84,1456.72l-52.7,57.07c-9.99-30.52-16.6-62.43-19.83-95.73-.35-3.92-3.39-7.08-7.33-7.6l-12.44-1.55c-7.55-.97-13.37-7.13-13.92-14.72l-2.08-28.97c-.15-2.08-1.97-3.63-4.07-3.45-1.28.11-2.43.85-3.06,1.97-5.51,10.29-16.13,34.08-26.42,39.59-4.39,2.37-7.17,5.98-8.34,10.82-7.75,31.91-22.97,59.74-45.65,83.49-2.62,2.82-2.69,5.78-4.77,8.74-.87,1.16-2.52,1.39-3.67.51-.22-.16-.41-.36-.56-.58-2.38-3.41-3.94-7.33-4.71-11.76.67-.13,1.32-.29,1.95-.47,1.54-.45,2.72-1.69,3.09-3.23,8.16-32.94,21.06-66.13,38.72-99.56.18-.27.31-.56.4-.87l35.56-104.2c.24-.58.91-.86,1.49-.62.26.11.47.31.59.56l45.44,103.39c1.18,2.73,4.35,3.98,7.07,2.8.43-.19.83-.43,1.2-.72l114.42-90.95c1.19-.93,2.14-2.13,2.76-3.5,9.05-19.63,17.1-39.84,24.13-60.64,6.86-20.3,5.71-35.27-3.43-44.91l97.54-105.14c.63-.67,1.35-1.3,2.15-1.88l11.09-7.93c1.4-1.04,3.38-.76,4.42.64.72.96.83,2.26.28,3.33l-179.35,376.05Z"/>
      <path class="cls-1" d="M1207.48,1165.1c.9-4.48,1.9-7.01,3.03-7.6,2.96-1.46,6.55-.24,8.01,2.73.56,1.13.74,2.42.53,3.66-3.36,18.91-3.74,36.08-1.14,51.49,1.15,6.91.81,14.02-1.01,20.84-5.74,21.33-4.68,31.66,3.16,30.99-31.86,12.55-62.05,29.62-90.55,51.23-14.18,10.75-20.23,20.64-26.96,36.3-12.91,30.03-24.13,59.65-33.68,88.87-.61,1.76.35,3.67,2.14,4.25,1.2.39,2.52.1,3.44-.75,46.3-44.01,87.59-90.37,123.89-139.09,2.91-3.95,7.91-7.91,14.99-11.9-2.11,5.42.92,10.08,9.08,13.98,4.88,2.33,8.2.74,9.95-4.77.37-1.13,1.59-1.74,2.72-1.37.77.25,1.33.91,1.45,1.71l2.08,15.6c-1.52,15.24-2.29,30.48-2.29,45.71.07,28.91-16.13,53.24-34.15,94.05-5.47,12.37-7.46,23.26-5.98,32.67-3.99,10.13-8.4,27.07-13.24,50.82-4.21,20.84-15.39,43.96-33.54,69.38-6.72-2.87-13.22-7.46-19.49-13.78-7.93-16.36-13.11-33.86-15.53-52.5-.32-2.5-2.61-4.27-5.12-3.95-.69.09-1.36.34-1.94.72-10.53,6.9-22.14,10.87-34.82,11.9-5.22.42-9.79-3.44-10.2-8.62,0-.08-.01-.17-.02-.25-1.17-21.51-1.39-43.04-.67-64.6.04-2.38-1.12-3.41-3.5-3.09-1.12.13-2.22.87-3.29,2.22-5.74,9.01-12.64,16.25-20.71,21.71-1.43.93-3.34.56-4.27-.83-.33-.49-.5-1.07-.5-1.66.45-83,5.13-161.68,14.05-236.02.32-2.35,2.49-4,4.84-3.68.82.11,1.59.46,2.21.99,9.01,7.89,20.06,7.75,33.14-.4,1.42-.88,1.85-2.75.97-4.17-.61-.97-1.71-1.52-2.85-1.41l-19.02,1.35c-5.33.39-10.61-1.16-14.86-4.37l-21.38-16.07c11.52-24.51,24.2-49.19,38.05-74.01,18.62-33.48,34.89-47.53,63.53-72.87,1.78-1.58,4.5-1.41,6.07.37.26.29.48.62.65.97l51.76,104.87c1.28,2.6,4.42,3.67,7.02,2.39,1.2-.59,2.12-1.61,2.59-2.86l11.36-31.12Z"/>
      <path class="cls-33" d="M617.52,1165.84l16.47,80.87-6.12,85.98c-22.09,7.84-42.19,20.48-60.3,37.92,8.11-43.61,15.71-86.85,22.79-129.74,4.21-25.63,13.27-50.64,27.16-75.02Z"/>
      <path class="cls-11" d="M318.58,1197.7c10.04,12.64,18.73,27.38,26.08,44.23,13.04,29.89,26.33,60.21,39.86,90.95.51,1.11.02,2.43-1.09,2.94-.74.34-1.62.24-2.27-.25l-53.58-39.06-51.9-26.55-5.85-89.61c12.82-3.54,29.06,2.24,48.74,17.34Z"/>
      <path class="cls-9" d="M556.62,1369.19c-15.73-5.87-29.83-3.76-42.28,6.32-16.13,13-32.18,27.02-48.13,42.08l-79.66-68.7,24.27-18.42c19.32,1.21,32.09-4.62,38.32-17.48,12.44-10.35,29.51-21.11,36.23-33.07,14.86-26.42-7.93-42.69-26.49-58.22-15.19-12.64-13.85-26.82-4.57-42.35,2.24.36,4.59,1.64,7.06,3.83,2.21,1.99,5.31,2.66,8.13,1.75,25.48-8.34,57.61,9.21,76.97,23.12,7.03,5.06,10.58,13.66,9.14,22.18-4.57,27.61-7.31,56.8-8.2,87.59-.49,17.43,2.58,34.55,9.21,51.36Z"/>
      <path class="cls-36" d="M410.81,1330.47l-24.27,18.42c-12.06-8.83-24.18-18.82-36.37-29.98-2.69-2.46-7.3-5.6-13.85-9.41-6.77-3.9-9.68-8.22-8.74-12.97l53.58,39.06c.97.74,2.37.55,3.11-.42.5-.65.59-1.52.25-2.27-13.53-30.74-26.82-61.06-39.86-90.95-7.35-16.85-16.04-31.6-26.08-44.23,52.84-2.89,86.05,92.57,92.23,132.77Z"/>
      <path class="cls-9" d="M1379.37,1210.48c-14.65,25.86-28.23,52.1-40.74,78.72-17.34,36.77-26.22,78.72-38.25,119.26-.76,2.54-1.07,5.2-.94,7.86,1.55,36.5,13.71,65.88,4.17,104.87-16.63-64.62-29.76-130.46-39.39-197.51,6.77,5.02,12.59,11.29,17.48,18.82.59.86,1.76,1.08,2.62.5.46-.31.76-.81.81-1.37.85-14.61,6.01-29.06,15.46-43.36,23.53-35.54,47.46-67.23,71.8-95.06,1.14-1.32,3.14-1.46,4.46-.32.48.42.83.97.99,1.59l1.55,5.98Z"/>
      <path class="cls-2" d="M1527,1278.77c-11.11,15.33-17.3,30.99-18.55,46.99.76,1.88.34,3.34-1.28,4.37-.76.46-1.68.56-2.49.27-17.03-6.86-35-16.24-53.91-28.17-6.45-4.03-14.21-6.9-23.26-8.6-2.13-.43-4.35-.07-6.25,1.01-35.02,20.3-37.51,60.5-46.79,95.59-9.37,18.33-15.71,34.24-19.02,47.73-11.92,48.36-21.74,84.57-29.44,108.64-5.42,16.98-14.48,37.15-27.16,60.5-1.12,2.82-2.58,4.66-4.37,5.51-1.88.9-3.61.52-5.18-1.14-18.6-20.12-23.75-40.71-15.46-61.78,3.32-8.42,9.73-13.67,19.23-15.73,3.94-.85,6.59-2.13,7.93-3.83,1.79-2.29,2.67-5.27,2.62-8.94,9.55-38.99-2.62-68.37-4.17-104.87-.13-2.67.18-5.33.94-7.86,12.03-40.54,20.91-82.48,38.25-119.26,12.5-26.62,26.08-52.86,40.74-78.72,43.56,32.76,92.77,55.53,147.62,68.3Z"/>
      <path class="cls-16" d="M1026.45,1237.37l21.38,16.07c4.25,3.21,9.53,4.76,14.86,4.37l19.02-1.35c1.66-.16,3.14,1.07,3.3,2.73.11,1.14-.44,2.25-1.41,2.85-13.09,8.16-24.13,8.29-33.14.4-1.81-1.54-4.52-1.33-6.07.47-.54.63-.88,1.4-.99,2.21-8.92,74.35-13.6,153.03-14.05,236.02,0,1.67,1.38,3.02,3.08,3,.6,0,1.19-.19,1.69-.51,8.07-5.47,14.97-12.71,20.71-21.71-.4,2.87-1.34,5.67-2.82,8.4-1.13,2.08-1.44,4.52-.87,6.86,2.29,9.9,1.25,21.29-3.09,34.15-.63,1.87-2.67,2.85-4.57,2.2-.39-.13-.75-.33-1.08-.59-3.36-2.69-6.52-7.62-9.48-14.79-.97-2.29-3.61-3.36-5.9-2.39-.17.07-.33.15-.48.24-12.5,6.99-23.3,10.22-32.4,9.68-5.44-.36-9.66-4.87-9.61-10.29l.94-184.87,41.01-93.17Z"/>
      <path class="cls-13" d="M1573.78,1307.61l-54.85,16.87c-1.21,1.93-4.71,2.35-10.49,1.28,1.25-16,7.44-31.66,18.55-46.99l15.46-19.76c1.75-2.26,5-2.68,7.26-.93.32.25.62.54.87.86,10.8,13.58,18.53,29.8,23.19,48.67Z"/>
      <path class="cls-23" d="M71.46,1302.77c-21.56,21.69-45.38,37.98-71.46,48.87v-61.71c1.66-4.21,1.66-8.13,0-11.76v-14.66l71.46,39.26Z"/>
      <path class="cls-4" d="M275.69,1269.97l51.9,26.55c-.94,4.75,1.97,9.08,8.74,12.97,6.54,3.81,11.16,6.95,13.85,9.41,12.19,11.16,24.31,21.15,36.37,29.98l79.66,68.7c61.26,51.81,121.68,104.67,181.24,158.58,24.42,22.09,49.61,43.29,75.56,63.59,32.98,25.77,58.15,46.99,75.49,63.66,40.38,38.72,79.44,78.65,117.17,119.79l106.28,120c3,2.87,5.67,8.02,8,15.46-18.11-1.43-35.25-8.38-51.43-20.84-7.62-7.26-15.06-13.87-22.32-19.83-73.45-60.59-126.05-103.15-157.78-127.66-122.62-94.72-186.21-149.78-322.27-260.63-56.2-45.85-133.57-113.88-196.9-168.73-4.03-3.45-13.83-11.14-29.38-23.06-20.23-15.46-38.12-30.65-29.18-56.27,12.95-6.72,31.28-10.62,54.99-11.7Z"/>
      <path class="cls-3" d="M1220.05,1267.21c8.07,4.21,10.8,8.02,8.2,11.43-4.44,5.91-9.41,11.74-14.92,17.48-7.08,3.99-12.08,7.95-14.99,11.9-36.3,48.71-77.6,95.08-123.89,139.09-1.38,1.28-3.55,1.22-4.84-.12-.86-.9-1.14-2.19-.74-3.37,9.55-29.22,20.77-58.84,33.68-88.87,6.72-15.66,12.77-25.55,26.96-36.3,28.5-21.6,58.69-38.68,90.55-51.23Z"/>
      <path class="cls-20" d="M0,1289.93v-11.76c1.66,3.63,1.66,7.55,0,11.76Z"/>
      <path class="cls-27" d="M220.7,1281.66c-8.94,25.61,8.94,40.81,29.18,56.27,15.55,11.92,25.34,19.61,29.38,23.06,63.33,54.86,140.7,122.89,196.9,168.73,136.06,110.85,199.66,165.91,322.27,260.63,31.73,24.51,84.32,67.07,157.78,127.66,7.26,5.96,14.7,12.57,22.32,19.83-57.9-5.51-105.43,8.47-142.58,41.95-9.95-2.33-17.43-5.67-22.45-10.02-38.25-32.94-81.88-52.3-127.52-76.7-22.14-11.83-43.43-26.35-63.86-43.56-24.29-20.39-59.29-47.17-105-80.33-24.07-17.48-48.07-38.38-72.53-57.01-2.13-1.55-5.12-1.08-6.67,1.05-1.15,1.57-1.22,3.69-.19,5.34,9.55,14.52,20.44,30.99,32.67,49.41,25.07,37.78,47.86,89.48,69.78,118.05.94,1.25.66,3.03-.61,3.98-.12.09-.26.18-.39.25l-254.04,125.44c-4.68,2.32-10.22,2.22-14.86-.27-14.16-7.62-22.68-12.48-25.55-14.59-52.37-39.33-109.37-81.34-170.35-105.75-2.08-.8-4.41.23-5.21,2.31-.48,1.24-.31,2.64.44,3.74,38.99,53.91,88.6,97.68,148.83,131.29,2.08,1.15,2.83,3.77,1.67,5.85-.63,1.14-1.74,1.93-3.02,2.15-69.64,12.57-144.8,18.08-217.07,23.33v-712.1c26.08-10.89,49.9-27.18,71.46-48.87,47.39-15.87,100.16-16.67,149.24-21.11Z"/>
      <path class="cls-36" d="M1508.44,1325.76c5.78,1.07,9.28.65,10.49-1.28l-.94,5.98c-.35,1.95.64,3.9,2.42,4.77,1.79.94,3.07,2.08,3.83,3.43.77,1.32.94,2.91.47,4.37-11.7,35.63-30.52,66.89-53.71,106.55-1.6,2.76-3.65,5.24-6.05,7.33-9.14,7.98-15.95,16.38-20.44,25.21-.74,1.66,0,3.61,1.67,4.35,1.27.56,2.75.28,3.71-.72,28.73-33.21,63.26-58.6,103.59-76.17,21.78,3.05,37.58,14.12,47.39,33.21,9.1,17.7,7.95,33.41-3.43,47.12-.84,1.06-1.39,2.31-1.61,3.63l-5.24,34.49c-1.09,7.27-4.59,13.97-9.95,19.02-13.92,13.04-29.51,24.13-28.03,35.56.28,2.17,2.28,3.7,4.45,3.42.11-.01.22-.03.33-.06,27.97-6.05,40.76-3.05,38.39,9.01-6.59,13.71-14.23,25.88-22.92,36.5-14.97,18.28-22.59,27.61-22.86,27.97-7.84,11.07-15.64,22.27-23.39,33.61-17.61,9.55-35.7,11.16-54.25,4.84-14.39-4.91-17.34-17.01-16.81-30.59.76-18.51,1.66-38.05,2.69-58.62l6.45-17.55c.68-1.93-.34-4.04-2.27-4.71-.86-.3-1.8-.28-2.64.07l-13.85,6.05c-1.18.55-2.58,0-3.11-1.21-.26-.6-.28-1.28-.05-1.88.04-.14,3.61-26.31,10.69-78.52.63-4.62.2-8.47-1.28-11.56-.77-1.56-2.65-2.23-4.19-1.49-.6.29-1.08.76-1.39,1.35-3.59,6.59-6.14,13.22-7.66,19.9-8.47,36.79-15.57,67.36-21.31,91.69-2.2,9.41-8.22,25.14-18.08,47.19l-34.08,68.77-8.27,18.49c-.97,2.17-3.52,3.13-5.69,2.16-1.03-.46-1.83-1.31-2.24-2.36l-29.51-77.51c-.79-2.15-.95-4.48-.47-6.72,15.86-69.02,35.29-130.82,58.28-185.4.85-2.09,1.34-4.3,1.48-6.52.76-16.58-.67-32.18-4.3-46.79-.4-1.7-.6-3.46-.6-5.24l.34-26.69c9.28-35.09,11.76-75.29,46.79-95.59,1.9-1.08,4.13-1.44,6.25-1.01,9.05,1.7,16.81,4.57,23.26,8.6,18.91,11.92,36.88,21.31,53.91,28.17.81.29,1.72.2,2.49-.27,1.61-1.03,2.04-2.49,1.28-4.37Z"/>
      <path class="cls-1" d="M1575.94,1317.97c-7.71,28.86-17.79,56.78-30.25,83.76-1.43,3.14-1.28,5.33.47,6.59,1.57,1.12,4.01,1.55,7.33,1.28-40.33,17.57-74.87,42.96-103.59,76.17-1.26,1.31-3.35,1.35-4.66.08-1-.96-1.29-2.45-.72-3.71,4.48-8.83,11.29-17.23,20.44-25.21,2.4-2.09,4.45-4.57,6.05-7.33,23.19-39.66,42.02-70.92,53.71-106.55.47-1.46.3-3.05-.47-4.37-.76-1.34-2.04-2.49-3.83-3.43-1.78-.87-2.77-2.82-2.42-4.77l.94-5.98,54.85-16.87,2.15,10.35Z"/>
      <path class="cls-16" d="M1264.22,1323.68c9.64,67.05,22.77,132.88,39.39,197.51.04,3.67-.83,6.66-2.62,8.94-1.34,1.7-3.99,2.98-7.93,3.83-9.5,2.06-15.91,7.31-19.23,15.73-8.29,21.06-3.14,41.66,15.46,61.78,1.57,1.66,3.29,2.04,5.18,1.14,1.79-.85,3.25-2.69,4.37-5.51,18.76,23.6,14.92,57.01,8.6,85.04-5.65,15.1-8.76,25.05-9.34,29.85-1.34,10.44-7.1,14.86-17.28,13.24-31.33-4.89-63.62-11.63-96.87-20.23-5.48-1.45-8.95-6.85-8-12.44,4.17-24.51,7.89-54.05,11.16-88.6,3.67-39.35,6.7-79.44,9.08-120.26-1.48-9.41.52-20.3,5.98-32.67,18.02-40.81,34.22-65.14,34.15-94.05,0-15.24.76-30.48,2.29-45.71l1.61,7.73c.3,1.57,1.84,2.58,3.44,2.26.3-.06.59-.16.86-.31,3.76-2.11,7.33-4.19,10.69-6.25,5.51-3.41,8.51-3.74,9.01-1.01Z"/>
      <path class="cls-35" d="M985.44,1330.54l-.94,184.87c-.05,5.42,4.17,9.93,9.61,10.29,9.1.54,19.9-2.69,32.4-9.68,2.16-1.24,4.91-.49,6.15,1.67.09.16.17.32.24.48,2.96,7.17,6.12,12.1,9.48,14.79,1.58,1.24,3.85.99,5.07-.55.25-.32.45-.68.58-1.06,4.35-12.86,5.38-24.25,3.09-34.15-.56-2.33-.25-4.78.87-6.86,1.48-2.73,2.42-5.53,2.82-8.4,1.08-1.34,2.17-2.08,3.29-2.22,2.38-.32,3.54.72,3.5,3.09-.72,21.56-.49,43.09.67,64.6.28,5.19,4.74,9.17,9.97,8.89.08,0,.17,0,.25-.02,12.68-1.03,24.29-5,34.82-11.9,2.1-1.4,4.94-.82,6.34,1.29.39.58.63,1.25.72,1.94,2.42,18.65,7.6,36.14,15.53,52.5l-17.55,67.16c-.18.57.14,1.17.7,1.35.48.15.99-.05,1.25-.47l35.09-54.25c18.15-25.41,29.33-48.54,33.54-69.38,4.84-23.75,9.25-40.69,13.24-50.82-2.38,40.83-5.4,80.92-9.08,120.26-3.27,34.55-6.99,64.09-11.16,88.6-.95,5.59,2.52,10.99,8,12.44,33.25,8.6,65.54,15.35,96.87,20.23,10.17,1.61,15.93-2.8,17.28-13.24.58-4.79,3.7-14.74,9.34-29.85l27.43,79.93c.67,2.06.24,4.31-1.14,5.98-7.8,9.14-16.56,17.55-26.28,25.21-1.21.94-20.64,14.52-58.28,40.74-23.8,16.58-38.81,34.53-45.04,53.85-15.1,16.9-36.64,27.4-64.6,31.53-17.03-7.8-26.22-19.83-27.56-36.1-2.2-26.89-4.53-51.63-6.99-74.22-.25-2.48-2.08-4.51-4.5-4.97-31.93-6.32-57.75-4.24-102.52-2.82-22.39.74-35.36-7.46-49.21-27.7-9.68-14.03-21.35-26.08-35.02-36.17-11.83-51.69-2.69-103.39-6.32-150.65-.17-2.07-1.46-3.87-3.36-4.71-18.6-7.93-31.91-17.1-39.93-27.5-18.42-23.93-35.74-40.85-51.96-50.75l52.7-57.07c8.87,23.53,44.77,1.28,56.4-10.42,7.22-7.26,14.59-18.82,22.12-34.69,13-27.47,27.02-54.49,42.08-81.07Z"/>
      <path class="cls-9" d="M1374.46,1390.23l-.34,26.69c0,1.79.2,3.55.6,5.24,3.63,14.61,5.06,30.21,4.3,46.79-.13,2.23-.63,4.43-1.48,6.52-22.99,54.59-42.42,116.39-58.28,185.4-.48,2.24-.32,4.57.47,6.72l29.51,77.51c.86,2.21,3.36,3.31,5.57,2.45,1.05-.41,1.9-1.21,2.36-2.24l8.27-18.49c1.48-1.57,2.67-3.43,3.56-5.58.61-1.49,2.05-2.5,3.7-2.62,1.3-.09,2.55.16,3.76.74,1.2.56,2.57.58,3.76.07,11.97-5.11,22.25-12.26,30.86-21.44,2.58-2.67,6.84-2.74,9.51-.16,1.95,1.89,2.58,4.76,1.59,7.29l-23.19,56.2c-18.28,16.74-34.89,37.58-50.55,53.64-21.78,22.36-41.86,46.05-60.23,71.06l-84.1,11.83c6.23-19.32,21.24-37.26,45.04-53.85,37.65-26.22,57.07-39.8,58.28-40.74,9.73-7.66,18.49-16.07,26.28-25.21,1.38-1.67,1.81-3.92,1.14-5.98l-27.43-79.93c6.32-28.03,10.15-61.44-8.6-85.04,12.68-23.35,21.74-43.52,27.16-60.5,7.71-24.07,17.52-60.28,29.44-108.64,3.32-13.49,9.66-29.4,19.02-47.73Z"/>
      <path class="cls-35" d="M1458.23,1608.71l-58.69,49.34c9.86-22.05,15.89-37.78,18.08-47.19,5.74-24.34,12.84-54.9,21.31-91.69,1.52-6.68,4.08-13.31,7.66-19.9.78-1.52,2.66-2.1,4.2-1.28.6.32,1.08.81,1.38,1.42,1.48,3.09,1.9,6.95,1.28,11.56-7.08,52.21-10.64,78.38-10.69,78.52-.48,1.24.12,2.65,1.33,3.14.59.24,1.25.22,1.83-.05l13.85-6.05c1.89-.78,4.05.11,4.83,2,.35.84.38,1.78.07,2.64l-6.45,17.55Z"/>
      <path class="cls-16" d="M1149.4,1613.89l-35.09,54.25c-.3.51-.96.68-1.47.37-.43-.25-.62-.77-.47-1.25l17.55-67.16c6.27,6.32,12.77,10.91,19.49,13.78Z"/>
      <path class="cls-16" d="M1458.23,1608.71c-1.03,20.57-1.93,40.11-2.69,58.62-.54,13.58,2.42,25.68,16.81,30.59,18.55,6.32,36.64,4.71,54.25-4.84l-30.05,63.12c-3.09,5.29-7.95,16.96-14.59,35.02-4.3,11.56-13.94,25.48-28.91,41.75-22.52,24.47-58.96,26.76-89.07,31.86-3.22.54-6.27-1.66-6.8-4.92-.15-.94-.08-1.9.21-2.81,10.8-32.76,24.67-64.69,41.61-95.79l23.19-56.2c1.36-3.46-.35-7.36-3.8-8.71-2.53-.99-5.4-.36-7.29,1.59-8.6,9.19-18.89,16.34-30.86,21.44-1.2.52-2.57.49-3.76-.07-1.21-.58-2.46-.83-3.76-.74-1.65.12-3.08,1.13-3.7,2.62-.9,2.15-2.08,4.01-3.56,5.58l34.08-68.77,58.69-49.34Z"/>
      <path class="cls-29" d="M835.93,1979.79l-27.83,96.33c-10.58-36.35-17.01-72.74-19.29-109.17-.51-8.14-6.89-14.67-14.99-15.33-29.31-2.42-56.67-7.26-88.53-7.19-28.77.04-54.5-.54-77.17-1.75-3.14-.18-6.29.4-9.21,1.68-30.18,13.18-51.76,21.58-74.82,37.18-46.16,31.33-83.07,55.8-110.72,73.41-2.89,1.88-3.71,5.76-1.83,8.65.81,1.24,2.03,2.15,3.44,2.58,52.17,15.39,113.81,27.36,172.3,31.46,75.92,5.24,152.8,11.56,230.65,18.96,2.25.22,4.26-1.44,4.47-3.69.06-.62-.02-1.24-.24-1.82l-7.13-19.7c5.15,3.67,9.55,8.51,13.18,14.52,3.36,5.71,6.79,6.79,12.77,8.07-3.5-.4-6.18-.25-8.07.47-1.91.71-2.89,2.84-2.18,4.75.11.29.25.57.43.83,14.3,20.3,31.8,37.06,52.5,50.28-.63,30.88-6.03,60.97-16.2,90.28-.71,1.99-2.9,3.03-4.89,2.33-.45-.16-.86-.4-1.22-.71-27.25-23.39-58.89-41.34-94.92-53.85-56.92-19.81-113.23-41.25-168.93-64.33-19.23-7.98-37.15-9.14-53.78-3.5-23.17,7.84-46.43,15.42-69.78,22.72-8.54,2.69-23.53,9.14-28.03,13.98-91.47,96.94-156.79,165.93-195.96,206.98-1.51,1.6-2.74,3.44-3.63,5.45l-8.87,20.84c.58-20.44-5.53-38.01-18.35-52.7,8.56-.67,16.04-5.27,22.45-13.78,23.66-31.46,52.23-71.24,85.71-119.32,8.96-12.91,16.09-25.95,21.38-39.12,1.53-3.91,1.24-8.3-.81-11.97-9.9-17.57-21.15-34.22-33.75-49.95-15.8-19.76-42.96-17.01-63.66-16.54-83.49,1.93-166.96,5.65-250.41,11.16v-54.52c72.27-5.24,147.42-10.75,217.07-23.33,2.34-.41,3.9-2.64,3.49-4.98-.22-1.28-1.01-2.39-2.15-3.02-60.23-33.61-109.84-77.38-148.83-131.29-1.26-1.83-.8-4.35,1.03-5.61,1.1-.75,2.5-.92,3.74-.44,60.97,24.4,117.98,66.42,170.35,105.75,2.87,2.11,11.38,6.97,25.55,14.59,4.64,2.49,10.17,2.59,14.86.27l254.04-125.44c1.41-.74,1.97-2.47,1.25-3.85-.07-.14-.15-.26-.24-.39-21.92-28.57-44.7-80.27-69.78-118.05-12.23-18.42-23.13-34.89-32.67-49.41-1.4-2.24-.72-5.18,1.52-6.58,1.65-1.03,3.76-.96,5.34.19,24.47,18.62,48.47,39.53,72.53,57.01,45.71,33.16,80.71,59.94,105,80.33,20.44,17.21,41.72,31.73,63.86,43.56,45.65,24.4,89.27,43.76,127.52,76.7,5.02,4.35,12.5,7.69,22.45,10.02Z"/>
      <path class="cls-7" d="M1139.52,1929.37c-23.75,3.54-52.12,5.16-85.11,4.84-9.99-.09-20.82,2.91-32.47,9.01l-106.28-120c15.01-24.11,14.36-49.39-1.95-75.83,13.67,10.08,25.34,22.14,35.02,36.17,13.85,20.23,26.82,28.44,49.21,27.7,44.77-1.41,70.59-3.5,102.52,2.82,2.42.47,4.26,2.49,4.5,4.97,2.46,22.59,4.8,47.33,6.99,74.22,1.34,16.27,10.53,28.3,27.56,36.1Z"/>
      <path class="cls-35" d="M1399,1761.31c-16.94,31.1-30.81,63.03-41.61,95.79-1,3.15.7,6.51,3.81,7.52.9.29,1.85.36,2.78.21,30.12-5.11,66.55-7.39,89.07-31.86,14.97-16.27,24.6-30.18,28.91-41.75,6.63-18.06,11.5-29.74,14.59-35.02.81,27.07-2.42,53-9.68,77.78-60.37,31.86-132.77,39.26-198.65,52.03,18.37-25.01,38.45-48.69,60.23-71.06,15.66-16.07,32.27-36.91,50.55-53.64Z"/>
      <path class="cls-20" d="M978.51,1937.84c16.18,12.46,33.32,19.41,51.43,20.84l14.92,22.92,29.58,50.75c-64.76,27.52-108.48,47.62-131.15,60.3-19.36,10.89-31.77,17.43-37.24,19.63l-65.07,1.68c-5.98-1.28-9.41-2.35-12.77-8.07-3.63-6.01-8.02-10.85-13.18-14.52l-6.92-15.26,27.83-96.33c37.15-33.48,84.68-47.46,142.58-41.95Z"/>
      <path class="cls-27" d="M808.1,2076.12l6.92,15.26,7.13,19.7c.79,2.12-.29,4.48-2.41,5.27-.58.22-1.21.3-1.82.24-77.85-7.4-154.73-13.71-230.65-18.96-58.48-4.1-120.13-16.07-172.3-31.46-3.31-.99-5.18-4.48-4.19-7.79.43-1.41,1.34-2.64,2.58-3.44,27.65-17.61,64.56-42.08,110.72-73.41,23.06-15.6,44.64-24,74.82-37.18,2.92-1.28,6.07-1.86,9.21-1.68,22.68,1.21,48.4,1.79,77.17,1.75,31.86-.07,59.22,4.77,88.53,7.19,8.1.65,14.49,7.19,14.99,15.33,2.29,36.43,8.72,72.83,19.29,109.17Z"/>
      <path class="cls-28" d="M1074.44,2032.36l141.04,258.75c17.7,34.78,35.76,69.38,54.18,103.79,18.69,34.96,33.46,66.98,44.3,96.06,12.37,33.12,23.95,66.53,34.75,100.23,3.81,11.83,4.41,22.36,1.81,31.6l-25.75-26.15c-37.85-53.38-88.33-98.35-135.66-143.19-21.92-20.77-43.96-48.6-59.09-66.35-.31-.36-.67-.7-1.08-1.01l-154.48-123.22c-3.97-3.15-9.11-4.41-14.05-3.43l-83.56,16.87c-9.19,1.82-17.42,6.88-23.19,14.25l-36.23,46.05c-4.49,5.71-10.72,9.8-17.75,11.63-74.08,19.27-148.74,42.46-223.99,69.58-9.59,3.45-22.25,9.75-37.98,18.89-19.56,8.34-41.54,15.06-58.55,25.48-25.55,15.64-51.31,30.81-77.31,45.51-9.1,5.15-17.79,6.39-26.08,3.7-42.62-13.71-87.03-35.11-133.24-64.2-1.79-1.13-3.16-2.83-3.9-4.84-3.81-9.81-4.21-20.44-1.21-31.86l8.87-20.84c.89-2,2.12-3.84,3.63-5.45,39.17-41.05,104.49-110.04,195.96-206.98,4.5-4.84,19.5-11.29,28.03-13.98,23.35-7.31,46.61-14.88,69.78-22.72,16.63-5.65,34.55-4.48,53.78,3.5,55.71,23.08,112.02,44.52,168.93,64.33,36.03,12.5,67.67,30.45,94.92,53.85,1.6,1.39,4.02,1.21,5.4-.39.31-.36.55-.77.71-1.22,10.17-29.31,15.57-59.4,16.2-90.28,1.57-20.39,9.03-39.73,22.39-58.02,5.47-2.2,17.88-8.74,37.24-19.63,22.68-12.68,66.4-32.78,131.15-60.3Z"/>
      <path class="cls-28" d="M219.08,2357.79l-101.84-40.87c-39.19-32.87-66.22-70.25-87.06-116.63-5.29-11.79-15.35-21.74-30.18-29.85v-52.17c83.45-5.51,166.92-9.23,250.41-11.16,20.71-.47,47.86-3.23,63.66,16.54,12.59,15.73,23.84,32.38,33.75,49.95,2.04,3.67,2.34,8.06.81,11.97-5.29,13.18-12.41,26.22-21.38,39.12-33.48,48.09-62.05,87.86-85.71,119.32-6.41,8.52-13.89,13.11-22.45,13.78Z"/>
      <path class="cls-18" d="M906.05,2112.29c-13.36,18.29-20.82,37.62-22.39,58.02-20.71-13.22-38.21-29.98-52.5-50.28-1.17-1.68-.76-3.98.92-5.15.26-.18.53-.32.83-.43,1.88-.72,4.57-.87,8.07-.47l65.07-1.68Z"/>
      <path class="cls-18" d="M117.24,2316.92L0,2280.62v-110.18c14.83,8.11,24.9,18.06,30.18,29.85,20.84,46.38,47.86,83.76,87.06,116.63Z"/>
      <path class="cls-37" d="M1324.79,2596.64l-89.14-17.81c-9.37-1.43-18.31-4.62-26.82-9.55-23.08-13.35-46.23-26.57-69.44-39.66-29.18-16.45-55.89-36.28-80.13-59.49-3.45-3.27-6.77-1.23-9.95,6.12,1.68-40.2-1.01-79.19-40.27-93.51-61.89-22.68-125.04-32.33-189.44-28.97-2.49.11-4.41,2.21-4.3,4.7.04.93.37,1.83.94,2.56,37.44,48.8,82.15,89.54,125.44,132.7,8.83,8.78,20.97,26.91,36.44,54.38-7.87,10.49-20.44,21.65-24.07,33.21-4.93,16.04-7.62,32.13-8.07,48.27-.07,1.89-1.65,3.37-3.55,3.31-.21,0-.42-.03-.62-.08-11.25-2.37-21.89-5.65-31.93-9.82-69.85-28.91-128.87-56.33-200.26-77.44-39.46-11.63-73.81-12.97-113-8-66.01,8.34-132.77,20.68-200.26,37.04,14.12-13.18,28.84-25.12,44.17-35.83,26.44-18.51,41.68-29.6,45.71-33.28,20.53-18.69,39.03-39.73,55.53-63.12.87-1.25.57-2.97-.68-3.84-.1-.07-.21-.14-.33-.2l-3.03-1.61c15.73-9.14,28.39-15.44,37.98-18.89,75.25-27.11,149.91-50.3,223.99-69.58,7.02-1.83,13.26-5.91,17.75-11.63l36.23-46.05c5.77-7.37,14-12.43,23.19-14.25l83.56-16.87c4.94-.98,10.08.27,14.05,3.43l154.48,123.22c.4.31.76.65,1.08,1.01,15.13,17.75,37.17,45.58,59.09,66.35,47.33,44.84,97.81,89.81,135.66,143.19Z"/>
      <path class="cls-26" d="M1049.3,2476.24c-18.28,27.36-46.99,49.27-71.19,71.86-15.46-27.47-27.61-45.6-36.44-54.38-43.29-43.16-88-83.9-125.44-132.7-1.52-1.97-1.17-4.8.8-6.32.74-.57,1.63-.9,2.56-.94,64.4-3.36,127.55,6.3,189.44,28.97,39.26,14.32,41.95,53.31,40.27,93.51Z"/>
      <path class="cls-14" d="M85.37,2609.41c-14.43,37.06-28.55,74.04-42.35,110.92-10.53,28.05-24.87,53.96-43.02,77.71v-230.04c19.99,0,32.98,2.15,38.99,6.45,16.13,11.61,31.6,23.26,46.38,34.96Z"/>
      <path class="cls-17" d="M308.36,2824.73l-.81,16.74c-.09,2.45-.93,4.8-2.42,6.72-43.43,58.04-86.07,116.86-127.93,176.46-19.97,28.57-47.73,63.93-71.26,83.02-14.57,11.88-49.88,36.59-105.95,74.15v-31.6c31.24-41.1,59.61-82.91,85.11-125.44,87.93-146.86,141.13-236.02,159.59-267.49,7.53-12.86,12.77-25.77,15.73-38.72.09-.77-.47-1.48-1.24-1.56-.56-.06-1.1.21-1.38.69-19.9,41.81-45.17,79.51-75.83,113.07-27.49,30.12-50.28,53.24-73.14,81.27-36.21,44.46-72.49,88.33-108.84,131.63v-41.68c5.47-22.14,12.1-37.38,19.9-45.71,49.48-52.84,92.1-97.41,115.89-165.04,3.23-9.23,14.23-45.09,33.01-107.56,1.88-6.18,3.47-21.29,4.77-45.31,16.27-.36,28.23-10.49,35.9-30.39.75-1.86,2.84-2.78,4.68-2.07.75.29,1.38.83,1.77,1.53,40.24,69.15,71.06,141.57,92.43,217.27Z"/>
      <path class="cls-31" d="M173.57,2638.38c-1.3,24.02-2.89,39.13-4.77,45.31-18.78,62.47-29.78,98.33-33.01,107.56-23.8,67.63-66.42,112.2-115.89,165.04-7.8,8.34-14.43,23.57-19.9,45.71v-203.96c18.15-23.75,32.49-49.66,43.02-77.71,13.8-36.88,27.92-73.86,42.35-110.92,28.23,14.97,57.63,24.63,88.2,28.97Z"/>
      <path class="cls-34" d="M0,3150.23v-106.55c36.35-43.29,72.62-87.17,108.84-131.63,22.86-28.03,45.65-51.16,73.14-81.27,30.65-33.57,55.93-71.26,75.83-113.07.39-.67,1.26-.9,1.93-.51.48.28.76.82.69,1.38-2.96,12.95-8.2,25.86-15.73,38.72-18.46,31.46-71.66,120.62-159.59,267.49-25.5,42.53-53.87,84.34-85.11,125.44Z"/>
      <path class="cls-26" d="M356.02,2948.08c4.53,12.19,3.56,29-2.89,50.42l-30.79,128.46c-39.12,32-81.81,52.39-128.06,61.17-1.31.25-2.58-.6-2.84-1.92-.12-.62,0-1.26.35-1.78l82.62-126.85c.53-.85.28-1.97-.57-2.5-.63-.4-1.45-.37-2.05.08l-187.56,144.06L0,3239.84v-58.01c56.06-37.56,91.38-62.27,105.95-74.15,23.53-19.09,51.29-54.45,71.26-83.02,41.86-59.61,84.5-118.43,127.93-176.46,1.49-1.92,2.33-4.27,2.42-6.72l.81-16.74c10.13,53.74,9.12,106.17-3.03,157.31-.37,1.36.42,2.77,1.78,3.14,1.1.3,2.26-.16,2.85-1.12l21.71-33.34c.75-1.14,1.83-2.01,3.09-2.49,5.02-1.84,12.1-1.88,21.24-.13Z"/>
      <path class="cls-25" d="M322.34,3126.97c.85,17.93-1.32,35.25-6.52,51.97l-23.73,24.33c-.89.89-1.89,1.66-2.96,2.29-29.58,17.12-59.4,33.63-89.48,49.54-14.57,7.75-33.68,20.77-57.34,39.06-37.96,23.62-77.69,42.06-119.19,55.33-5.56-1.88-4.71-5.83,2.55-11.83,4.97-4.12,8.63-7.86,10.96-11.23,16.45-23.57,31.39-48.04,44.84-73.41,9.59-18.1,10.51-36.03,2.76-53.78l187.56-144.06c.8-.6,1.94-.43,2.54.37.45.6.48,1.41.08,2.05l-82.62,126.85c-.73,1.12-.41,2.62.71,3.35.53.34,1.17.47,1.78.35,46.25-8.79,88.94-29.18,128.06-61.17Z"/>
      <path class="cls-12" d="M315.82,3178.93c.76,21.51,1.68,42.51,2.76,62.99,1.14,21.98,10.76,31.13,32.33,37.65,12.82,3.9,25.52,8.92,38.12,15.06-12.46,2.51-35.38,3.61-68.77,3.29-20.35-.18-40.51,5.83-60.5,18.02-9.28,3.86-17.7,7.24-25.28,10.15-31.33,12.03-47.12,33.21-58.22,65.27-12.06,34.78-20.64,64.13-25.75,88.06l-69.64-20.71c4.84-6.23,14.79-14.7,29.85-25.41,41.61-29.58,51.22-95.53,31.6-139.15,23.66-18.28,42.78-31.31,57.34-39.06,30.07-15.91,59.9-32.43,89.48-49.54,1.07-.63,2.07-1.39,2.96-2.29l23.73-24.33Z"/>
      <path class="cls-22" d="M84.23,3199.23c7.75,17.75,6.83,35.68-2.76,53.78-13.44,25.37-28.39,49.84-44.84,73.41-2.33,3.36-5.98,7.1-10.96,11.23-7.26,6.01-8.11,9.95-2.55,11.83-13.31,13.09-21.02,16.22-23.13,9.41v-119.05l84.23-40.6Z"/>
      <path class="cls-28" d="M398.57,3298.52l-19.16,9.68c-3.79,1.9-5.29,6.52-3.36,10.32.76,1.5,1.99,2.71,3.49,3.46,86.11,41.88,156.97,66.28,191.25,118.85,1.99,3.09,1.11,7.21-1.98,9.2-.49.32-1.02.57-1.58.75-60.59,18.87-122.19,33.57-184.8,44.1l-107.63-43.09c-7.75-3.11-12.88-10.54-13.04-18.89l-2.02-116.97c19.99-12.19,40.16-18.2,60.5-18.02,33.39.31,56.31-.78,68.77-3.29l9.55,3.9Z"/>
      <path class="cls-21" d="M142.31,3294.15c19.63,43.63,10.02,109.58-31.6,139.15-15.06,10.71-25.01,19.18-29.85,25.41l-75.16,19.23c-2.04.53-3.57,2.22-3.9,4.3-.76,5.11-.54,10.53.67,16.27l-2.49,4.91v-144.53c2.11,6.81,9.81,3.67,23.13-9.41,41.5-13.27,81.23-31.71,119.19-55.33Z"/>
      <path class="cls-5" d="M705.05,3487.02l-67.9,37.98c-5.48,3.05-11.6,4.8-17.88,5.11l-175.66,8.54c-7.35-15.69-16.22-26.08-26.62-31.19-4.53-2.2-16.04-6.39-34.55-12.57,62.61-10.53,124.21-25.23,184.8-44.1,3.5-1.12,5.43-4.87,4.31-8.37-.18-.56-.43-1.09-.75-1.58-34.28-52.57-105.14-76.97-191.25-118.85-3.82-1.89-5.42-6.51-3.56-10.32.73-1.5,1.94-2.71,3.43-3.46l19.16-9.68c26.08,10.89,50.08,21.04,78.79,30.72,68.48,23.17,133.35,54.14,194.61,92.9,25.05,15.87,36.08,37.49,33.07,64.87Z"/>
      <path class="cls-10" d="M259.75,3315.94l2.02,116.97c.16,8.35,5.29,15.79,13.04,18.89l107.63,43.09c18.51,6.18,30.03,10.37,34.55,12.57,10.4,5.11,19.27,15.51,26.62,31.19-13.85,10.04-29.13,16.18-45.85,18.42-47.33,6.36-103.46,12.44-168.4,18.22-9.19.81-21.13,4.91-35.83,12.3-26.04-8.87-45.31-14.27-57.81-16.2-37.71-5.71-90.42-4.84-135.73-10.89v-57.07l2.49-4.91,133.04-3.23c1.64-.04,3.22-.46,4.64-1.21,8.02-4.26,11.47-9.14,10.35-14.65,5.11-23.93,13.69-53.29,25.75-88.06,11.09-32.07,26.89-53.24,58.22-65.27,7.57-2.91,16-6.3,25.28-10.15Z"/>
      <path class="cls-34" d="M80.87,3458.72l69.64,20.71c1.12,5.51-2.33,10.4-10.35,14.65-1.42.75-3,1.17-4.64,1.21l-133.04,3.23c-1.21-5.73-1.43-11.16-.67-16.27.33-2.08,1.86-3.77,3.9-4.3l75.16-19.23Z"/>
      <path class="cls-25" d="M705.05,3487.02l17.75,64.27,1.82,20.5c-34.78,22.05-70.09,43.04-105.95,62.99-19.9,11.02-39.37,15.22-58.42,12.57-43.96-6.09-88.06-11.43-132.3-16-37.69-3.9-115.83-18.48-234.41-43.76,14.7-7.39,26.64-11.49,35.83-12.3,64.94-5.78,121.07-11.85,168.4-18.22,16.72-2.24,32-8.38,45.85-18.42l175.66-8.54c6.28-.31,12.4-2.06,17.88-5.11l67.9-37.98Z"/>
    </g>
  </g>
</svg>