<svg width="3939" height="5765" viewBox="0 0 3939 5765" fill="none" xmlns="http://www.w3.org/2000/svg">
<path d="M3299.65 2378.25L3174.19 2223.2C3155.3 2220.66 3117.25 2438.58 3140.08 2468.75L3094.41 2429.84C3092.15 2427.87 3115.27 2476.36 3060.3 2481.44C3051.84 2482.28 3015.75 2320.74 2991.79 2481.44L2934.84 2403.91V2597.87L2912.01 2378.25L2775.28 2442.81C2763.44 2448.45 2895.66 2740.8 2764 2507.37C2742.01 2623.24 2774.71 2669.75 2661.38 2584.9L2627.27 2558.96C2592.59 2532.74 2657.15 2751.23 2707.05 2752.92C2553.41 2689.49 2636.29 2948.85 2524.65 2765.89C2450.79 2750.67 2346.2 2798.59 2273.74 2791.83C2325.9 2836.65 2384.82 2920.94 2456.14 2920.94H2501.82C2528.03 2920.94 2643.06 2863.99 2661.38 2972.53C2693.52 2982.96 2819.54 3029.48 2820.95 3076C2828.28 2968.02 2784.02 2899.8 2889.45 2933.91C2779.51 2858.36 3078.62 2766.45 3163.2 2688.36L3208.87 2636.77L3300.21 2378.25H3299.65ZM3037.18 2507.37C3084.26 2559.81 3129.37 2654.25 3060.02 2714.3C3029.57 2679.34 3005.89 2528.79 3037.18 2507.37Z" fill="#7B3C40"/>
<path d="M3687.29 1551.11C3494.45 1757.19 3600.74 1356.59 3504.88 1486.55C3506.58 1264.68 3467.11 1385.06 3413.54 1396.06C3403.68 1398.03 3443.99 1496.98 3345.04 1370.12C3345.04 1386.47 3191.67 1462.02 3208.31 1525.17H3345.04C3359.7 1525.17 3458.93 1482.32 3459.21 1538.14C3443.71 1566.61 3355.19 1584.37 3322.48 1577.04L3253.98 1809.63C3253.13 1813.01 3252.57 1833.87 3253.98 1835.56L3276.81 1861.5L3368.15 1913.09C3368.15 1898.15 3418.05 1760.57 3425.1 1758.04C3493.61 1846.56 3459.21 1810.75 3459.21 1887.15V1913.09L3550.56 1964.68L3596.23 1913.09L3607.5 1783.97C3665.01 1860.94 3791.88 1752.96 3801.46 1693.48C3827.68 1602.13 3695.46 1569.15 3687.29 1551.39V1551.11ZM3493.33 1551.11L3607.5 1706.16C3544.92 1742.81 3454.98 1558.72 3493.33 1551.11Z" fill="#575587"/>
<path d="M2615.14 4859.69L2478.41 4808.1C2423.72 4866.45 2314.9 4817.68 2250.34 4834.04C2208.33 4844.75 1995.76 4997.55 1976.59 5040.96L1953.76 5092.55C1958.83 5251.56 2178.45 5223.08 2273.17 5183.05C2225.25 5285.95 1932.61 5335 1862.7 5247.61C1857.62 5265.09 1797.58 5344.02 1771.36 5351.07C1905.27 5484.98 2074.14 5417.32 2227.5 5377.01L2501.25 5170.08C2531.41 5147.25 2590.33 5094.81 2615.42 5066.62L2683.93 4989.09L2615.42 4859.97L2615.14 4859.69ZM2398.63 5015.03C2410.75 5018.97 2315.46 5171.49 2307.29 5170.08C2285.86 5111.73 2346.75 5020.95 2398.63 5015.03Z" fill="#4E5FAD"/>
<path d="M2432.74 4006.89L2341.4 3980.95V4032.54C2440.07 4054.81 2493.36 4086.11 2500.97 4200.56C2388.2 4173.22 2408.22 4241.44 2250.06 4213.53L2386.79 4291.06C2403.7 4300.64 2434.15 4277.25 2455.3 4304.03C2570.88 4450.63 2377.49 4334.19 2375.51 4342.93L2364.24 4394.52C2322.23 4423.56 2256.82 4499.4 2227.51 4523.64L2273.18 4549.58C2287.55 4557.75 2576.24 4601.17 2592.59 4601.17C2543.25 4580.02 2551.71 4452.32 2546.92 4446.11L2478.41 4355.62C2493.36 4306.56 2592.59 4420.18 2615.14 4446.11C2841.81 4448.65 2668.71 4366.33 2751.88 4342.65V4135.72L2637.7 4032.26C2626.98 4056.79 2749.06 4304.87 2694.65 4368.3L2660.53 4213.25C2532.26 4455.7 2645.59 4066.93 2432.46 4006.32L2432.74 4006.89ZM2581.03 4342.93L2455.58 4252.44C2480.39 4186.47 2613.45 4331.94 2581.03 4342.93Z" fill="#303A88"/>
<path d="M813.401 4911.56C958.307 5119.9 725.442 5290.74 551.216 5221.67C488.911 5197.14 570.95 5130.61 517.104 5118.2C311.584 5349.66 629.025 5376.72 790.847 5376.72H859.354C1113.08 5446.36 1375.83 5395.61 1612.08 5350.78C1445.75 5259.16 574.333 5462.14 996.366 5118.2C909.535 5131.73 927.86 5094.52 927.86 5014.74V4963.15C908.971 4972.45 834.263 4926.78 813.683 4911.56H813.401Z" fill="#2D172C"/>
<path d="M3162.63 2688.36C3078.06 2766.46 2778.94 2858.36 2888.89 2933.91C2783.73 2899.8 2827.71 2968.03 2820.38 3076L2797.55 3412.05C2797.55 3415.71 2832.79 3459.97 2843.22 3463.64L2866.05 3282.64C2890.58 3089.25 3041.69 2825.09 3162.63 2688.08V2688.36Z" fill="#332B5D"/>
<path d="M3938.2 4989.09C3900.98 4985.7 3755.79 5131.17 3755.79 5144.14V5170.08L3938.2 5066.61V4989.09Z" fill="#ACDAEA"/>
<path d="M2615.14 3541.44V3670.56C2648.69 3708.62 2657.15 3778.82 2706.48 3799.68V3696.21L2615.14 3541.16V3541.44Z" fill="#262661"/>
<path d="M3231.14 5402.66L3162.63 5351.07L3071.29 5377C3005.61 5395.61 2994.33 5438.46 2957.12 5480.47C3011.81 5519.66 3170.25 5442.13 3230.86 5402.94L3231.14 5402.66Z" fill="#9A9BBF"/>
<path d="M1908.09 4394.53C1580.22 4331.94 973.812 4600.33 744.894 4859.69L813.4 4911.28C833.98 4926.79 908.407 4972.46 927.577 4962.87L1292.38 4781.88C1348.2 4754.25 1555.13 4714.5 1566.12 4704.35L1817.03 4471.77C1834.23 4455.7 1908.38 4413.41 1908.38 4394.24L1908.09 4394.53Z" fill="#6575C0"/>
<path d="M2660.81 3489.86C2613.73 3483.37 2615.14 3494.08 2615.14 3541.45L2706.48 3696.5V3567.38C2706.48 3562.59 2667.3 3498.6 2660.81 3489.86Z" fill="#6272AB"/>
<path d="M2866.05 5583.65C2740.03 5726.3 2884.94 5764.64 3025.62 5764.64C3066.5 5704.6 3319.94 5759.29 3333.47 5738.71L3367.59 5687.12C3303.31 5688.81 3227.75 5706.01 3230.86 5609.59C3120.62 5609.59 2994.61 5747.45 2866.05 5583.65Z" fill="#242160"/>
<path d="M1953.77 5092.56C1951.51 5097.35 1892.31 5146.4 1885.26 5170.09L1862.42 5247.61C1932.62 5335.01 2225.25 5285.95 2272.9 5183.05C2178.17 5223.09 1958.56 5251.56 1953.48 5092.56H1953.77Z" fill="#313684"/>
<path d="M3390.7 3386.39C3391.55 3295.61 3436.37 3057.11 3367.87 3282.93V3412.05C3377.17 3399.92 3379.99 3396.54 3390.7 3386.11V3386.39Z" fill="#677FB4"/>
<path d="M2774.99 4989.09C2733.55 5000.93 2762.59 4899.72 2683.65 4989.09L2615.15 5066.61C2899.32 5072.25 2517.6 5299.48 2797.55 5208.7V5014.74L2774.71 4988.8L2774.99 4989.09Z" fill="#29277A"/>
<path d="M3801.46 4213.54L3664.73 4161.95C3498.96 4176.61 3376.89 4322.64 3322.48 4497.99C3413.83 4523.08 3507.42 4633.03 3550.56 4730.57L3938.2 4497.99V4317C3889.71 4293.32 3747.05 4272.74 3801.46 4213.54Z" fill="#6575C0"/>
<path d="M585.323 4161.95L493.981 4291.07C570.945 4410.32 1082.06 4387.76 927.291 4575.52C931.238 4572.42 1018.63 4579.75 1018.63 4536.62V4394.53C877.673 4336.46 665.388 4318.7 585.323 4161.95Z" fill="#282969"/>
<path d="M3938.2 3567.38C3877.86 3588.81 3892.52 3645.19 3892.52 3696.5V3748.09L3938.2 3774.02V3567.1V3567.38Z" fill="#6A75B4"/>
<path d="M2706.49 3955.01C2693.8 3969.67 2661.94 3978.41 2660.81 3980.95L2637.98 4032.54L2752.16 4136H2774.99L2706.49 3955.01Z" fill="#5D7AB7"/>
<path d="M3390.7 5299.2C3303.59 5274.39 3238.18 5329.36 3162.63 5350.79L3231.14 5402.38L3390.7 5298.92V5299.2Z" fill="#6575C0"/>
<path d="M2227.51 4808.1C2106 4835.73 2027.63 4910.44 1953.76 5015.03L1976.6 5040.96C1995.77 4997.83 2208.34 4844.75 2250.34 4834.04L2227.51 4808.1Z" fill="#C9DFF0"/>
<path d="M3938.2 4239.47C3866.02 4166.17 3830.5 4224.53 3801.46 4213.53C3747.05 4272.73 3889.71 4293.31 3938.2 4317V4239.47Z" fill="#312C73"/>
<path d="M2706.48 5454.26C2641.36 5379.83 2477.28 5260.58 2637.98 5182.77L2501.25 5221.67C2408.78 5247.89 2417.52 5326.55 2227.5 5376.73C2074.14 5417.32 1905.27 5484.7 1771.36 5350.79H1748.52C1562.74 5645.96 2643.33 5517.97 2706.48 5454.26Z" fill="#2A142A"/>
<path d="M2524.08 2300.72L2467.13 2274.79C2433.87 2294.52 2515.34 2346.39 2410.19 2378.25C2409.62 2385.86 2409.06 2402.78 2410.19 2404.19L2524.36 2520.62C2552.56 2549.38 2501.53 2606.32 2501.53 2611.11V2637.05C2501.53 2665.24 2513.93 2749.25 2524.36 2766.17C2636 2949.13 2553.4 2689.77 2706.77 2753.2C2656.87 2751.51 2592.31 2533.02 2626.98 2559.24L2661.09 2585.18C2683.93 2602.37 2687.31 2449.01 2683.93 2443.09C2458.96 2386.99 2867.46 2456.34 2524.36 2301L2524.08 2300.72Z" fill="#B8916F"/>
<path d="M3846.85 3644.91L3710.12 3618.97C3715.76 3620.66 3645.28 3666.05 3687.29 3722.44C3759.74 3743.02 3804 3860.3 3846.85 3644.91Z" fill="#6E8BBC"/>
<path d="M2227.51 3489.85C2056.95 3407.25 2130.81 3386.39 1885.26 3386.39H1634.35C1604.75 3386.39 1522.71 3454.33 1497.62 3463.91C1706.24 3503.1 1928.39 3404.99 2136.17 3463.91L2227.51 3489.85Z" fill="#CDCFE5"/>
<path d="M3482.04 5273.26C3340.24 5252.4 3648.38 5609.31 3402.26 5609.31H3231.14C3228.32 5705.72 3303.87 5688.52 3367.87 5686.83C3378.58 5670.48 3641.33 5660.33 3664.45 5505.84C3642.46 5488.36 3540.96 5273.26 3482.04 5273.26Z" fill="#1E278E"/>
<path d="M2478.42 2636.77L2432.74 2688.36C2429.36 2692.02 2401.73 2685.54 2387.07 2688.36L1999.43 2765.89L2273.18 2791.82C2345.63 2798.59 2450.22 2750.66 2524.09 2765.89C2513.65 2748.97 2501.25 2664.68 2501.25 2636.77H2478.42Z" fill="#7975A4"/>
<path d="M2432.74 2688.36C2437.82 2556.71 2289.53 2571.65 2273.18 2559.25C2304.75 2631.98 2291.78 2706.41 2387.35 2688.36C2402.01 2685.54 2429.64 2692.03 2433.02 2688.36H2432.74Z" fill="#312229"/>
<path d="M3482.05 5273.26H3390.71V5299.2L3231.14 5402.66C3170.53 5441.85 3012.09 5519.37 2957.4 5480.19L2866.06 5583.65C2994.89 5747.16 3120.63 5609.59 3230.86 5609.59H3401.98C3648.1 5609.59 3339.96 5252.68 3481.77 5273.54L3482.05 5273.26Z" fill="#4E5FAD"/>
<path d="M2957.39 4937.21L2774.99 4988.8L2797.82 5014.74C2818.4 5038.14 2929.48 5027.43 2980.23 5040.68L2957.39 4937.21Z" fill="#9A9BBF"/>
<path d="M2706.48 3851.56C2675.76 3821.39 2608.94 3836.61 2615.14 3903.15C2640.52 3939.23 2670.12 3925.42 2660.81 3980.67C2661.94 3978.14 2693.52 3969.4 2706.48 3954.74L2729.32 3928.8C2725.09 3917.24 2706.48 3855.22 2706.48 3851.27V3851.56Z" fill="#3959B0"/>
<path d="M3573.1 4110.07C3498.11 4149.26 3396.9 4152.36 3322.2 4110.07C3322.2 4121.07 3229.44 4218.89 3208.02 4291.06L3185.18 4368.59C3195.33 4355.9 3427.63 4115.43 3436.09 4213.54L3641.33 4161.95L3572.82 4110.35L3573.1 4110.07Z" fill="#506EA8"/>
<path d="M2022.27 4161.95H1953.76C1822.95 4185.07 1994.64 4254.42 1999.43 4265.41L2022.27 4161.95Z" fill="#2E3072"/>
<path d="M3208.3 4653.04C3164.89 4630.77 3101.46 4593.28 3048.74 4653.04L2980.23 4730.57L3025.9 4808.1L3208.3 4653.04Z" fill="#3D3C8E"/>
<path d="M2250.34 4575.51C2240.47 4586.79 2174.79 4619.49 2204.67 4653.04C2310.39 4592.14 2386.23 4652.48 2478.41 4704.63C2563.84 4556.63 2316.31 4634.43 2250.34 4575.51Z" fill="#303A88"/>
<path d="M2911.73 2378.26L2934.56 2597.87V2403.91C2934.56 2403.91 2933.15 2368.11 2911.73 2377.97V2378.26Z" fill="#92564F"/>
<path d="M2159 4601.17L2022.27 4575.24C2099.79 4772.3 1603.61 4848.41 1566.12 4704.36C1594.31 5027.43 1144.09 4997.27 995.797 5117.93C574.045 5461.87 1445.18 5258.89 1611.51 5350.51L1748.24 5324.57C1804.34 5313.86 1823.23 5199.12 1862.42 5143.58L1953.76 5014.46C2027.62 4909.87 2106 4835.17 2227.5 4807.54L2341.68 4781.6C2336.61 4762.71 2309.54 4741.29 2296.01 4730.01L2204.67 4652.48C2178.73 4630.49 2162.1 4601.45 2159 4600.89V4601.17Z" fill="#200917"/>
<path d="M2296.01 1473.58L2273.17 1499.52V1525.45C2273.17 1578.17 2261.33 1619.61 2307.29 1654.57L2341.4 1577.04L2295.73 1473.58H2296.01Z" fill="#5689B5"/>
<path d="M3938.2 5066.62L3755.79 5170.09C3755.79 5344.87 3803.44 5294.13 3938.2 5299.2V5066.62Z" fill="#506EA8"/>
<path d="M2615.15 4446.11C2592.59 4420.17 2493.36 4306.56 2478.42 4355.62L2546.92 4446.11C2590.9 4496.85 2612.05 4446.11 2615.43 4446.11H2615.15Z" fill="#506EA8"/>
<path d="M3618.78 3593.04L3755.51 3476.61L3595.94 3489.58C3487.4 3498.32 3358.85 3697.91 3299.36 3799.69H3322.2C3328.4 3799.69 3422.84 3755.42 3436.38 3748.09L3482.05 3722.16C3482.05 3675.08 3553.37 3513.25 3618.78 3593.04Z" fill="#6877B5"/>
<path d="M2729.32 3929.08L2706.49 3955.02L2774.99 4136.01C2785.71 4164.48 2811.64 4326.02 2797.83 4329.97L2752.16 4342.93V4407.49C2837.3 4458.8 2800.65 4379.58 2843.5 4342.93V4071.45C2843.5 4017.89 2811.08 4160.54 2797.83 4123.04L2729.32 3929.08Z" fill="#303A88"/>
<path d="M1953.76 5015.03L1862.42 5144.14L1885.25 5170.08C1892.3 5146.4 1951.5 5097.35 1953.76 5092.55L1976.59 5040.96L1953.76 5015.03Z" fill="#B0C8E5"/>
<path d="M3253.98 1835.28C3239.88 1833.03 3214.79 1839.51 3208.31 1835.28L3139.8 1912.81C3039.15 2026.98 3060.86 1903.79 3060.02 1912.81L3048.74 2016.27C3029.29 2193.6 3211.41 2120.86 3208.31 2106.77L3185.47 2003.3C3181.24 1983.85 3230.3 1992.87 3231.14 1990.33L3276.81 1861.22L3253.98 1835.28Z" fill="#B59374"/>
<path d="M2478.42 4704.64L2296.02 4730.57C2309.27 4741.85 2336.33 4763.28 2341.69 4782.16C2358.32 4778.5 2458.97 4800.49 2478.42 4808.1L2615.15 4859.69C2588.65 4809.79 2532.83 4735.36 2523.81 4730.57L2478.14 4704.64H2478.42Z" fill="#313587"/>
<path d="M744.891 4782.16L699.22 4756.22C654.676 4791.46 507.514 4752.28 448.311 4859.69L391.364 4963.15C382.624 4978.65 161.881 4951.87 83.5079 5040.68L288.745 5066.61C501.03 5093.4 525.557 5108.34 653.549 4963.15C650.447 4917.2 720.364 4799.08 744.891 4782.16Z" fill="#241028"/>
<path d="M3664.45 5506.12C3641.33 5660.61 3378.58 5670.76 3367.87 5687.11L3333.76 5738.7C3320.22 5759.28 3066.5 5704.31 3025.9 5764.64H3504.88L3778.62 5596.62L3664.45 5506.12Z" fill="#0D0E5B"/>
<path d="M3253.97 2972.82C3164.32 3027.51 3116.39 3102.78 3048.73 3179.75C3017.16 3312.53 3159.53 3212.73 3185.46 3153.81L3219.58 3076.28C3220.42 3074.31 3247.77 3115.47 3253.69 3102.22L3276.52 3050.63C3264.68 3023.84 3256.23 2975.92 3253.69 2973.1L3253.97 2972.82Z" fill="#293570"/>
<path d="M2364.23 3877.5C2317.15 3886.8 2250.9 3897.79 2295.73 3955.02C2298.27 3955.87 2294.6 3967.71 2341.4 3980.96L2432.74 4006.9C2553.97 3989.98 2366.77 3889.05 2364.23 3877.77V3877.5Z" fill="#4E5FAD"/>
<path d="M3276.81 1266.65C3220.14 1202.66 3302.74 1126.82 3185.46 1150.22L3219.58 1369.84L3060.01 1137.25L3094.12 1253.69L3025.62 1318.25C3050.99 1333.75 3078.62 1339.11 3094.12 1369.84C3139.79 1460.89 3084.82 1524.89 3208.3 1524.89C3191.95 1461.74 3345.03 1385.9 3345.03 1369.84V1343.9L3276.52 1266.37L3276.81 1266.65Z" fill="#7687A5"/>
<path d="M1908.09 2378.25H1839.59C1786.3 2378.25 1731.33 2404.19 1725.41 2404.19C1824.93 2392.35 1640.55 2526.26 1588.68 2585.18C1643.09 2699.92 1716.67 2655.94 1816.75 2662.71C1753.04 2611.96 2016.91 2552.48 2067.66 2585.18L2204.39 2507.65C2089.65 2421.1 2050.18 2425.62 1907.81 2378.54L1908.09 2378.25Z" fill="#4E7AAA"/>
<path d="M3755.79 5144.14L3436.38 5118.21V5144.14H3721.4L3664.45 5286.23L3938.2 5402.66V5299.2C3803.44 5293.84 3755.79 5344.59 3755.79 5170.08V5144.14Z" fill="#2F2D72"/>
<path d="M927.289 3955.02H858.783L676.381 4110.08C666.232 4118.53 605.055 4207.34 665.104 4187.6C722.052 4120.79 850.043 3997.31 927.289 3980.67V3954.74V3955.02Z" fill="#BABBD4"/>
<path d="M744.893 4859.69L653.551 4963.15C525.56 5108.34 501.033 5093.4 288.747 5066.62L516.82 5118.21C570.949 5130.33 488.628 5196.86 550.932 5221.67C725.44 5290.74 958.306 5119.62 813.117 4911.56L744.611 4859.97L744.893 4859.69Z" fill="#4E5FAD"/>
<path d="M83.509 4808.1C35.3008 4910.43 -77.467 5020.38 83.509 5040.68C161.883 4951.88 382.907 4978.66 391.365 4963.15L448.312 4859.69L83.509 4808.1Z" fill="#262962"/>
<path d="M3459.21 775.555C3327.83 775.555 3431.58 751.027 3322.48 672.09C3309.23 702.255 3373.22 844.341 3413.82 866.049L3254.25 814.459C3285.55 908.62 3409.31 910.03 3436.65 930.891L3505.16 982.481C3594.25 934.273 3619.34 905.236 3550.83 827.427L3528 801.489C3525.46 798.67 3490.22 775.555 3482.32 775.555H3459.49H3459.21Z" fill="#7588B1"/>
<path d="M3482.04 4756.51C3486.55 4751.43 3537.58 4773.14 3527.71 4717.6C3523.77 4692.51 3296.82 4478.54 3231.13 4549.58C3234.8 4659.25 3400.29 4693.36 3482.04 4756.51Z" fill="#737BCE"/>
<path d="M1292.38 4782.17L927.297 4963.16V5015.03L1292.38 4782.17Z" fill="#2D3070"/>
<path d="M2478.41 4808.1C2458.68 4800.77 2358.32 4778.5 2341.68 4782.17L2227.51 4808.1L2250.34 4834.04C2314.9 4817.69 2423.72 4866.74 2478.41 4808.1Z" fill="#6E8BBC"/>
<path d="M2501.25 5170.08L2227.51 5377.01C2417.52 5326.83 2408.5 5248.17 2501.25 5221.95V5170.36V5170.08Z" fill="#2A266C"/>
<path d="M3025.9 4808.1L2980.23 4730.57C2964.16 4748.9 2587.8 4716.76 2524.08 4730.57C2532.82 4735.65 2588.92 4809.79 2615.42 4859.69L2683.93 4988.81C2762.87 4899.44 2733.83 5000.65 2775.27 4988.81L2957.67 4937.22C2974.03 4932.71 3065.93 4911.28 3071.85 4911.28C2891.14 4904.8 3044.22 4888.16 3049.02 4872.38C3050.14 4868.99 3006.45 4824.73 3026.18 4807.82L3025.9 4808.1Z" fill="#3959B0"/>
<path d="M1566.12 4704.64C1555.13 4714.79 1348.2 4754.54 1292.38 4782.16L927.577 5014.75C927.577 5094.53 908.97 5131.46 996.083 5118.21C1144.09 4997.55 1594.6 5027.71 1566.41 4704.64H1566.12Z" fill="#3D3E8E"/>
<path d="M3938.2 4704.64C3858.41 4766.38 3659.94 4793.72 3595.95 4833.75C3587.21 4839.11 3615.4 4971.61 3493.33 4988.81C3378.59 5004.88 3398.04 4911.28 3367.87 4911.28H3071.29C3065.37 4911.28 2973.75 4932.43 2957.12 4937.22L2979.95 5040.68C3178.42 5091.99 3227.19 5101.29 3436.1 5118.21L3755.51 5144.14C3755.51 5131.18 3900.7 4985.43 3937.91 4989.09V4704.64H3938.2Z" fill="#241966"/>
<path d="M493.985 4291.06C367.403 4470.36 204.454 4551.83 83.5103 4808.09L448.314 4859.69C507.517 4752.28 654.679 4791.74 699.222 4756.22L927.295 4575.23C1082.07 4387.48 570.949 4410.03 493.985 4290.78V4291.06Z" fill="#4E5FAD"/>
<path d="M3208.3 4653.04L3025.9 4808.1C3006.17 4825.01 3049.58 4869.56 3048.74 4872.66C3043.94 4888.45 2890.86 4905.08 3071.57 4911.56H3368.15C3394.37 4882.81 3440.32 4803.87 3459.49 4782.45L3208.58 4653.33L3208.3 4653.04Z" fill="#506EA8"/>
<path d="M2296.01 3955.02C2221.02 3928.23 2104.02 3894.68 2067.94 3929.08C2069.06 3940.35 2110.51 3980.1 2113.61 3980.67L2341.68 4032.26V3980.67C2294.88 3967.42 2298.55 3955.58 2296.01 3954.73V3955.02Z" fill="#7A9CC5"/>
<path d="M2843.22 4342.93C2800.36 4379.58 2837.01 4458.8 2751.87 4407.49V4342.93C2668.43 4366.61 2841.81 4448.94 2615.14 4446.4C2611.76 4446.4 2590.62 4497.14 2546.64 4446.4C2551.43 4452.6 2542.97 4580.31 2592.31 4601.45H2615.14L2900.16 4446.4C2922.15 4410.59 2843.22 4423.28 2843.22 4368.87V4342.93Z" fill="#0D0E5B"/>
<path d="M2478.41 4704.63C2386.51 4652.48 2310.39 4591.86 2204.67 4653.04L2296.01 4730.57L2478.41 4704.63Z" fill="#3959B0"/>
<path d="M3322.48 4497.98C3269.76 4483.61 3228.32 4457.95 3231.14 4549.58C3296.55 4478.53 3523.77 4692.51 3527.72 4717.6C3537.59 4772.86 3486.56 4751.15 3482.05 4756.5L3459.21 4782.44C3440.04 4804.15 3394.09 4882.8 3367.87 4911.56C3398.04 4911.56 3378.59 5005.16 3493.33 4989.09C3615.4 4971.89 3587.21 4839.39 3595.95 4834.03L3550.27 4730.57C3507.14 4632.74 3413.54 4523.08 3322.2 4497.98H3322.48Z" fill="#353593"/>
<path d="M2409.91 3256.99H2364.24C2306.73 3301.53 2154.21 3334.52 2090.49 3334.52C2206.93 3440.52 2382 3389.21 2455.3 3282.92L2432.46 3256.99H2409.63H2409.91Z" fill="#B7ACC8"/>
<path d="M2341.68 3593.04C2216.79 3658.16 2431.9 3682.69 2410.19 3774.03V3799.96C2411.6 3800.53 2429.92 3821.67 2433.02 3825.9H2455.86L2501.53 3774.31C2467.7 3746.68 2481.51 3703.26 2455.86 3645.19C2446.27 3674.79 2344.5 3599.8 2341.68 3593.6V3593.04Z" fill="#46799C"/>
<path d="M2592.59 4601.17C2576.52 4601.17 2287.55 4557.76 2273.17 4549.58L2250.34 4575.52C2316.31 4634.72 2563.83 4556.63 2478.41 4704.64L2524.08 4730.57C2587.8 4716.76 2964.16 4748.9 2980.23 4730.57L3048.73 4653.04C3038.59 4635.28 2940.76 4601.45 2934.56 4601.45H2592.31L2592.59 4601.17Z" fill="#22091E"/>
<path d="M927.292 3825.89L813.115 3929.36C810.014 3938.94 856.248 3955.29 858.786 3955.29H927.292C1026.81 3955.29 1416.14 3945.43 1383.44 4110.35H1406.27L1451.94 4045.79C1458.99 4035.92 1398.38 4036.77 1406.27 4006.89L1314.93 3955.29C1215.7 3899.19 1093.62 3945.99 972.681 3851.83C960.841 3842.53 941.952 3830.12 927.01 3825.89H927.292Z" fill="#2A1D2F"/>
<path d="M2227.51 4523.64C2209.18 4538.86 2139.83 4486.14 2159 4601.16C2162.1 4601.73 2178.74 4630.77 2204.67 4652.76C2174.51 4618.93 2240.48 4586.51 2250.34 4575.23L2273.18 4549.29L2227.51 4523.36V4523.64Z" fill="#3959B0"/>
<path d="M3938.19 4497.99L3550.56 4730.57L3596.23 4834.03C3660.22 4794 3858.41 4766.38 3938.48 4704.92V4497.99H3938.19Z" fill="#3F2682"/>
<path d="M2022.27 4575.52C1984.77 4568.47 1919.93 4450.35 1817.03 4472.05L1566.12 4704.64C1603.62 4848.41 2099.8 4772.58 2022.27 4575.52Z" fill="#161770"/>
<path d="M2888.89 956.543L2774.71 982.481L2866.05 1163.47C2880.43 1053.24 3024.49 1013.21 2888.89 956.543Z" fill="#4E5FAD"/>
<path d="M2159 4394.53C2416.11 4408.63 2225.81 4324.33 2113.33 4368.59L2159 4394.53Z" fill="#7A9CC5"/>
<path d="M3436.38 4213.54C3427.92 4115.43 3195.62 4355.91 3185.47 4368.59C3171.65 4385.79 3068.47 4564.53 3151.35 4549.58C3182.65 4501.66 3416.36 4218.61 3436.38 4213.54Z" fill="#2B459F"/>
<path d="M1908.09 4342.93C1656.34 4286.55 1328.75 4381.27 1121.26 4523.92L744.895 4782.44C720.368 4799.36 650.452 4917.48 653.553 4963.43L744.895 4859.97C973.813 4600.61 1580.22 4332.22 1908.09 4394.81V4343.21V4342.93Z" fill="#C9DFF0"/>
<path d="M2980.23 5040.68C2929.21 5027.43 2818.41 5038.15 2797.83 5014.75V5208.71C2517.6 5299.2 2899.6 5071.97 2615.43 5066.62C2590.62 5094.81 2531.42 5147.25 2501.25 5170.08V5221.67L2637.98 5182.77C2477.01 5260.58 2641.37 5379.83 2706.49 5454.25L2809.11 5350.79C2826.31 5333.59 3038.03 5369.68 3071.29 5350.79L3208.02 5273.26L3253.7 5247.33C3173.63 5170.93 3005.61 5156.83 2979.95 5040.4L2980.23 5040.68Z" fill="#373C96"/>
<path d="M1908.09 1732.1C1848.32 1732.1 1829.15 1724.49 1771.36 1758.03C1829.72 1794.97 1985.62 1834.43 1908.09 1732.1Z" fill="#2C5A99"/>
<path d="M2581.04 4342.94C2613.46 4331.94 2480.39 4186.47 2455.58 4252.44L2581.04 4342.94Z" fill="#6575C0"/>
<path d="M2181.83 4265.13L2022.27 4316.72C2009.3 4320.95 2046.79 4354.21 2045.1 4355.62C1871.44 4473.46 1962.78 4354.78 1908.37 4342.66V4394.25C1908.37 4413.42 1834.51 4455.7 1817.03 4471.77C1919.93 4450.07 1984.77 4568.19 2022.27 4575.24L2159 4601.17C2139.83 4486.15 2209.18 4538.87 2227.5 4523.64C2256.82 4499.4 2322.23 4423.28 2364.23 4394.53C2358.31 4421.31 2213.97 4425.82 2159 4394.53L2113.33 4368.59C2039.46 4306.29 2174.5 4334.76 2181.83 4265.13Z" fill="#161770"/>
<path d="M3482.05 3722.43L3436.38 3748.37C3399.73 3794.88 3322.2 3920.62 3322.2 3980.95C3340.52 3987.15 3383.66 3965.45 3390.71 3955.02L3459.21 3851.55C3465.7 3841.68 3482.05 3810.96 3482.05 3799.96V3722.43Z" fill="#33408E"/>
<path d="M2387.07 4291.06C2346.47 4379.02 2221.58 4212.41 2193.11 4213.53C2174.5 4214.38 2184.09 4264.56 2181.83 4265.13C2174.5 4334.48 2039.46 4306.28 2113.33 4368.59C2225.81 4324.33 2416.11 4408.62 2159 4394.53C2213.97 4425.82 2358.31 4421.31 2364.23 4394.53L2375.51 4342.93C2377.48 4334.47 2570.88 4450.91 2455.29 4304.03C2434.15 4277.25 2403.7 4300.65 2386.79 4291.06H2387.07Z" fill="#4E5FAD"/>
<path d="M2250.34 4213.54C2124.6 4142.21 2137.29 4161.95 2022.27 4161.95L1999.43 4265.41L2022.27 4317L2181.83 4265.41C2184.09 4264.56 2174.5 4214.38 2193.11 4213.82C2221.58 4212.69 2346.47 4379.3 2387.07 4291.35L2250.34 4213.82V4213.54Z" fill="#506EA8"/>
<path d="M2752.16 4136V4342.93L2797.83 4329.96C2811.64 4326.02 2785.71 4164.48 2775 4136H2752.16Z" fill="#7A9CC5"/>
<path d="M3938.2 3515.5C3917.05 3539.47 3643.59 3600.08 3664.45 3606L3710.12 3618.97L3846.85 3644.91C3884.07 3651.95 3857.28 3696.21 3892.52 3696.5C3892.52 3645.19 3877.58 3588.52 3938.2 3567.38V3515.79V3515.5Z" fill="#2B1B34"/>
<path d="M1953.76 4161.95C1942.76 4161.95 1778.97 4119.09 1771.36 4110.36C1795.32 4349.7 1279.13 4290.5 1406.55 4110.36H1383.72C1277.72 4225.94 1159.87 4061.59 1064.3 4291.35C1051.34 4334.48 1018.63 4331.94 1018.63 4394.81V4536.9C1018.63 4580.03 931.52 4572.42 927.291 4575.8L699.218 4756.79L744.889 4782.73L1121.25 4524.21C1328.74 4381.84 1656.33 4287.12 1908.09 4343.22C1962.5 4355.34 1871.16 4473.75 2044.82 4356.19C2046.51 4355.06 2009.02 4321.51 2021.98 4317.29L1999.15 4265.69C1994.36 4254.98 1822.67 4185.35 1953.48 4162.23L1953.76 4161.95Z" fill="#0D0E5B"/>
<path d="M2136.16 3463.92C1928.39 3405 1706.24 3503.1 1497.62 3463.92L1429.11 3489.86L972.964 3851.84C1093.63 3945.71 1215.98 3899.2 1315.21 3955.3C1457.87 3799.4 1714.98 3693.68 1908.37 3645.19L2113.61 3593.6C2125.73 3590.5 2058.07 3495.49 2136.45 3464.48L2136.16 3463.92Z" fill="#5975B1"/>
<path d="M3253.97 3774.03L3151.35 4058.48C3082.28 3980.11 3399.44 3494.93 3322.48 3528.48C3253.41 3606.85 3230.57 3712.29 3185.75 3799.96L3105.96 3955.02C2973.46 3889.05 3058.88 3762.75 2957.68 3644.91V3799.96C3042.25 3812.93 2990.1 4046.07 3049.02 4136.01L3083.13 4213.53C3087.08 4163.92 3120.06 4158.56 3140.08 4136.01L3185.75 4084.42C3195.9 4072.86 3284.7 3840.84 3322.48 3799.96H3299.64C3277.65 3799.96 3274.55 3771.77 3253.97 3774.03Z" fill="#2B459F"/>
<path d="M2934.56 4394.53L2900.45 4084.42L2843.5 4368.87C2843.5 4423.28 2922.44 4410.6 2900.45 4446.4L2615.43 4601.45H2934.84C3006.45 4616.11 2943.3 4472.34 2934.84 4394.53H2934.56Z" fill="#2D3788"/>
<path d="M3185.47 4084.42L3139.8 4136.01L3025.62 4510.96C3063.4 4496.86 3182.93 4255.54 3185.19 4239.47L3208.02 4084.42H3185.19H3185.47Z" fill="#506EA8"/>
<path d="M2866.05 3903.43C2873.38 3766.41 2821.51 3846.76 2843.22 3929.36L2877.33 4058.48L2866.05 3903.43Z" fill="#211E62"/>
<path d="M3185.47 3153.81C3159.53 3212.73 3017.16 3312.53 3048.74 3179.75L3025.9 3205.68C3056.07 3406.12 3078.06 3624.05 3162.63 3800.24L3231.14 3593.32C3030.41 3858.6 3242.98 3427.55 3253.98 3308.86C3224.38 3308.86 3201.26 3440.24 3174.19 3437.98C3080.6 3355.66 3284.71 3233.03 3185.47 3153.53V3153.81Z" fill="#354B93"/>
<path d="M3390.7 5273.26H3208.3L3071.57 5350.79V5376.73L3162.91 5350.79C3238.47 5329.36 3304.15 5274.11 3390.98 5299.2V5273.26H3390.7Z" fill="#C0BFDB"/>
<path d="M1748.53 4084.41C1701.16 4081.31 1435.6 4023.52 1406.28 4006.89C1398.38 4036.49 1458.99 4035.92 1451.95 4045.79L1406.28 4110.35C1279.13 4290.49 1795.04 4349.7 1771.08 4110.35L1748.24 4084.41H1748.53Z" fill="#4E5FAD"/>
<path d="M2592.59 4006.89H2569.76C2609.23 4059.04 2646.44 4147.84 2661.1 4213.81L2695.21 4368.87C2749.62 4305.44 2627.27 4057.35 2638.27 4032.82C2630.65 4025.77 2604.72 4010.27 2592.59 4006.89Z" fill="#7A9CC5"/>
<path d="M1064.31 4291.07C1100.11 4172.38 1248.4 3912.45 927.575 3980.96C850.329 3997.31 722.338 4121.07 665.39 4187.88C605.341 4207.62 666.8 4118.81 676.667 4110.36L653.832 4084.42C627.049 4113.18 609.852 4127.27 585.325 4161.95C665.39 4318.7 877.957 4336.46 1018.64 4394.53C1018.64 4331.66 1051.34 4334.2 1064.31 4291.07Z" fill="#4E5FAD"/>
<path d="M2341.68 4032.54L2113.61 3980.95C2106.28 4130.37 1854.24 4091.18 1748.81 4084.41L1771.64 4110.35C1779.25 4119.09 1943.33 4161.94 1954.04 4161.94H2022.55C2137.57 4161.94 2124.89 4142.49 2250.62 4213.53C2408.78 4241.44 2388.76 4173.22 2501.53 4200.56C2493.64 4086.11 2440.64 4054.81 2341.96 4032.54H2341.68Z" fill="#506EA8"/>
<path d="M1383.72 4110.07C1416.42 3945.15 1027.09 3955.02 927.574 3955.02V3980.95C1248.4 3912.44 1100.11 4172.65 1064.31 4291.06C1159.88 4061.3 1277.44 4225.66 1383.72 4110.07Z" fill="#5E72B2"/>
<path d="M3322.48 4032.54C3231.7 4054.53 3323.32 3933.87 3288.36 3929.07C3276.24 3927.38 3211.96 4061.58 3208.58 4084.13L3185.74 4239.18L3208.58 4290.77C3229.72 4218.6 3322.76 4121.06 3322.76 4109.78V4032.26L3322.48 4032.54Z" fill="#2B459F"/>
<path d="M3459.21 3851.55L3390.71 3955.02C3382.81 4056.22 3452.45 3974.75 3459.21 3980.95C3446.81 3927.95 3481.2 3931.9 3482.05 3929.36L3459.21 3851.83V3851.55Z" fill="#7A9CC5"/>
<path d="M2455.58 3825.89H2432.75L2569.76 4006.89H2592.59L2455.58 3825.89Z" fill="#91ACDF"/>
<path d="M3048.73 4136.01C2989.81 4046.08 3041.97 3812.93 2957.39 3799.96C2957.39 3833.79 2996.86 4132.63 3003.06 4148.98C3038.87 4245.39 3047.61 4133.75 3048.73 4136.01Z" fill="#737BCE"/>
<path d="M2318.84 3774.03L2159.28 3799.97C2127.7 3805.04 2063.43 3884.54 2067.94 3929.08C2104.02 3894.69 2221.02 3927.96 2296.01 3955.02C2251.18 3897.51 2317.44 3886.8 2364.52 3877.5L2341.68 3774.03C2336.61 3772.06 2324.48 3773.18 2318.84 3774.03Z" fill="#2C3982"/>
<path d="M2341.68 3774.03L2364.51 3877.49C2367.05 3888.77 2553.96 3989.7 2433.02 4006.61C2646.15 4066.94 2532.82 4455.99 2661.09 4213.54C2646.72 4147.85 2609.22 4058.76 2569.75 4006.61L2433.02 3825.62C2429.92 3821.39 2411.88 3800.25 2410.19 3799.68L2341.68 3773.75V3774.03Z" fill="#2B459F"/>
<path d="M2501.25 3774.03L2455.58 3825.62L2592.31 4006.61C2604.43 4009.99 2630.37 4025.5 2637.98 4032.55L2660.82 3980.95C2670.12 3925.7 2640.8 3939.51 2615.14 3903.43L2523.8 3774.31H2500.97L2501.25 3774.03Z" fill="#263078"/>
<path d="M3527.72 3774.03L3482.05 3799.96C3482.05 3810.96 3465.7 3841.69 3459.21 3851.55L3482.05 3929.08L3527.72 3774.03Z" fill="#35417F"/>
<path d="M2273.17 3670.84L2318.85 3774.3C2324.48 3773.46 2336.61 3772.33 2341.68 3774.3L2410.19 3800.24V3774.3L2273.46 3670.84H2273.17Z" fill="#91ACDF"/>
<path d="M3436.38 3748.37C3423.12 3755.98 3328.4 3799.96 3322.2 3799.96C3284.42 3840.56 3195.33 4072.86 3185.47 4084.42H3208.3C3211.69 4061.86 3276.24 3927.67 3288.09 3929.36C3323.04 3934.16 3231.7 4054.81 3322.2 4032.82V3981.24C3322.2 3920.62 3399.73 3795.17 3436.38 3748.65V3748.37Z" fill="#6E8BBC"/>
<path d="M3459.21 3980.95L3516.16 4032.54C3595.1 4104.15 3826.83 3604.31 3527.44 3774.03L3481.76 3929.08C3480.92 3931.9 3446.52 3927.67 3458.93 3980.67L3459.21 3980.95Z" fill="#6575C0"/>
<path d="M2524.09 3567.39L2318.85 3541.45L2341.68 3593.04C2344.5 3599.24 2446.28 3674.23 2455.86 3644.63L2421.75 3567.1C2455.58 3548.22 2483.49 3593.04 2501.53 3593.04H2547.2C2544.95 3590.5 2554.25 3571.05 2524.37 3567.1L2524.09 3567.39Z" fill="#9A9BBF"/>
<path d="M3892.53 3748.37C3892.53 3774.03 3593.69 4099.64 3573.11 4110.35L3641.62 4161.95C3646.69 4160.54 3659.66 4160.25 3664.45 4161.95L3801.18 4213.53C3830.22 4224.53 3865.74 4166.17 3937.91 4239.47V3774.31L3892.24 3748.37H3892.53Z" fill="#6E8BBC"/>
<path d="M3938.2 3024.41C3755.79 3017.08 3530.54 3249.1 3390.71 3386.39C3379.99 3396.82 3377.18 3399.92 3367.87 3412.33L3231.14 3593.32L3162.64 3800.24H3185.47C3230.58 3712.85 3253.13 3607.13 3322.2 3528.76C3399.17 3494.93 3082.01 3980.39 3151.08 4058.76L3253.7 3774.31C3328.69 3566.25 3465.7 3511 3595.95 3399.36V3489.85L3755.51 3476.88L3618.78 3593.32C3614.55 3596.98 3548.86 3678.17 3550.27 3683.81L3687.01 3722.71C3645 3666.33 3715.48 3620.94 3709.84 3619.25L3664.17 3606.29C3643.31 3600.37 3916.77 3539.75 3937.91 3515.79V3024.69L3938.2 3024.41Z" fill="#6575C0"/>
<path d="M1862.7 5144.14C1823.52 5199.68 1804.63 5314.42 1748.53 5325.14V5351.07H1771.36C1797.58 5344.02 1857.63 5265.09 1862.7 5247.61L1885.54 5170.08L1862.7 5144.14Z" fill="#9A9BBF"/>
<path d="M2113.61 3593.04L1908.37 3644.63C1930.93 3783.33 2034.39 3783.9 2136.45 3773.75L1954.04 3683.25L2113.61 3592.75V3593.04Z" fill="#2E417E"/>
<path d="M1908.09 3644.91C1714.69 3693.68 1457.87 3799.12 1314.93 3955.02L1406.27 4006.61C1435.59 4023.24 1700.88 4081.03 1748.52 4084.14C1854.24 4090.9 2106.28 4130.09 2113.33 3980.67C2110.23 3979.83 2068.78 3940.36 2067.66 3929.08C2063.15 3884.54 2127.14 3805.04 2159 3799.96C2162.38 3771.77 2145.75 3778.82 2136.16 3774.03C2034.11 3784.18 1930.64 3783.61 1908.09 3644.91Z" fill="#6077B7"/>
<path d="M2546.92 3593.04H2501.25C2504.35 3652.8 2487.15 3721.59 2524.08 3774.03L2615.42 3903.14C2608.94 3836.33 2676.04 3821.39 2706.77 3851.55V3799.96C2657.43 3778.82 2648.97 3708.62 2615.42 3670.84L2546.92 3593.32V3593.04Z" fill="#506EA8"/>
<path d="M2501.25 3593.03C2483.21 3593.03 2455.3 3548.21 2421.47 3567.09L2455.58 3644.62C2481.23 3702.7 2467.14 3746.39 2501.25 3773.74H2524.09C2487.15 3721.3 2504.63 3652.51 2501.25 3592.75V3593.03Z" fill="#385096"/>
<path d="M2706.49 3567.39V3851.84C2706.49 3855.79 2725.09 3917.81 2729.32 3929.37C2799.52 3849.87 2742.01 3896.95 2797.83 3929.37L2729.32 3567.39H2706.49Z" fill="#34438D"/>
<path d="M3618.78 3593.04C3553.09 3513.54 3482.05 3675.08 3482.05 3722.16V3799.69L3527.72 3773.75C3827.12 3604.03 3595.1 4103.87 3516.44 4032.27L3459.49 3980.67C3452.73 3974.47 3383.09 4055.95 3390.99 3954.74C3383.94 3965.17 3340.81 3986.88 3322.48 3980.67V4109.79C3397.19 4152.08 3498.4 4148.98 3573.39 4109.79C3593.97 4099.08 3892.8 3773.46 3892.8 3747.81V3696.22C3857.56 3696.22 3884.35 3651.4 3847.13 3644.63C3804.28 3860.02 3759.74 3742.74 3687.57 3722.16L3550.84 3683.25C3549.43 3677.62 3615.11 3596.42 3619.34 3592.76L3618.78 3593.04Z" fill="#384490"/>
<path d="M859.07 3955.02C856.533 3955.02 810.298 3938.67 813.4 3929.08C758.143 3979.26 705.142 4028.6 653.833 4084.14L676.668 4110.07L859.07 3955.02Z" fill="#593B38"/>
<path d="M2729.32 3541.45C2728.19 3547.93 2728.19 3560.62 2729.32 3567.39L2797.83 3929.37C2797.83 3929.37 2809.67 3984.06 2820.66 3929.37C2816.72 3794.89 2811.92 3643.79 2729.32 3541.73V3541.45Z" fill="#506EA8"/>
<path d="M2273.17 3670.85C2217.35 3628.56 2185.5 3576.69 2147.72 3515.79C2164.35 3683.25 2135.6 3580.92 2113.61 3593.32L1954.04 3683.82L2136.44 3774.31C2145.75 3779.1 2162.66 3771.77 2159.28 3800.25L2318.84 3774.31L2273.17 3670.85Z" fill="#4E5FAD"/>
<path d="M2398.63 5015.03C2346.76 5020.95 2285.86 5112.01 2307.29 5170.08C2315.47 5171.49 2410.75 5018.97 2398.63 5015.03Z" fill="#384291"/>
<path d="M1429.11 3489.86C1250.94 3557.23 1060.64 3638.71 972.964 3851.84L1429.11 3489.86Z" fill="#B0C8E5"/>
<path d="M2227.51 3489.86L2136.16 3463.92C2057.79 3494.93 2125.73 3590.22 2113.33 3593.03C2135.32 3580.63 2164.07 3682.97 2147.44 3515.51C2185.22 3576.4 2217.08 3628.27 2272.9 3670.56L2409.63 3774.03C2431.33 3682.69 2216.23 3658.16 2341.12 3593.03L2318.28 3541.45C2216.23 3528.48 2255.7 3503.67 2226.94 3489.86H2227.51Z" fill="#3F5E9F"/>
<path d="M2934.56 3463.92C2895.93 3476.61 2911.72 3556.1 2911.72 3593.04V4019.58C2911.72 4084.42 3078.9 4273.87 2934.56 4394.53C2943.01 4472.34 3006.16 4616.11 2934.56 4601.45C2940.76 4601.45 3038.58 4635.57 3048.73 4653.04C3101.45 4593.28 3165.17 4630.77 3208.3 4653.04L3459.21 4782.16L3482.04 4756.23C3400.29 4693.08 3234.8 4659.25 3231.13 4549.3C3228.03 4457.68 3269.76 4483.05 3322.48 4497.71C3376.89 4322.36 3498.96 4176.32 3664.73 4161.66C3659.93 4159.97 3646.97 4160.25 3641.89 4161.66L3436.65 4213.25C3416.64 4218.33 3182.93 4501.37 3151.63 4549.3C3068.75 4564.24 3172.21 4385.51 3185.75 4368.31L3208.58 4290.78L3185.75 4239.19C3183.49 4255.26 3063.96 4496.58 3026.18 4510.68L3140.36 4135.73C3120.34 4158.28 3087.36 4163.64 3083.41 4213.25L3049.3 4135.73C3048.17 4133.47 3039.43 4245.11 3003.63 4148.7C2997.71 4132.35 2957.95 3833.51 2957.95 3799.68V3618.69C2946.96 3561.18 2930.89 3528.2 2935.12 3463.64L2934.56 3463.92Z" fill="#1A1F81"/>
<path d="M2797.83 3412.33C2783.45 3410.36 2755.26 3415.71 2752.16 3412.33L2729.32 3541.45C2811.92 3643.5 2816.43 3794.89 2820.66 3929.08H2843.5C2821.51 3846.48 2873.66 3766.13 2866.33 3903.14C2857.03 3777.13 2829.4 3575.84 2843.5 3463.64C2833.07 3459.97 2797.55 3415.71 2797.83 3412.05V3412.33Z" fill="#354293"/>
<path d="M3595.95 3489.85V3399.36C3465.7 3510.71 3328.97 3565.97 3253.7 3774.31C3274.28 3772.05 3277.38 3800.24 3299.37 3800.24C3358.85 3698.19 3487.41 3498.87 3595.95 3490.13V3489.85Z" fill="#414791"/>
<path d="M1611.8 3360.45C1251.79 3425.85 1174.26 3602.05 927.579 3825.61C942.521 3829.84 961.409 3842.25 973.25 3851.55C1060.93 3638.42 1251.22 3556.95 1429.4 3489.57L1497.9 3463.63C1523.27 3454.05 1605.03 3386.11 1634.63 3386.11L1611.8 3360.17V3360.45Z" fill="#5F749D"/>
<path d="M1885.26 3386.39L1702.86 3360.45C1678.33 3357.07 1635.2 3356.22 1611.51 3360.45L1634.35 3386.39H1885.26Z" fill="#364374"/>
<path d="M3139.8 1912.81C3074.39 1784.53 2999.68 2014.86 2911.72 1938.74L2934.56 1990.33L3048.74 2016.27L3060.01 1912.81C3060.86 1903.79 3039.15 2026.98 3139.8 1912.81Z" fill="#414D75"/>
<path d="M2524.08 3308.86C2683.08 3587.12 2442.32 3333.11 2524.08 3567.38C2553.96 3571.05 2544.66 3590.78 2546.92 3593.32L2615.42 3670.84V3541.73C2615.42 3494.37 2614.01 3483.37 2661.09 3490.13L2524.36 3309.15L2524.08 3308.86Z" fill="#3C3D7B"/>
<path d="M2524.08 3308.86C2489.69 3263.47 2460.93 3289.13 2455.58 3282.93C2381.99 3389.49 2207.2 3440.52 2090.77 3334.52H1771.36C1745.14 3334.52 1704.54 3320.98 1702.85 3360.45L1885.25 3386.39C2130.8 3386.39 2056.66 3407.25 2227.5 3489.86C2256.26 3503.67 2216.79 3528.76 2318.84 3541.44L2524.08 3567.38C2442.32 3333.11 2683.08 3587.12 2524.08 3308.86Z" fill="#535993"/>
<path d="M2866.05 3282.93L2843.22 3463.92C2829.12 3576.12 2856.75 3777.41 2866.05 3903.43L2877.33 4058.48L2843.22 3929.36H2820.38C2809.39 3984.06 2798.67 3929.93 2797.55 3929.36C2742.01 3896.94 2799.24 3849.86 2729.04 3929.36L2797.55 4123.32C2810.8 4160.82 2843.22 4018.17 2843.22 4071.73V4368.87L2900.16 4084.42L2934.28 4394.53C3078.9 4274.15 2911.44 4084.42 2911.44 4019.58V3593.03H2888.61L2865.77 3282.93H2866.05Z" fill="#3959B0"/>
<path d="M3025.9 3205.39C2935.41 3307.73 2957.4 3471.53 2957.4 3618.97V3644.91C3058.32 3762.75 2973.18 3889.33 3105.69 3955.02L3185.47 3799.96H3162.63C3078.06 3623.76 3056.07 3405.84 3025.9 3205.39Z" fill="#3959B0"/>
<path d="M3322.48 3153.81C3311.77 3222.88 3358.28 3308.86 3276.81 3308.86H3253.97C3242.98 3427.55 3030.69 3858.32 3231.14 3593.32L3367.87 3412.33V3283.21C3367.87 3276.16 3332.35 3176.93 3322.2 3154.09L3322.48 3153.81Z" fill="#4E5FAD"/>
<path d="M2957.4 3127.87C2880.43 3302.66 2877.05 3390.62 2888.89 3593.03H2911.73C2911.73 3555.82 2895.94 3476.6 2934.56 3463.92L2957.4 3127.87Z" fill="#324590"/>
<path d="M3253.97 3101.94C3248.05 3115.47 3220.71 3074.03 3219.86 3076L3185.75 3153.53C3284.7 3233.03 3080.88 3355.66 3174.47 3437.98C3201.54 3440.24 3224.94 3308.87 3254.26 3308.87H3277.09C3257.64 3229.08 3325.3 3122.8 3254.26 3101.94H3253.97Z" fill="#2B459F"/>
<path d="M3276.81 3050.34L3253.98 3101.93C3325.02 3122.51 3257.36 3229.08 3276.81 3308.86C3358.29 3308.86 3311.49 3222.87 3322.48 3153.8L3276.81 3050.34Z" fill="#6C94BF"/>
<path d="M2660.81 2972.81C2642.21 2863.99 2527.18 2921.22 2501.25 2921.22L2660.81 2972.81Z" fill="#9E5E5F"/>
<path d="M3162.63 2869.36L3003.07 3024.41L2957.4 3127.87L2934.56 3463.92C2930.05 3528.48 2946.4 3561.46 2957.4 3618.97C2957.4 3471.53 2935.41 3307.74 3025.9 3205.4L3048.74 3179.47C3116.4 3102.78 3164.61 3027.23 3253.98 2972.54L3162.63 2869.07V2869.36Z" fill="#5B7EBB"/>
<path d="M3139.8 2843.42C3104.28 2903.75 3053.81 2908.82 3003.07 3024.41L3162.63 2869.36L3139.8 2843.42Z" fill="#4E5FAD"/>
<path d="M2957.39 465.443C2948.37 501.529 2934.56 489.404 2934.56 491.377V594.842C2934.56 694.359 2907.77 730.164 2911.72 736.93L2957.39 814.457C2964.72 827.143 2661.38 927.787 2820.66 788.519C2656.86 743.977 2720.86 862.946 2683.93 904.951C2727.34 896.212 2759.2 950.622 2775.27 982.479L2889.45 956.541C2966.13 939.062 3103.43 988.398 3163.19 917.636C3169.11 910.588 3094.4 753.281 3242.98 853.08C3329.52 911.155 3208.02 903.54 3208.86 917.636C3209.71 931.732 3361.38 1020.26 3323.04 1137.25C3327.27 1124.85 3458.93 1021.67 3437.22 930.325C3409.59 909.463 3286.11 908.053 3254.82 813.893L3414.38 865.482C3373.79 843.775 3309.79 701.688 3323.04 671.523L3368.71 568.062L3323.04 516.469L3208.86 542.406C3182.36 548.326 3121.75 795.851 3060.57 800.926C2957.67 794.442 2999.96 531.693 2957.95 464.879L2957.39 465.443Z" fill="#314C8B"/>
<path d="M3493.32 1551.11C3454.7 1558.72 3544.63 1743.1 3607.5 1706.16L3493.32 1551.11Z" fill="#56393D"/>
<path d="M2022.27 1706.16C1994.64 1704.75 1992.95 1738.02 1999.43 1757.75L2045.1 1899.84C1979.13 1956.22 1940.23 1865.45 1908.37 1860.93L1885.54 1912.52L1862.7 1964.12L1908.37 2015.71C1932.33 2042.77 2051.02 2106.77 2090.77 2119.17L2364.52 2054.61C2377.48 2051.51 2460.09 1814.7 2296.01 1860.65C2400.88 1945.51 2257.39 2067.86 2216.23 2041.64C2195.08 2028.39 2221.02 1881.8 2296.01 1860.65L2136.44 1731.54C2076.39 1799.48 2076.39 1803.99 2022.27 1705.6V1706.16Z" fill="#3A5B96"/>
<path d="M3231.14 2688.36L3139.8 2843.42L3162.63 2869.36L3253.98 2972.82C3256.51 2975.64 3264.97 3023.56 3276.81 3050.34L3322.48 3153.81C3332.63 3176.64 3368.15 3276.16 3368.15 3282.93C3436.66 3057.11 3391.83 3295.61 3390.99 3386.39C3530.82 3249.1 3756.07 3017.08 3938.48 3024.41V2714.3C3741.98 3097.14 3572.55 2893.03 3322.76 2740.24C3316.56 2736.57 3277.38 2828.48 3231.42 2688.65L3231.14 2688.36Z" fill="#331D30"/>
<path d="M2683.65 1783.69C2640.52 1849.1 2533.95 1808.78 2546.92 1796.66L2683.65 1667.54C2712.97 1639.91 2685.63 1336.01 2501.25 1758.04C2487.16 1790.74 2486.59 1864.04 2478.42 1887.15C2621.91 1986.67 2812.49 1860.94 2797.83 2068.15L2889.17 1990.62C2891.43 1988.93 2923.85 1988.08 2934.84 1990.62L2912.01 1939.03C2900.45 1913.09 2710.15 1828.52 2683.94 1783.97L2683.65 1783.69Z" fill="#3E7C90"/>
<path d="M3550.55 1964.68L3459.21 1913.09C3459.21 2021.91 3477.26 2030.93 3367.87 2094.08V2120.02C3367.87 2153.28 3390.14 2143.98 3390.71 2145.95L3550.27 1964.96L3550.55 1964.68Z" fill="#7574A0"/>
<path d="M3938.2 1680.23L3732.96 1887.15C3613.71 2007.25 3493.04 2060.82 3390.71 2223.2C3330.38 2319.05 3295.42 2538.1 3208.31 2636.77L3162.64 2688.36C3041.69 2825.38 2890.58 3089.53 2866.06 3282.93L2888.89 3593.03C2877.05 3390.34 2880.15 3302.38 2957.4 3127.87L3003.07 3024.41C3054.1 2908.82 3104.56 2903.75 3139.8 2843.42L3231.14 2688.36C3313.46 2548.53 3356.31 2353.73 3436.38 2235.88C3543.79 2078.29 3819.51 1908.86 3938.2 1731.82V1680.23Z" fill="#CACDD8"/>
<path d="M2067.94 2584.89C2017.19 2552.19 1753.32 2611.68 1817.03 2662.42C2067.94 2679.05 1940.79 2656.78 2067.94 2584.89Z" fill="#44689D"/>
<path d="M3938.2 2559.25C3799.77 2797.47 3538.15 2623.8 3322.48 2740.23C3572.55 2893.03 3741.7 3097.14 3938.2 2714.3V2559.25Z" fill="#254687"/>
<path d="M3824.02 1499.23C3778.63 1650.9 3761.71 1487.39 3664.45 1499.23L3687.29 1550.83C3695.18 1568.87 3827.4 1601.57 3801.46 1692.91C3791.88 1752.39 3665.02 1860.37 3607.5 1783.41L3596.23 1912.53C3601.02 1906.89 3721.12 1857.84 3732.96 1886.59L3938.2 1680.23V1628.64C3799.49 1756.34 3877.3 1599.6 3824.02 1499.52V1499.23Z" fill="#454070"/>
<path d="M2273.17 2559.25L2204.67 2507.65L2067.94 2585.18C1940.79 2657.07 2067.94 2679.34 1817.03 2662.71C1716.95 2655.94 1643.37 2699.92 1588.96 2585.18L1566.12 2611.12C1518.76 2664.68 1529.47 2759.41 1611.79 2766.17C1739.5 2774.91 1872.29 2754.05 1999.43 2766.17L2387.07 2688.64C2291.78 2706.69 2304.75 2632.26 2272.89 2559.53L2273.17 2559.25Z" fill="#284274"/>
<path d="M3037.17 2507.37C3005.88 2528.8 3029.28 2679.34 3060.01 2714.3C3129.36 2654.25 3084.25 2559.81 3037.17 2507.37Z" fill="#985856"/>
<path d="M2364.24 2429.84L2318.85 2442.81L2478.41 2636.77H2501.25V2610.83L2364.24 2429.84Z" fill="#855742"/>
<path d="M2409.91 2404.19C2411.88 2414.9 2367.62 2429 2364.24 2430.13L2500.97 2611.12C2500.97 2606.33 2552 2549.38 2523.8 2520.62L2409.63 2404.19H2409.91Z" fill="#BA9173"/>
<path d="M3413.54 439.506C3413.54 147.158 3364.49 474.183 3276.81 387.916C3276.81 452.475 3376.89 441.761 3413.54 439.506Z" fill="#9A9BBF"/>
<path d="M1429.11 2352.31L1383.44 2326.38L1337.77 2429.84L1314.93 2481.43C1476.19 2578.13 1588.39 2551.35 1702.57 2403.91C1649.29 2403.91 1474.78 2378.25 1428.83 2352.31H1429.11Z" fill="#597FAC"/>
<path d="M2409.91 2378.26C2265.56 2258.16 2067.94 2378.26 1908.09 2378.26C2050.46 2425.34 2089.93 2420.82 2204.67 2507.37L2273.18 2558.97C2289.81 2571.37 2437.82 2556.71 2432.74 2688.08L2478.41 2636.49L2318.85 2442.53L2364.52 2429.56C2367.62 2428.72 2412.16 2414.34 2410.19 2403.63C2409.06 2402.5 2409.63 2385.58 2410.19 2377.69L2409.91 2378.26Z" fill="#9A9BBF"/>
<path d="M1737.25 672.09C1656.06 711.84 1739.22 907.49 1782.92 879.016L1737.25 672.09Z" fill="#6396C3"/>
<path d="M3390.7 2197.26C3336.86 2244.91 3323.04 2311.44 3299.36 2378.25L3208.02 2636.77C3295.13 2538.1 3330.09 2319.05 3390.42 2223.2V2197.26H3390.7Z" fill="#4B292F"/>
<path d="M2341.69 1576.76C2374.39 1502.61 2503.79 1441.72 2318.85 1369.83C2314.34 1387.31 2299.4 1469.35 2296.01 1473.3L2341.69 1576.76Z" fill="#3F75A8"/>
<path d="M1976.6 904.668C1978.29 1017.72 1861.58 911.153 1794.2 930.606C1797.58 1076.36 2010.15 983.324 2033.83 1008.13C2047.92 1023.07 1973.22 1081.43 2067.94 1137.25H2159.28L2227.79 982.195L2216.51 930.606C2214.26 921.02 2187.76 976.558 2068.22 930.606C2063.71 928.914 2023.12 925.248 1976.88 904.668H1976.6Z" fill="#4579AB"/>
<path d="M1908.09 2068.15C1761.21 2311.16 1686.5 2332.86 1429.11 2352.6C1475.06 2378.54 1649.57 2404.19 1702.85 2404.19H1725.69C1731.61 2404.19 1786.58 2378.25 1839.87 2378.25L2113.61 2261.82C2065.97 2193.6 1908.37 2182.32 1908.37 2067.86L1908.09 2068.15Z" fill="#3F508C"/>
<path d="M3003.07 2093.8L2946.12 2042.21L2889.17 2119.73C2913.14 2175.27 2996.3 2147.08 3003.35 2093.8H3003.07Z" fill="#BB8A7F"/>
<path d="M2067.94 1137.54C2021.14 1137.54 2014.09 1177.28 1942.49 1111.6C1881.87 1124 1868.62 1313.45 1953.76 1266.65C1953.76 1221.83 2146.31 1166.01 2159 1137.54H2067.66H2067.94Z" fill="#295592"/>
<path d="M2090.78 2119.73C2050.74 2107.33 1932.06 2043.33 1908.38 2016.27V2067.86C1908.38 2182.32 2065.97 2193.59 2113.61 2261.82L1839.87 2378.25H1908.38C2068.22 2378.25 2265.85 2258.15 2410.19 2378.25C2515.35 2346.39 2433.87 2294.52 2467.14 2274.79L2524.09 2300.72C2486.59 2103.1 2518.73 2205.72 2569.76 2197.26L2433.03 2016.27C2393.84 2127.06 2193.4 2151.59 2090.78 2119.73Z" fill="#333E74"/>
<path d="M2888.89 1990.33L2797.55 2067.86C2713.53 2139.18 2706.77 2073.78 2706.2 2080.83L2694.93 2222.91C2694.36 2231.37 2682.81 2178.37 2569.47 2196.98C2518.45 2205.43 2486.31 2102.82 2523.8 2300.44C2866.9 2456.06 2458.4 2386.43 2683.37 2442.53C2686.75 2448.45 2683.37 2602.09 2660.53 2584.61C2773.87 2669.47 2741.16 2622.95 2763.15 2507.09C2895.09 2740.51 2762.87 2447.88 2774.43 2442.53L2911.16 2377.97C2932.3 2367.82 2932.87 2402.5 2934 2403.91L2990.94 2481.43C3014.91 2320.74 3050.99 2482.28 3059.45 2481.43C3114.42 2476.08 3091.31 2427.87 3093.56 2429.84C2908.9 2275.91 3147.97 2226.02 3002.22 2093.8C2995.45 2147.08 2912.01 2175.27 2888.04 2119.73V1990.61L2888.89 1990.33Z" fill="#AA805F"/>
<path d="M3231.14 1990.33C3230.3 1992.87 3181.24 1983.85 3185.47 2003.3L3208.31 2106.76C3211.41 2120.86 3029 2193.6 3048.74 2016.27L2934.56 1990.33C2923.57 1987.79 2891.15 1988.64 2888.89 1990.33V2119.45L2945.84 2041.92L3002.79 2093.51C3148.54 2225.73 2909.47 2275.63 3094.13 2429.56L3139.8 2468.46C3116.96 2438.3 3155.02 2220.38 3173.91 2222.91L3299.37 2377.97C3323.05 2311.15 3336.86 2244.62 3390.71 2196.98C3389.02 2180.34 3394.09 2158.64 3390.71 2145.39C3390.14 2143.69 3367.87 2153 3367.87 2119.45C3277.66 2081.11 3216.2 2165.68 3231.14 1990.33Z" fill="#976149"/>
<path d="M2090.78 1564.08C2090.78 1568.59 2119.81 1633.15 2147.72 1628.64C2243.58 1613.13 2096.41 1455.54 2090.78 1564.08Z" fill="#5B8ABA"/>
<path d="M3938.2 1732.1C3819.51 1909.14 3543.79 2078.57 3436.38 2236.17C3356.03 2353.73 3313.46 2548.53 3231.14 2688.64C3276.81 2828.48 3316.28 2736.57 3322.48 2740.23C3538.15 2623.8 3799.77 2797.75 3938.2 2559.25V1732.1Z" fill="#4E5FAD"/>
<path d="M1862.7 1964.68C1832.26 2033.75 1668.18 1964.68 1634.63 1964.68H1611.8C1563.59 2051.79 1541.03 2096.62 1475.06 2171.61L1360.89 2300.72C1357.22 2329.76 1375.83 2322.15 1383.72 2326.66L1429.39 2352.59C1686.79 2333.14 1761.49 2311.15 1908.38 2068.14V2016.55L1862.7 1964.96V1964.68Z" fill="#4E5FAD"/>
<path d="M2797.83 2068.14C2812.49 1860.94 2622.19 1986.67 2478.41 1887.15L2432.74 2016.27L2569.47 2197.26C2682.8 2178.37 2694.36 2231.37 2694.93 2223.2L2706.2 2081.11C2706.77 2074.06 2713.53 2139.47 2797.54 2068.14H2797.83Z" fill="#3869A6"/>
<path d="M3459.21 1887.15C3425.94 1873.34 3397.75 1930 3367.87 1913.09V2094.08C3477.25 2030.93 3459.21 2022.19 3459.21 1913.09V1887.15Z" fill="#976149"/>
<path d="M1885.26 1912.8C1782.92 1845.43 1691.02 1832.74 1634.35 1964.39C1667.9 1964.39 1831.98 2033.46 1862.42 1964.39L1885.26 1912.8Z" fill="#4873A8"/>
<path d="M2296.01 1861.21C2221.02 1882.36 2195.08 2028.67 2216.23 2042.2C2257.67 2068.42 2400.88 1946.07 2296.01 1861.21Z" fill="#427BAC"/>
<path d="M3367.87 1912.8L3276.53 1861.21L3230.85 1990.33C3216.19 2165.97 3277.65 2081.11 3367.59 2119.45V1912.52L3367.87 1912.8Z" fill="#B58B65"/>
<path d="M3732.95 1887.15C3720.83 1858.11 3601.01 1907.45 3596.22 1913.09L3550.55 1964.68L3390.98 2145.67C3394.37 2159.2 3389.29 2180.63 3390.98 2197.26V2223.2C3493.04 2060.81 3613.7 2007.25 3733.23 1887.15H3732.95Z" fill="#442630"/>
<path d="M3459.21 1887.15C3459.21 1810.75 3493.6 1846.56 3425.1 1758.04C3418.05 1760.57 3368.15 1898.15 3368.15 1913.09C3398.03 1930 3426.23 1873.62 3459.49 1887.15H3459.21Z" fill="#B09483"/>
<path d="M1930.92 1732.1H1908.09C1985.33 1834.43 1829.72 1794.68 1771.36 1758.04C1755.29 1767.34 1687.35 1816.67 1714.41 1835.56L1908.37 1861.5C1940.23 1865.73 1979.41 1956.79 2045.1 1900.4L1999.43 1758.32C1952.35 1772.7 1956.3 1732.38 1953.76 1732.38H1930.92V1732.1Z" fill="#4873A8"/>
<path d="M2022.26 1706.16L1965.32 1602.7L1954.04 1731.82C1956.58 1731.82 1952.63 1772.13 1999.71 1757.75C1993.23 1737.74 1994.92 1704.47 2022.55 1706.16H2022.26Z" fill="#638DB8"/>
<path d="M2501.25 1757.75C2334.35 1432.98 2510.55 1773.82 2204.67 1654.29L2136.16 1731.81L2295.73 1860.94C2459.81 1814.7 2376.92 2051.79 2364.24 2054.89L2090.49 2119.45C2193.11 2151.31 2393.56 2127.07 2432.74 2015.99L2478.41 1886.87C2486.59 1863.47 2486.87 1790.17 2501.25 1757.75Z" fill="#324780"/>
<path d="M2752.16 1680.23C2765.41 1660.21 2970.92 1585.78 2706.48 1576.76C2695.49 1619.9 2698.03 1698.55 2752.16 1680.23Z" fill="#294585"/>
<path d="M3025.9 1551.11C3022.8 1547.44 2938.51 1548.57 2934.56 1551.11C2654.05 1736.33 3119.22 1918.16 3071.29 1770.72C3063.68 1747.6 3007.86 1811.03 3002.79 1770.72C2982.21 1602.69 3194.21 1826.26 3208.02 1835.28C3214.51 1839.51 3239.32 1833.02 3253.7 1835.28C3252.29 1833.87 3252.85 1812.72 3253.7 1809.34L3025.62 1550.82L3025.9 1551.11Z" fill="#6E74A0"/>
<path d="M3322.48 1576.76C3355.46 1584.09 3443.71 1566.33 3459.21 1537.86C3459.21 1482.04 3359.98 1524.89 3345.03 1524.89C3343.62 1546.03 3328.96 1553.65 3322.2 1576.48L3322.48 1576.76Z" fill="#7986A5"/>
<path d="M2010.71 1447.64C2002.53 1449.62 1955.45 1588.32 2010.71 1602.7C2095.85 1624.97 2021.7 1445.11 2010.71 1447.64Z" fill="#5287B5"/>
<path d="M3094.12 1370.11L3025.62 1551.11L3253.69 1809.62L3322.2 1577.04C3328.96 1553.92 3343.62 1546.59 3345.03 1525.45H3208.3C3084.82 1525.45 3140.08 1461.45 3094.12 1370.4V1370.11Z" fill="#3D5F9A"/>
<path d="M2637.98 1318.25C2465.72 1483.45 2579.34 1623.28 2683.65 1344.18L2637.98 1318.25Z" fill="#4375AA"/>
<path d="M3025.9 1318.25C2993.48 1348.98 2956.55 1402.54 2911.72 1421.71L2934.56 1550.83C2938.5 1548.29 3022.52 1547.16 3025.9 1550.83L3094.41 1369.84C3078.9 1338.82 3051.27 1333.47 3025.9 1318.25Z" fill="#4573A6"/>
<path d="M2888.89 1292.59C2877.05 1295.97 2837.3 1245.51 2809.11 1266.65L2706.49 1344.18C2808.26 1570.84 2731.86 1478.65 2706.49 1576.76C2970.93 1585.78 2765.41 1660.21 2752.16 1680.22L2683.65 1783.69C2710.15 1828.23 2900.17 1912.81 2911.73 1938.74C2999.68 2015.14 3074.39 1784.53 3139.8 1912.81L3208.3 1835.28C3194.49 1826.26 2982.21 1602.7 3003.07 1770.72C3008.14 1811.03 3063.96 1747.6 3071.57 1770.72C3119.22 1918.16 2654.05 1736.05 2934.84 1551.11L2912.01 1421.99C2908.91 1404.51 2797.83 1385.62 2889.17 1292.87L2888.89 1292.59Z" fill="#3D5F9A"/>
<path d="M3459.21 1266.65C3433.27 1262.42 3439.76 1285.82 3436.37 1292.59C3418.61 1326.42 3406.49 1354.05 3413.54 1396.05C3467.1 1384.78 3506.57 1264.68 3504.88 1486.55C3601.01 1356.87 3494.45 1757.19 3687.28 1551.11L3664.45 1499.52C3645.56 1456.38 3489.37 1348.97 3459.21 1266.93V1266.65Z" fill="#7578A0"/>
<path d="M3482.05 465.445H3413.54V491.38C3413.54 523.518 3499.81 707.331 3482.05 775.837C3489.94 775.837 3525.18 798.952 3527.72 801.771C3542.94 734.674 3560.14 744.542 3596.23 724.243C3575.65 619.652 3544.92 553.968 3482.05 465.728V465.445Z" fill="#3D5290"/>
<path d="M3436.38 1292.59C3414.95 1193.92 3345.03 1318.8 3345.03 1344.18V1370.11C3443.99 1496.98 3403.67 1398.02 3413.54 1396.05C3406.49 1354.05 3418.61 1326.42 3436.38 1292.59Z" fill="#3D4786"/>
<path d="M3938.19 1421.7C3838.96 1411.55 3823.74 1242.69 3812.74 1240.71L3664.45 1214.78C3747.34 1272.85 3750.72 1360.53 3755.79 1369.83L3824.3 1498.95C3877.3 1599.31 3799.77 1756.06 3938.48 1628.07V1421.14L3938.19 1421.7Z" fill="#504D80"/>
<path d="M3482.05 1137.54C3479.51 1145.71 3399.45 1103.99 3459.21 1266.65C3489.38 1348.69 3645.56 1456.38 3664.45 1499.23C3761.99 1487.39 3778.63 1650.91 3824.02 1499.23L3755.51 1370.12L3481.77 1137.54H3482.05Z" fill="#3D4786"/>
<path d="M2478.41 1266.65C2478.41 1213.09 2492.79 1122.87 2432.74 1098.63C2439.79 1164.6 2405.12 1336 2478.41 1344.18V1266.65Z" fill="#4677AD"/>
<path d="M3322.48 1137.53C3361.1 1020.54 3209.15 931.452 3208.3 917.92C3207.46 904.388 3328.96 911.438 3242.41 853.363C3093.84 753.565 3168.55 910.872 3162.63 917.92C3102.86 988.399 2965.57 939.346 2888.89 956.825C3024.49 1013.21 2880.43 1053.52 2866.05 1163.75C2946.68 1323.88 3017.16 1170.8 3025.62 1202.66C3016.03 1310.92 2952.6 1274.55 2888.89 1293.15C2797.55 1385.9 2908.62 1405.07 2911.72 1422.27C2956.55 1403.1 2993.48 1349.54 3025.9 1318.81L3094.41 1254.25L3060.29 1137.82L3219.86 1370.4L3185.75 1150.78C3302.75 1127.1 3220.43 1202.94 3277.09 1267.22L3322.76 1138.1L3322.48 1137.53Z" fill="#3E5B9A"/>
<path d="M2478.41 1266.65C2608.94 1193.64 2543.81 1003.06 2421.46 982.199L2318.84 1369.84C2503.5 1441.72 2374.38 1502.34 2341.68 1576.76L2307.57 1654.29C2261.61 1619.05 2273.45 1577.89 2273.45 1525.17C2160.69 1493.03 2222.99 1634.27 2204.95 1654.29C2510.83 1773.82 2334.63 1432.99 2501.53 1757.75C2685.9 1335.72 2713.25 1639.63 2683.93 1667.26L2547.2 1796.38C2534.23 1808.5 2640.79 1848.81 2683.93 1783.41L2752.43 1679.94C2698.31 1698.27 2695.77 1619.62 2706.76 1576.48C2732.14 1478.09 2808.54 1570.56 2706.76 1343.9C2704.79 1345.31 2686.47 1345.31 2683.93 1343.9C2579.62 1623 2466 1483.45 2638.26 1317.96C2558.19 1272.58 2543.25 1286.39 2478.69 1343.9C2405.67 1335.73 2440.35 1164.04 2433.02 1098.35C2493.07 1122.59 2478.69 1212.81 2478.69 1266.37L2478.41 1266.65Z" fill="#325E98"/>
<path d="M3687.29 982.199L3618.78 995.166C3606.38 997.422 3534.2 1192.23 3664.45 1214.78L3812.74 1240.72C3823.74 1242.69 3838.96 1411.56 3938.2 1421.71V1189.13L3687.29 982.199Z" fill="#62578C"/>
<path d="M3436.37 930.605C3458.08 1021.66 3326.71 1125.13 3322.2 1137.53L3276.52 1266.65L3345.03 1344.18C3345.03 1318.52 3414.95 1193.92 3436.37 1292.59C3439.76 1285.82 3432.99 1262.42 3459.21 1266.65C3399.16 1103.7 3479.51 1145.71 3482.04 1137.53C3484.58 1128.79 3567.75 1029.84 3504.88 982.477L3436.37 930.888V930.605Z" fill="#465B98"/>
<path d="M2774.99 982.203C2758.92 950.347 2727.35 895.937 2683.65 904.676L2637.98 956.269C2595.41 1004.76 2429.64 921.311 2375.79 956.269L2296.01 1007.86C2259.92 1031.26 2240.19 1039.71 2227.5 981.921L2159 1136.98C2146.31 1165.73 1953.76 1221.27 1953.76 1266.1V1317.69C2010.14 1305.56 2029.6 1344.75 2033.54 1343.62C2073.58 1332.91 2137.01 1111.89 2113.33 1421.15C2148.57 1368.15 2272.89 1348.7 2272.89 1498.68L2295.73 1472.74C2299.11 1469.08 2313.77 1387.04 2318.56 1369.28L2421.18 981.639C2543.54 1002.5 2608.66 1192.8 2478.13 1266.1V1343.62C2542.97 1286.11 2557.63 1272.3 2637.7 1317.69L2683.37 1343.62C2685.91 1345.03 2704.23 1345.03 2706.2 1343.62L2808.82 1266.1C2837.01 1244.67 2876.76 1295.41 2888.61 1292.03C2952.32 1273.42 3016.03 1309.79 3025.34 1201.54C3016.6 1169.96 2946.4 1322.76 2865.77 1162.63L2774.43 981.639L2774.99 982.203Z" fill="#254482"/>
<path d="M1976.6 904.673C1965.32 899.598 1789.69 735.806 1794.2 930.611C1861.58 911.158 1978.29 1017.72 1976.6 904.673Z" fill="#6793B8"/>
<path d="M3641.62 698.027L3595.94 723.962C3559.86 744.542 3542.66 734.392 3527.44 801.489L3550.27 827.426C3647.25 838.139 3642.74 784.012 3641.62 698.31V698.027Z" fill="#5B3E3E"/>
<path d="M3732.96 439.508C3713.51 461.497 3666.99 462.344 3664.45 465.445L3687.29 788.522C3692.08 856.746 3605.25 762.585 3732.96 904.954L3847.14 659.405L3881.25 775.837L3938.2 672.09V568.628C3830.22 507.17 3732.96 756.383 3732.96 594.562V439.508Z" fill="#5D639B"/>
<path d="M3938.2 672.088L3881.25 775.553L3847.14 659.121L3732.96 904.67C3726.19 919.048 3691.52 981.352 3687.29 982.197L3938.2 1189.12V672.088Z" fill="#414988"/>
<path d="M3367.87 568.629L3322.2 672.09C3431.3 751.027 3327.56 775.555 3458.93 775.555C3445.12 681.113 3427.92 636.853 3367.59 568.629H3367.87Z" fill="#47598D"/>
<path d="M3413.54 491.098C3370.69 466.289 3326.99 515.904 3322.2 517.032L3367.87 568.625C3427.92 636.849 3445.12 681.109 3459.21 775.551H3482.05C3500.09 707.046 3413.54 523.236 3413.54 491.098Z" fill="#9A9BBF"/>
<path d="M2934.56 594.562C2872.54 506.322 2829.12 478.132 2729.33 465.445C2723.12 617.399 2533.67 440.352 2546.92 530.002L2592.59 840.111C2594.29 851.952 2431.62 846.595 2638.27 956.543L2683.94 904.953C2720.87 862.948 2657.15 743.979 2820.67 788.521C2661.38 927.789 2965.01 826.863 2957.4 814.459L2911.73 736.932C2907.5 729.884 2934.56 694.079 2934.56 594.844V594.562Z" fill="#3867A3"/>
<path d="M3664.45 465.442L3618.78 517.032C3538.99 607.246 3639.64 553.964 3641.61 698.024C3642.74 784.009 3647.25 838.136 3550.27 827.141C3618.78 904.95 3593.69 933.988 3504.6 982.196C3567.47 1029.56 3484.3 1128.51 3481.76 1137.25L3755.51 1369.83C3750.43 1360.25 3747.05 1272.85 3664.17 1214.78C3533.92 1191.94 3606.09 997.418 3618.5 995.163L3687 982.196C3690.95 981.35 3725.91 919.046 3732.67 904.668C3605.24 762.582 3691.79 856.742 3687 788.236L3664.17 465.16L3664.45 465.442Z" fill="#706A9B"/>
<path d="M3938.2 517.033C3867.43 426.538 3752.13 476.155 3732.96 594.56C3732.96 756.663 3830.5 507.168 3938.2 568.626V517.033Z" fill="#39488B"/>
<path d="M3618.78 517.031C3519.26 332.657 3524.62 465.442 3482.05 465.442C3544.64 553.682 3575.65 619.366 3596.23 723.958L3641.9 698.023C3639.93 553.964 3539.56 607.245 3619.06 517.031H3618.78Z" fill="#5D639B"/>
<path d="M2318.85 672.091C2304.47 697.463 2194.8 1021.39 2136.44 840.112C2119.53 787.394 2250.06 670.4 2250.62 659.124C2252.88 574.549 2179.86 539.307 2182.11 530.003L2250.62 245.55C2219.89 170.278 2141.8 469.113 2148 491.102L1988.44 258.52C1879.62 435.564 2032.98 421.467 2068.22 504.069C2179.01 763.151 2165.76 844.624 1954.04 633.186C1988.44 738.059 2125.73 798.109 2068.22 930.328C2187.75 976.281 2214.25 920.743 2216.51 930.328L2227.79 981.918C2240.47 1039.71 2260.21 1030.97 2296.29 1007.86C2267.82 943.014 2391.58 701.13 2387.63 684.779C2381.71 660.252 2320.82 676.601 2319.13 671.809L2318.85 672.091Z" fill="#6693BC"/>
<path d="M3208.3 542.972L2991.51 232.863C3076.37 458.679 2985.31 354.933 2957.4 465.445C2999.4 532.26 2957.11 795.004 3060.02 801.488C3121.19 796.414 3181.52 548.893 3208.3 542.972Z" fill="#3867A3"/>
<path d="M3915.36 155.051H3846.85C3884.63 269.791 3732.68 422.871 3732.68 439.504V594.559C3751.85 476.154 3867.43 426.536 3937.91 517.032V206.923L3915.08 155.333L3915.36 155.051Z" fill="#7376A8"/>
<path d="M2318.85 672.09C2405.4 520.137 2654.05 222.998 2535.64 103.465C2535.36 368.749 2214.82 353.241 2318.85 672.09Z" fill="#5E8FBB"/>
<path d="M3504.88 77.5265C3498.12 81.7552 3473.59 75.2711 3459.21 77.5265L3470.49 258.519L3504.6 77.5265H3504.88Z" fill="#38538E"/>
<path d="M3938.2 77.5273C3884.35 102.054 3895.34 109.666 3915.36 155.055L3938.2 206.926V77.8095V77.5273Z" fill="#6C7FA4"/>
<path d="M3253.97 155.054C3271.45 46.2343 3187.16 46.2355 3117.24 25.9375C3113.3 34.6769 3120.06 55.8185 3094.41 51.8717C3100.05 359.725 2889.17 2.81822 2889.17 168.304V465.446C2903.27 487.153 2894.53 501.811 2934.84 491.38C2934.84 489.688 2948.37 501.813 2957.68 465.446C2985.59 354.652 3076.65 458.68 2991.79 232.864L3208.58 542.973C3146.84 485.744 3066.78 103.181 3151.64 129.399C3181.52 299.959 3246.08 155.337 3254.26 155.337L3253.97 155.054Z" fill="#487AAE"/>
<path d="M3253.97 155.052C3245.8 155.052 3181.24 299.957 3151.35 129.115C3066.78 102.896 3146.56 485.459 3208.3 542.689L3322.48 516.751C3326.99 515.623 3370.97 466.29 3413.82 490.817V439.224C3376.89 441.479 3277.09 452.193 3277.09 387.634V155.052H3254.25H3253.97Z" fill="#3B5C97"/>
<path d="M2888.89 465.442C2806.57 340.553 2762.87 460.086 2740.6 180.988L2729.33 465.442C2829.12 478.41 2872.54 506.601 2934.56 594.559V491.097C2894.53 501.81 2903.27 486.867 2888.89 465.16V465.442Z" fill="#6794BC"/>
<path d="M3687.28 103.465L3573.1 0C3514.75 12.9682 3508.83 74.99 3504.6 77.5273L3470.49 258.519L3459.21 77.5273H3436.37C3333.75 269.795 3355.74 78.373 3310.92 77.5273C3279.63 76.9634 3280.47 155.055 3276.81 155.055V387.636C3364.48 473.903 3413.54 146.878 3413.54 439.226V465.164H3482.04C3524.61 465.164 3519.54 332.661 3618.77 516.753L3664.45 465.164C3652.61 298.55 3660.22 260.775 3687.28 103.183V103.465Z" fill="#6E79A0"/>
<path d="M3846.85 155.054C3811.61 155.054 3715.2 128.837 3687.29 103.465C3660.22 261.057 3652.61 298.833 3664.45 465.446C3666.99 462.627 3713.5 461.498 3732.96 439.508C3732.96 423.157 3884.63 269.795 3847.13 155.054H3846.85Z" fill="#355692"/>
</svg>
