<svg width="1605" height="3899" viewBox="0 0 1605 3899" fill="none" xmlns="http://www.w3.org/2000/svg">
<path d="M319.697 3407.73L137.296 3511.2C159.003 3718.97 -110.512 3680.91 160.131 3692.19C166.615 3685.14 151.673 3553.2 251.473 3537.13L411.039 3511.2L308.42 3485.26L319.697 3407.73Z" fill="#7481B8"/>
<path d="M274.033 1494.94L159.855 1520.88L958.251 2167.03C978.831 2162.23 997.72 2220.59 1003.92 2167.03C992.363 2160.54 869.446 2000.98 821.52 1960.1L365.375 1572.46L274.033 1494.94Z" fill="#8296BB"/>
<path d="M342.251 1468.99C320.825 1446.43 284.457 1412.89 250.909 1417.4C248.936 1420.78 270.925 1492.39 273.744 1494.92L365.086 1572.45H387.922V1546.51C379.182 1527.34 352.4 1479.42 342.251 1468.99Z" fill="#CAA88C"/>
<path d="M707.335 3692.19C707.335 3635.24 467.704 3525.58 410.756 3511.2L251.19 3537.14H274.025C504.353 3537.7 724.532 3683.45 365.367 3718.13C478.699 3775.92 589.493 3765.49 707.617 3692.19H707.335Z" fill="#3E508B"/>
<path d="M274.031 2244.55L57.2352 2115.44L205.525 2270.49C254.861 2264.29 253.733 2253.29 274.031 2244.55Z" fill="#3A4586"/>
<path d="M1368.72 1572.45C1352.37 1598.11 1297.96 1883.69 1254.54 1805.04L1197.59 1701.57C1177.86 1665.49 1166.3 1800.53 1163.48 1805.04L1129.37 1960.09C1239.88 1931.62 1257.08 2061.02 1346.17 1960.09C1226.91 1905.96 1345.6 1823.08 1369 1701.57C1374.92 1670.56 1365.05 1630.81 1369 1598.11V1572.17L1368.72 1572.45Z" fill="#8C594B"/>
<path d="M342.252 1288C279.666 1273.34 304.757 1325.77 296.581 1339.59C337.46 1362.42 365.088 1365.81 387.923 1417.12L410.759 1468.71H456.43V1442.77L342.252 1287.72V1288Z" fill="#C19088"/>
<path d="M593.164 486.792C398.357 542.048 643.345 312.566 513.38 150.745C456.433 254.773 357.197 141.16 353.814 150.745L251.195 435.202C305.888 692.029 584.142 277.044 387.926 848.773H410.762C400.331 708.66 493.364 617.601 479.268 887.678C457.842 774.911 553.131 668.63 570.61 590.539L593.445 487.074L593.164 486.792Z" fill="#4569A1"/>
<path d="M798.679 1107.01L753.008 1042.45C745.678 1032.3 909.191 882.04 878.462 822.838L718.896 951.955V770.963L502.099 964.922C481.237 885.139 565.532 597.021 650.389 641.846C655.182 785.905 645.315 805.076 730.173 680.75C728.481 629.723 617.405 571.086 570.606 590.256C553.409 668.629 458.12 774.91 479.264 887.395C493.642 617.6 400.609 708.659 410.758 848.49L422.034 1003.54C243.016 855.538 189.169 1077.12 0.00115967 1003.54V1158.6C44.8264 1168.47 297.99 1145.07 307.857 1158.6L364.805 1236.13C396.38 1278.98 424.29 1202.3 456.147 1313.65C456.147 1229.36 489.131 1209.91 422.034 1106.73C604.436 1245.99 467.142 1125.05 558.766 1080.79C563.84 1081.64 637.421 1151.55 638.549 1158.32H661.384L741.167 1106.73C774.434 1337.9 804.317 1115.18 798.115 1106.73L798.679 1107.01Z" fill="#5278AB"/>
<path d="M1209.15 1468.99C1220.99 1262.34 1192.8 1447.56 1175.04 1417.4L1129.37 1339.87C1096.95 1284.61 993.2 1503.38 981.078 1546.8C959.37 1623.48 935.971 1832.66 1049.58 1753.73V1702.13C1049.58 1549.05 1112.45 1594.16 1209.15 1469.55V1468.99Z" fill="#976E5C"/>
<path d="M935.409 1132.95C942.457 1129 984.462 955.058 946.685 951.957L889.737 1158.88L935.409 1132.95Z" fill="#9A9BBF"/>
<path d="M456.43 1313.93C424.573 1202.58 396.663 1279.26 365.088 1236.41L342.252 1262.34C342.252 1262.34 341.125 1286.87 342.252 1288.28L456.43 1443.34V1314.22V1313.93Z" fill="#A97B65"/>
<path d="M387.922 1417.41L342.251 1469C352.118 1479.43 379.182 1527.35 387.922 1546.52C418.369 1549.34 416.678 1482.53 410.757 1469L387.922 1417.41Z" fill="#89574D"/>
<path d="M274.027 3201.09L262.75 3097.62C195.371 3209.55 132.785 3358.4 0.565094 3382.08V3459.61L262.75 3278.62L160.132 3420.7L319.698 3356.14L342.533 3278.62C362.55 3210.96 298.554 3156.83 433.875 3175.15C368.752 3175.15 350.991 3126.95 274.309 3201.09H274.027Z" fill="#405399"/>
<path d="M365.089 3717.85C724.536 3683.17 504.357 3537.42 273.747 3536.86C205.805 3684.3 279.667 3674.15 365.089 3717.85Z" fill="#4E5FAD"/>
<path d="M319.703 3356.15L160.137 3420.71L262.756 3278.62L0.570465 3459.61V3485.55L80.3537 3459.61C35.2466 3554.9 50.1884 3560.82 137.302 3511.21L319.703 3407.74C326.188 3363.76 318.858 3358.41 319.703 3356.15Z" fill="#364184"/>
<path d="M1277.66 1675.92L1369 1456.31C1344.19 1431.5 1258.21 1564.85 1254.82 1572.74C1236.78 1617 1228.04 1666.62 1277.66 1676.2V1675.92Z" fill="#8C594B"/>
<path d="M0.283943 2399.59V2503.06C37.7792 2529 71.6092 2542.53 114.461 2554.65L0.283943 2399.59Z" fill="#3D4181"/>
<path d="M0.286713 3356.15L228.359 2981.2L0.286713 3278.63V3356.15Z" fill="#264187"/>
<path d="M1368.72 1701.57C1387.33 1853.52 1486.57 1490.13 1368.72 1598.11C1364.78 1630.81 1374.64 1670.56 1368.72 1701.57Z" fill="#AC8E7A"/>
<path d="M798.683 2580.59C761.47 2580.59 530.578 2660.66 479.268 2684.06C581.323 2687.44 445.72 2737.06 410.762 2761.59L433.597 2787.52C720.309 2733.39 675.202 2774.83 935.414 2865.05V2813.46C935.414 2616.4 806.295 2677.01 821.237 2580.88H798.401L798.683 2580.59Z" fill="#45528E"/>
<path d="M1049.59 2709.71C1025.91 2690.26 1141.78 2580.59 821.515 2580.59C806.573 2676.73 935.692 2616.12 935.692 2813.18L1049.87 2709.71H1049.59Z" fill="#4E5FAD"/>
<path d="M1505.73 1960.1C1456.12 1798.84 1386.48 2049.75 1448.79 1805.05C1404.52 1818.3 1373.8 1928.81 1369 1934.16C1427.64 2090.06 1148.82 2082.17 1391.84 2089.22C1396.35 2088.09 1411.01 2087.24 1414.67 2089.22C1454.99 2092.04 1500.38 2012.82 1506.02 2011.69C1413.26 2007.46 1494.18 1980.4 1506.02 1960.1H1505.73Z" fill="#8C594B"/>
<path d="M456.432 1468.98H410.761C416.681 1482.52 418.655 1549.33 387.926 1546.51V1572.45C481.523 1637.01 460.942 1670.56 524.656 1598.39C372.702 1594.72 504.358 1523.96 501.821 1507.89C498.438 1485.9 456.15 1472.37 456.15 1468.98H456.432Z" fill="#A97B65"/>
<path d="M251.19 3537.14C151.391 3553.21 166.614 3685.15 159.848 3692.2C114.177 3742.09 53.8468 3709.96 0.282104 3718.13V3795.66L707.336 3744.07V3692.48C589.212 3765.78 478.417 3776.21 365.085 3718.41C279.664 3674.72 206.083 3684.87 273.744 3537.42H250.908L251.19 3537.14Z" fill="#23235E"/>
<path d="M91.348 2839.11L0.00592041 3046.04V3149.5C116.157 3123.28 151.397 2983.45 136.737 2865.04C131.944 2867.3 93.3216 2841.93 91.0662 2839.11H91.348Z" fill="#3A60A4"/>
<path d="M0.283394 2787.24V3045.75L91.625 2838.83L68.7896 2812.89C66.2523 2810.07 19.7358 2808.94 0.283394 2786.95V2787.24Z" fill="#4E7EB6"/>
<path d="M205.52 2580.6C518.169 2300.94 252.319 2319.54 0.282837 2348.02V2399.61L114.46 2554.66L205.802 2580.6H205.52Z" fill="#4E5FAD"/>
<path d="M707.336 3743.78L0.282104 3795.37V3898.84H228.355C345.633 3898.84 707.336 3896.86 707.336 3743.78Z" fill="#39387C"/>
<path d="M410.758 2761.59C445.434 2737.06 581.037 2687.45 479.265 2684.06L365.087 2735.65C367.624 2736.78 408.785 2759.33 410.758 2761.59Z" fill="#381D2F"/>
<path d="M137.016 3511.2C49.6212 3560.54 34.9617 3554.9 80.0688 3459.61L0.285522 3485.55V3718.13C54.1321 3710.24 114.181 3742.09 159.852 3692.19C-110.791 3680.91 158.724 3718.98 137.016 3511.2Z" fill="#405399"/>
<path d="M0.283295 2503.06V2787.52C19.7357 2809.51 66.2522 2810.35 68.7895 2813.45C177.328 2613.01 402.864 3062.1 285.586 2787.52C392.997 2854.89 419.779 2790.05 433.875 2787.52L411.04 2761.58C409.348 2759.61 367.906 2736.77 365.369 2735.64L239.915 2684.05C217.361 2674.75 233.43 2610.19 228.638 2606.53C227.228 2605.68 237.095 2589.61 205.802 2580.59L114.46 2554.65C71.6086 2542.53 37.7786 2529 0.283295 2503.06Z" fill="#2E2A60"/>
<path d="M1300.5 2813.18C1229.46 2738.75 1008.71 2468.11 901.302 2503.07L821.519 2529.01L798.683 2580.6H821.519C1141.78 2580.6 1025.91 2690.26 1049.59 2709.71L1175.05 2813.18C1187.45 2823.33 1271.74 2806.41 1300.5 2813.18Z" fill="#3D4782"/>
<path d="M661.667 2399.59C395.254 2293.03 417.807 2490.09 228.357 2606.52C233.432 2610.19 217.081 2674.75 239.634 2684.05L365.088 2735.64L479.266 2684.05C530.575 2660.65 761.467 2580.59 798.68 2580.59L821.516 2529C807.983 2533.23 538.751 2371.97 661.95 2399.88L661.667 2399.59Z" fill="#4E5FAD"/>
<path d="M274.029 3201.09C365.935 3102.14 237.662 2819.37 194.246 2839.11L137.299 2865.04C151.959 2983.17 116.437 3123.28 0.567688 3149.5V3278.62L228.64 2981.47L0.567688 3356.43V3382.36C133.07 3358.68 195.374 3209.83 262.753 3097.91L274.029 3201.37V3201.09Z" fill="#4C73AD"/>
<path d="M1072.14 2270.49C1004.76 2270.2 913.703 2324.61 866.904 2373.95C862.112 2379.02 875.644 2485.31 855.628 2477.41L661.667 2399.88C538.75 2371.97 807.983 2533.52 821.234 2529L901.017 2503.07C1008.43 2468.39 1228.89 2739.03 1300.21 2813.18C1506.02 3028 1112.74 2332.51 1072.14 2270.2V2270.49Z" fill="#4E5FAD"/>
<path d="M753.008 2348.01C711.284 2256.1 641.932 2167.02 547.771 2192.95L376.645 2296.42C493.642 2322.92 634.32 2348.01 753.008 2348.01Z" fill="#4E5FAD"/>
<path d="M1003.92 2167.02C997.714 2220.58 978.826 2162.22 958.245 2167.02L844.068 2192.96C839.839 2194.08 774.998 2252.72 775.562 2257.52L844.068 2348.01C844.068 2348.01 870.85 2344.35 866.903 2373.95C913.702 2324.61 1004.76 2270.2 1072.14 2270.48C1053.53 2242.01 1052.69 2194.65 1049.31 2192.96L1003.63 2167.02H1003.92Z" fill="#45508C"/>
<path d="M844.07 2192.68C825.182 2117.13 772.463 2150.4 729.893 2141.09C731.584 2222.57 648.136 2131.79 547.491 2192.68C641.652 2166.75 711.004 2255.83 752.728 2347.74H844.07L775.564 2257.24C775 2252.17 839.56 2193.53 844.07 2192.68Z" fill="#4E5FAD"/>
<path d="M730.177 2141.09C586.116 2109.51 595.702 2048.33 456.433 1986.03L547.775 2128.12L274.032 2244.55C253.733 2253.29 254.861 2264.28 205.525 2270.48L0.288086 2296.42V2348.01C252.324 2319.82 518.174 2301.21 205.525 2580.59C236.818 2589.62 226.951 2605.4 228.361 2606.53C417.811 2490.38 395.257 2293.04 661.671 2399.6L855.631 2477.13C875.648 2485.02 862.397 2378.74 866.908 2373.67C870.855 2344.35 845.2 2349.14 844.073 2347.73H752.73C634.042 2347.73 493.365 2322.36 376.368 2296.14L547.493 2192.68C648.138 2131.78 731.587 2222.56 729.895 2141.09H730.177Z" fill="#323772"/>
<path d="M456.431 1986.03C306.732 1918.93 170.283 1950.22 0.286072 1908.5V2296.14L205.523 2270.2L57.2335 2115.14L274.03 2244.26L547.773 2127.83L456.431 1985.75V1986.03Z" fill="#4E5FAD"/>
<path d="M912.577 1934.43V1843.94C912.577 1823.08 868.034 1833.51 866.906 1830.97L821.235 1960.09C869.161 2000.96 992.078 2160.25 1003.64 2167.01L1049.31 2192.95L1072.14 2167.01C1074.96 2163.63 1086.8 2169.27 1094.98 2167.01C1163.49 1936.4 912.577 2164.48 912.577 1934.43Z" fill="#373264"/>
<path d="M1163.48 1805.04C994.33 2078.78 1177.3 1739.36 1049.3 1805.04C1049.3 1842.54 955.708 2014.22 912.574 1934.16C912.574 2164.2 1163.48 1936.13 1094.98 2166.74L1391.55 2089.21C1148.54 2082.17 1427.36 2089.78 1368.72 1934.16L1345.88 1960.1C1256.8 2061.02 1239.6 1931.62 1129.09 1960.1L1163.2 1805.04H1163.48Z" fill="#6D3B42"/>
<path d="M661.668 1158.88H638.832L673.227 1365.52L661.668 1158.88Z" fill="#987867"/>
<path d="M981.079 1546.52C926.669 1716.23 804.316 1786.99 912.573 1572.45C865.493 1489.57 863.801 1639.83 832.79 1675.92C778.098 1653.93 871.413 1543.41 798.677 1624.33C761.746 1771.77 840.684 1772.9 867.184 1831.25C868.312 1833.79 912.855 1823.36 912.855 1844.22V1934.72C956.27 2014.78 1049.59 1842.81 1049.59 1805.6V1754.01C935.972 1833.23 959.653 1624.04 981.079 1547.08V1546.52Z" fill="#7F4A48"/>
<path d="M1209.16 1546.52L1049.59 1701.57V1805.04C1177.58 1739.35 994.617 2078.78 1163.77 1805.04C1166.59 1800.52 1178.15 1665.48 1197.88 1701.57L1254.83 1805.04C1322.49 1752.88 1275.13 1681.84 1277.66 1675.92C1228.05 1666.33 1236.79 1616.71 1254.83 1572.45L1209.16 1546.52Z" fill="#986B5C"/>
<path d="M159.854 1520.58C144.349 1523.96 105.726 1524.53 91.348 1520.58L0.00592041 1598.11V1908.22C170.003 1950.22 306.453 1918.65 456.152 1985.74C595.42 2048.05 585.834 2109.22 729.895 2140.8C772.465 2150.1 824.902 2117.11 844.073 2192.39L958.25 2166.45L159.854 1520.3V1520.58Z" fill="#4E5FAD"/>
<path d="M1460.07 1546.51C1433.85 1546.51 1414.68 1500 1368.72 1572.45V1598.39C1486.57 1490.41 1387.33 1853.52 1368.72 1701.85C1345.32 1823.07 1226.92 1906.24 1345.89 1960.37L1368.72 1934.43C1373.52 1928.79 1404.53 1818.28 1448.51 1805.31C1386.2 2050.02 1455.84 1799.11 1505.45 1960.37L1596.8 1805.31C1598.21 1803.06 1539.85 1808.7 1551.13 1792.35L1596.8 1727.79C1618.79 1696.78 1586.08 1668.87 1573.96 1650.26C1571.42 1646.03 1553.1 1666.61 1528.29 1624.32L1482.62 1546.8H1459.78L1460.07 1546.51Z" fill="#A4816A"/>
<path d="M91.3438 1520.59L0.283913 1494.94V1598.4L91.3438 1520.59Z" fill="#7B4846"/>
<path d="M1209.16 1468.98C1112.46 1593.59 1049.59 1548.77 1049.59 1701.57L1209.16 1546.51C1248.35 1508.45 1207.75 1491.54 1209.16 1468.98Z" fill="#B4927A"/>
<path d="M1551.12 1468.98C1518.7 1477.72 1524.62 1546.51 1482.62 1546.51L1528.29 1624.04C1594.26 1575.27 1534.49 1494.08 1551.12 1468.98Z" fill="#9A9BBF"/>
<path d="M547.773 1572.46C521.555 1438.27 570.327 1444.47 479.267 1417.41H456.431V1469C456.431 1472.1 498.719 1485.91 502.102 1507.9C504.639 1523.97 372.984 1594.73 524.938 1598.4L547.773 1572.46Z" fill="#8F5749"/>
<path d="M296.861 1339.88L251.19 1417.4C284.457 1413.17 321.106 1446.72 342.532 1468.99L388.203 1417.4C365.65 1366.09 337.739 1362.71 296.861 1339.88Z" fill="#AF8666"/>
<path d="M615.999 1417.4C615.999 1300.41 500.412 1333.96 479.268 1417.4C570.328 1444.47 521.557 1438.27 547.775 1572.46C590.063 1789.54 563.562 1445.03 616.281 1417.4H615.999Z" fill="#A97B65"/>
<path d="M889.739 1313.93C884.382 1310.55 843.222 1384.42 809.956 1262.35C781.764 1261.5 703.672 1687.2 718.614 1365.81L615.995 1520.86C615.995 1540.6 636.011 1752.6 650.107 1753.45L741.449 1598.39C750.189 1583.45 717.486 1713.98 798.397 1624.33C871.132 1543.7 777.817 1653.93 832.509 1675.92C863.52 1639.83 865.494 1489.85 912.292 1572.45L1049.02 1300.97C860.701 1487.03 961.346 1357.35 889.457 1313.93H889.739Z" fill="#936455"/>
<path d="M365.092 1236.41C370.73 1229.92 224.132 1190.17 205.526 1223.44L342.256 1262.35L365.092 1236.41Z" fill="#4C70A4"/>
<path d="M638.832 1158.89C637.704 1152.12 564.123 1082.21 559.049 1081.36C467.425 1125.62 604.438 1246.56 422.318 1107.3C489.415 1210.48 456.43 1229.65 456.43 1314.22V1417.69H479.266C500.41 1334.24 615.997 1300.69 615.997 1417.69V1521.15L718.615 1366.1C703.674 1687.48 781.765 1261.79 809.957 1262.63C843.224 1384.7 884.384 1311.12 889.74 1314.22C1036.34 1115.75 731.302 1356.51 866.905 1159.17C862.958 1157.48 844.351 1087 798.399 1107.58C804.319 1116.04 774.717 1338.75 741.451 1107.58L661.668 1159.17L672.945 1366.1L638.832 1159.17V1158.89Z" fill="#BEA389"/>
<path d="M159.848 667.785C145.188 684.418 12.4038 701.896 137.012 796.902L319.414 835.807L159.848 667.785Z" fill="#5C80B0"/>
<path d="M182.684 615.91H0.281967V848.492C39.7507 871.609 129.965 795.211 137.013 796.902C12.4043 701.614 145.188 684.137 159.848 667.785L182.684 641.848C186.349 637.619 179.583 623.522 182.684 615.91Z" fill="#374A81"/>
<path d="M387.926 848.492C401.458 924.892 347.329 890.5 342.255 861.462L330.978 615.91C303.068 892.471 319.42 699.359 182.689 641.848L159.853 667.785L319.419 835.807L137.018 796.902C129.97 795.493 39.4738 871.891 0.286987 848.492V1003.55C189.173 1077.13 243.02 855.54 422.32 1003.55L411.043 848.492H388.208H387.926Z" fill="#45679F"/>
<path d="M91.3446 150.747L0.00256348 47.2852V615.91H182.404C242.453 471.85 194.527 268.024 91.0628 150.747H91.3446Z" fill="#4E5FAD"/>
<path d="M251.193 434.919C228.921 330.61 313.779 173.58 274.028 34.3126C271.773 25.0093 236.815 -17.8399 228.357 8.37837C239.07 554.734 139.553 -48.5678 91.6263 150.466C195.091 267.743 243.017 471.852 182.968 615.629C179.867 623.241 186.633 637.335 182.968 641.564C319.699 699.075 303.348 892.19 331.258 615.629L342.535 861.178C347.609 890.216 401.738 924.893 388.206 848.211C584.421 276.483 306.167 691.464 251.475 434.637L251.193 434.919Z" fill="#5278AB"/>
</svg>
