<svg width="241" height="127" viewBox="0 0 241 127" fill="none" xmlns="http://www.w3.org/2000/svg">
<mask id="mask0_11_47" style="mask-type:luminance" maskUnits="userSpaceOnUse" x="-74" y="0" width="315" height="131">
<path d="M241 130.818L-73.6559 130.818L-73.6559 -1.52876e-05L241 -1.52876e-05V130.818Z" fill="white"/>
</mask>
<g mask="url(#mask0_11_47)">
<path d="M248.845 20.7286C245.442 20.9059 242.626 21.8196 240.304 23.054C239.15 23.1341 237.998 23.2092 236.847 23.2804C236.46 24.3233 236.069 25.3663 235.675 26.4093C233.204 28.7627 231.876 31.0951 231.56 31.6882C231.559 31.6902 231.558 31.6923 231.557 31.6943C231.535 31.7353 231.518 31.7674 231.506 31.7904C231.504 31.7944 231.503 31.7975 231.501 31.8005C231.49 31.8225 231.484 31.8345 231.484 31.8345C231.484 31.8345 231.496 31.8355 231.52 31.8375C231.526 31.8375 231.531 31.8385 231.538 31.8385C232.317 31.9237 243.64 32.3565 249.581 21.9168C250.881 21.8226 252.971 21.5341 255.327 20.6725C254.365 19.1546 253.404 17.6367 252.442 16.1189C250.679 17.8682 249.507 19.6074 248.845 20.7286Z" fill="#15256B"/>
<path d="M159.526 50.0248C156.236 49.568 153.391 49.9417 150.968 50.7222C149.849 50.5869 148.732 50.4486 147.617 50.3064C147.08 51.2562 146.539 52.205 145.994 53.1537C143.249 55.0032 141.601 57.0431 141.204 57.5671C141.203 57.5691 141.2 57.5711 141.199 57.5731C141.171 57.6091 141.15 57.6382 141.135 57.6582C141.133 57.6612 141.13 57.6643 141.128 57.6673C141.114 57.6863 141.106 57.6973 141.106 57.6973C141.106 57.6973 141.118 57.7003 141.14 57.7063C141.145 57.7083 141.15 57.7093 141.157 57.7113C141.89 57.9378 152.686 60.4385 160.043 51.3263C161.305 51.4756 163.355 51.5798 165.75 51.175C165.069 49.5119 164.387 47.8497 163.706 46.1866C161.739 47.5662 160.34 49.05 159.526 50.0248Z" fill="#15256B"/>
<path d="M192.949 69.0086C189.485 68.7652 186.507 69.3292 183.981 70.274C182.803 70.2109 181.626 70.1448 180.45 70.0736C179.909 71.0655 179.364 72.0564 178.815 73.0462C175.977 75.0861 174.297 77.2462 173.893 77.7982C173.891 77.8002 173.89 77.8022 173.889 77.8042C173.861 77.8433 173.839 77.8724 173.824 77.8944C173.822 77.8984 173.819 77.9014 173.817 77.9034C173.802 77.9234 173.795 77.9355 173.795 77.9355C173.795 77.9355 173.808 77.9375 173.831 77.9425C173.837 77.9435 173.842 77.9445 173.85 77.9455C174.628 78.1248 186.022 79.9543 193.523 70.284C194.852 70.3502 197.004 70.3201 199.506 69.753C198.754 68.122 198.001 66.4899 197.248 64.8588C195.215 66.3837 193.781 67.9717 192.949 69.0086Z" fill="#15256B"/>
<path d="M57.0908 120.901C53.7455 119.783 50.6607 119.571 47.9195 119.842C46.7743 119.481 45.6322 119.116 44.492 118.748C43.6945 119.57 42.893 120.39 42.0885 121.208C38.7462 122.458 36.512 124.12 35.9669 124.55C35.9649 124.552 35.9629 124.553 35.9609 124.555C35.9228 124.586 35.8938 124.609 35.8727 124.626C35.8697 124.629 35.8667 124.631 35.8637 124.634C35.8447 124.65 35.8337 124.659 35.8337 124.659C35.8337 124.659 35.8457 124.665 35.8677 124.675C35.8727 124.678 35.8788 124.68 35.8848 124.683C36.6071 125.055 47.3644 129.73 57.3172 122.282C58.6077 122.685 60.7347 123.204 63.3466 123.291C63.039 121.521 62.7324 119.75 62.4249 117.98C60.0183 118.937 58.1839 120.109 57.0908 120.901Z" fill="#15256B"/>
<path d="M179.483 9.862C176.309 9.56243 173.632 10.0634 171.392 10.948C170.316 10.8669 169.241 10.7817 168.167 10.6926C167.736 11.6574 167.303 12.6222 166.865 13.587C164.41 15.5457 163.015 17.6457 162.681 18.1827C162.68 18.1847 162.678 18.1867 162.677 18.1887C162.654 18.2258 162.636 18.2558 162.623 18.2759C162.621 18.2789 162.619 18.2819 162.618 18.2849C162.606 18.3049 162.6 18.316 162.6 18.316C162.6 18.316 162.612 18.319 162.633 18.323C162.638 18.324 162.643 18.326 162.65 18.327C163.362 18.5183 173.85 20.478 180.086 11.1234C181.301 11.2115 183.264 11.2206 185.513 10.7106C184.72 9.09756 183.929 7.48552 183.136 5.87247C181.381 7.32822 180.174 8.86011 179.483 9.862Z" fill="#15256B"/>
<path d="M92.8763 53.6717C89.7625 52.783 86.9822 52.774 84.5626 53.2258C83.5016 52.9443 82.4426 52.6588 81.3856 52.3702C80.7605 53.2389 80.1323 54.1065 79.4991 54.9731C76.6457 56.4409 74.8263 58.2433 74.3834 58.7092C74.3834 58.7092 74.3804 58.7122 74.3784 58.7142C74.3474 58.7473 74.3243 58.7723 74.3073 58.7903C74.3043 58.7933 74.3023 58.7964 74.3003 58.7984C74.2842 58.8154 74.2752 58.8254 74.2752 58.8254C74.2752 58.8254 74.2862 58.8304 74.3073 58.8384C74.3123 58.8404 74.3173 58.8424 74.3233 58.8454C75.0006 59.1671 85.1127 63.0604 93.227 55.0262C94.4242 55.3408 96.386 55.7165 98.7364 55.6354C98.2685 53.9001 97.8016 52.1658 97.3337 50.4306C95.2839 51.5346 93.77 52.8161 92.8763 53.6717Z" fill="#15256B"/>
<path d="M131.464 96.4505C129.04 95.9876 126.885 96.1389 125.019 96.5987C124.19 96.4595 123.364 96.3182 122.537 96.1749C122.071 96.8292 121.603 97.4834 121.134 98.1366C118.957 99.3489 117.598 100.741 117.268 101.098L117.264 101.102C117.241 101.127 117.223 101.146 117.211 101.16C117.209 101.162 117.207 101.164 117.206 101.166C117.194 101.179 117.188 101.187 117.188 101.187C117.188 101.187 117.197 101.19 117.213 101.195C117.216 101.196 117.221 101.198 117.226 101.199C117.774 101.382 125.643 103.55 131.758 97.3962C132.688 97.5555 134.208 97.7178 136.022 97.5365C135.636 96.3252 135.25 95.1139 134.864 93.9016C133.292 94.7973 132.14 95.7922 131.464 96.4505Z" fill="#15256B"/>
<path d="M202.519 41.9145C200.134 41.7993 198.107 42.2511 196.41 42.9645C195.598 42.9434 194.787 42.9214 193.977 42.8963C193.644 43.6047 193.309 44.313 192.972 45.0214C191.107 46.5182 190.048 48.0771 189.794 48.4749L189.791 48.4789C189.773 48.5069 189.759 48.528 189.75 48.544C189.748 48.547 189.747 48.549 189.746 48.551C189.737 48.565 189.732 48.5741 189.732 48.5741C189.732 48.5741 189.741 48.5761 189.757 48.5781C189.761 48.5791 189.765 48.5791 189.77 48.5801C190.32 48.6823 198.17 49.7042 202.957 42.8022C203.871 42.8282 205.345 42.7731 207.042 42.3413C206.47 41.2062 205.897 40.07 205.326 38.9349C203.981 40.0349 203.052 41.1741 202.519 41.9145Z" fill="#15256B"/>
<path d="M209.689 11.7977C207.378 11.7326 205.447 12.2215 203.848 12.9639C203.063 12.9609 202.28 12.9549 201.496 12.9479C201.214 13.6562 200.93 14.3655 200.644 15.0739C198.926 16.5958 197.991 18.1637 197.767 18.5635L197.765 18.5675C197.75 18.5955 197.738 18.6166 197.729 18.6326C197.728 18.6356 197.726 18.6376 197.726 18.6396C197.718 18.6546 197.714 18.6627 197.714 18.6627C197.714 18.6627 197.723 18.6637 197.738 18.6657C197.742 18.6667 197.746 18.6667 197.75 18.6677C198.286 18.7578 205.918 19.6024 210.162 12.6673C211.045 12.6734 212.467 12.5902 214.082 12.1273C213.467 11.0152 212.851 9.90213 212.236 8.79003C210.998 9.90513 210.164 11.0523 209.689 11.7977Z" fill="#15256B"/>
<path d="M108.047 77.9375C105.731 77.3724 103.66 77.4315 101.862 77.8112C101.071 77.6369 100.28 77.4616 99.4907 77.2842C99.0309 77.9174 98.57 78.5486 98.1061 79.1798C95.9951 80.2959 94.6626 81.6274 94.34 81.9691C94.34 81.9691 94.337 81.9711 94.337 81.9731C94.315 81.9971 94.2969 82.0162 94.2849 82.0292C94.2829 82.0312 94.2809 82.0332 94.2799 82.0352C94.2679 82.0482 94.2619 82.0552 94.2619 82.0552C94.2619 82.0552 94.2699 82.0582 94.2859 82.0643C94.2899 82.0653 94.2939 82.0673 94.2979 82.0683C94.8189 82.2737 102.324 84.7613 108.312 78.8923C109.203 79.0906 110.659 79.3171 112.401 79.2149C112.054 77.9916 111.707 76.7683 111.36 75.546C109.834 76.3685 108.709 77.3103 108.047 77.9375Z" fill="#15256B"/>
<path d="M59.7137 98.2358C57.4224 97.4583 55.3174 97.3251 53.4559 97.5355C52.6704 97.289 51.8859 97.0405 51.1034 96.7901C50.5734 97.3772 50.0414 97.9643 49.5074 98.5494C47.2542 99.4651 45.7684 100.666 45.4057 100.977L45.4017 100.98C45.3766 101.002 45.3576 101.019 45.3436 101.031C45.3416 101.033 45.3396 101.035 45.3375 101.036C45.3245 101.047 45.3175 101.054 45.3175 101.054C45.3175 101.054 45.3255 101.058 45.3406 101.065C45.3436 101.067 45.3486 101.068 45.3526 101.07C45.8615 101.323 53.2234 104.501 59.885 99.2096C60.7677 99.4901 62.2194 99.8498 63.9968 99.9099C63.7683 98.6596 63.5409 97.4082 63.3125 96.1579C61.6824 96.8391 60.4471 97.6727 59.7137 98.2358Z" fill="#15256B"/>
<path d="M14.7929 109.782C12.5467 108.816 10.4307 108.507 8.53112 108.562C7.75866 108.251 6.9882 107.937 6.21875 107.622C5.63265 108.164 5.04353 108.704 4.45341 109.243C2.09697 109.967 0.48994 111.039 0.0971988 111.318L0.0931935 111.321C0.0651406 111.342 0.0450928 111.357 0.0290618 111.368C0.0270572 111.37 0.0240647 111.372 0.0220601 111.373C0.00803366 111.383 1.52876e-05 111.389 1.52876e-05 111.389C1.52876e-05 111.389 0.00802601 111.393 0.0230538 111.402C0.0260597 111.404 0.0300765 111.406 0.0350851 111.409C0.528016 111.702 7.69253 115.486 14.8811 110.767C15.7487 111.12 17.1844 111.6 18.9728 111.807C18.8516 110.542 18.7294 109.277 18.6081 108.011C16.9029 108.553 15.5844 109.282 14.7929 109.782Z" fill="#15256B"/>
</g>
</svg>
