<svg width="598" height="249" viewBox="0 0 598 249" fill="none" xmlns="http://www.w3.org/2000/svg">
<path d="M72.0276 39.6856C75.189 41.0247 77.7383 42.6789 79.2645 44.5211C82.4618 41.7828 88.5575 40.1026 95.5303 39.8736C104.866 39.6096 113.042 42.0149 114.326 46.6004C113.766 47.1804 113.2 47.7575 112.627 48.3306C113.139 48.6446 113.655 48.9556 114.174 49.2647C112.75 53.3762 105.394 57.3686 96.0844 57.6427C88.1575 57.9017 81.4277 55.3714 78.6354 52.125C76.7441 53.6832 73.6708 54.8153 69.8914 55.1984C64.1947 46.4844 72.1956 39.7396 72.0276 39.6856Z" fill="#CD725E"/>
<path d="M85.2331 41.4848C86.0262 41.2368 86.8633 41.0157 87.7334 40.8207C88.5995 41.9859 89.0596 43.513 88.7366 44.9972C88.3635 46.4184 87.3604 47.3305 86.9923 48.4096C86.5773 49.4707 86.7913 50.6259 87.3834 51.581C88.7495 53.7222 90.7698 55.5694 92.475 57.5596C90.4517 57.4086 88.5425 57.0816 86.8103 56.6105C85.9402 55.1834 85.3952 53.5922 85.4452 51.974C85.4762 50.6379 85.6772 49.3817 85.8792 48.1606C86.0802 46.9544 85.9942 45.6483 85.8632 44.7142C85.7692 43.6531 85.6262 42.6159 85.2331 41.4848Z" fill="#B6C8E3"/>
<path d="M95.1633 39.8907C95.2863 39.8857 95.4063 39.8767 95.5303 39.8727C96.4344 39.8447 97.3185 39.8527 98.1896 39.8767C98.2596 40.4097 98.2676 40.9488 98.1836 41.4799C97.9246 43.066 97.0355 44.3022 96.7515 45.6263C96.4324 46.9405 96.6744 48.2996 97.3255 49.4748C98.6386 51.839 100.292 53.7663 102.125 55.8415C102.363 56.1355 102.603 56.4356 102.842 56.7406C101.472 57.0727 100.015 57.3197 98.4987 57.4737C96.6385 55.2944 95.4283 52.8002 95.4123 49.8808C95.4243 47.0635 95.9394 44.0551 95.3633 41.3968C95.3053 40.8908 95.2403 40.3897 95.1633 39.8907Z" fill="#B6C8E3"/>
<path d="M103.21 42.2448C100.745 46.6623 101.522 51.6579 104.289 55.7744C104.408 55.9474 104.515 56.1014 104.614 56.2464C104.352 56.3274 104.096 56.4124 103.827 56.4875C103.739 56.4204 103.653 56.3545 103.557 56.2805C99.2307 52.696 98.5826 45.6902 103.21 42.2448Z" fill="#8F4231"/>
<path d="M106.851 45.7633C106.917 46.3843 107.504 46.8304 108.164 46.7534C108.823 46.6774 109.293 46.1073 109.215 45.4882C109.137 44.8692 108.551 44.4331 107.903 44.5081C107.256 44.5841 106.785 45.1432 106.851 45.7633Z" fill="#12205C"/>
<path d="M92.501 47.1624C95.1393 47.9015 97.8186 48.5685 100.535 49.1616C100.639 49.2956 100.743 49.4297 100.847 49.5637C100.875 49.9897 100.902 50.4158 100.93 50.8418C98.3246 51.6679 95.6813 52.426 93.003 53.1141C89.7977 50.7958 92.532 47.1624 92.501 47.1624Z" fill="#8F4231"/>
<path d="M3.1618 0C5.55008 1.01212 7.4753 2.26127 8.62843 3.65243C11.0437 1.58419 15.6482 0.315034 20.9148 0.142015C27.9666 -0.0570083 34.1423 1.7592 35.1124 5.2226C34.6894 5.66065 34.2613 6.09671 33.8283 6.52976C34.2153 6.76678 34.6054 7.0018 34.9974 7.23583C33.9213 10.3422 28.3656 13.3565 21.3328 13.5636C15.3451 13.7586 10.2616 11.8484 8.15236 9.39608C6.7242 10.5732 4.40293 11.4283 1.5476 11.7173C-2.75389 5.13559 3.28982 0.0410047 3.1618 0Z" fill="#CD725E"/>
<path d="M13.137 1.3592C13.7361 1.17117 14.3681 1.00415 15.0252 0.858131C15.6793 1.73823 16.0273 2.89137 15.7833 4.0125C15.5023 5.08562 14.7442 5.7757 14.4661 6.58979C14.1531 7.39088 14.3151 8.26399 14.7612 8.98507C15.7933 10.6023 17.3195 11.9974 18.6066 13.5016C17.0785 13.3876 15.6363 13.1405 14.3281 12.7845C13.671 11.7064 13.259 10.5042 13.297 9.2821C13.32 8.27299 13.472 7.32387 13.625 6.40177C13.7771 5.49066 13.712 4.50455 13.613 3.79847C13.542 2.99638 13.434 2.21329 13.137 1.3592Z" fill="#B6C8E3"/>
<path d="M20.6378 0.154995C20.7308 0.150994 20.8218 0.143993 20.9148 0.141993C21.5979 0.12099 22.265 0.126997 22.923 0.144999C22.975 0.547045 22.982 0.955091 22.919 1.35614C22.723 2.55427 22.0519 3.48738 21.8379 4.4885C21.5969 5.48161 21.7799 6.50773 22.271 7.39583C23.2621 9.18204 24.5112 10.6372 25.8964 12.2054C26.0764 12.4274 26.2574 12.6544 26.4385 12.8845C25.4033 13.1355 24.3032 13.3225 23.1571 13.4385C21.7519 11.7923 20.8378 9.90811 20.8258 7.70286C20.8348 5.57461 21.2239 3.30236 20.7888 1.29413C20.7448 0.910089 20.6958 0.532038 20.6378 0.154995Z" fill="#B6C8E3"/>
<path d="M26.7165 1.93321C24.8543 5.26959 25.4413 9.04302 27.5315 12.1524C27.6216 12.2834 27.7026 12.3994 27.7766 12.5094C27.5786 12.5704 27.3855 12.6344 27.1815 12.6914C27.1155 12.6404 27.0505 12.5904 26.9775 12.5354C23.7101 9.82711 23.2211 4.5355 26.7165 1.93321Z" fill="#8F4231"/>
<path d="M29.4659 4.59047C29.5159 5.05953 29.9589 5.39657 30.457 5.33856C30.9541 5.28055 31.3101 4.8505 31.2511 4.38345C31.1921 3.9154 30.749 3.58636 30.26 3.64237C29.7719 3.69937 29.4159 4.12142 29.4659 4.59047Z" fill="#12205C"/>
<path d="M18.6266 5.64762C20.6198 6.20568 22.643 6.70974 24.6953 7.15779C24.7733 7.2588 24.8523 7.35981 24.9313 7.46182C24.9523 7.78386 24.9733 8.10589 24.9943 8.42693C23.0261 9.051 21.0299 9.62407 19.0066 10.1431C16.5854 8.39193 18.6496 5.64762 18.6266 5.64762Z" fill="#8F4231"/>
<path d="M334.861 202.269C337.949 203.577 340.439 205.194 341.931 206.993C345.054 204.317 351.01 202.675 357.821 202.452C366.942 202.194 374.93 204.543 376.185 209.024C375.637 209.591 375.084 210.154 374.524 210.715C375.025 211.022 375.528 211.326 376.035 211.628C374.644 215.646 367.458 219.545 358.362 219.813C350.619 220.066 344.044 217.595 341.315 214.423C339.468 215.945 336.466 217.051 332.773 217.426C327.209 208.912 335.026 202.322 334.861 202.269Z" fill="#CD725E"/>
<path d="M347.762 204.028C348.537 203.785 349.354 203.57 350.205 203.38C351.051 204.518 351.501 206.011 351.185 207.46C350.821 208.848 349.841 209.74 349.48 210.793C349.074 211.829 349.284 212.958 349.863 213.891C351.198 215.983 353.171 217.788 354.837 219.733C352.86 219.585 350.996 219.266 349.302 218.806C348.452 217.412 347.919 215.857 347.969 214.277C347.999 212.97 348.196 211.744 348.393 210.551C348.59 209.373 348.506 208.097 348.377 207.184C348.286 206.146 348.147 205.132 347.762 204.028Z" fill="#B6C8E3"/>
<path d="M357.464 202.47C357.584 202.465 357.702 202.456 357.822 202.453C358.706 202.425 359.57 202.434 360.421 202.456C360.489 202.977 360.497 203.503 360.415 204.022C360.162 205.572 359.293 206.78 359.016 208.074C358.704 209.358 358.941 210.685 359.577 211.834C360.859 214.145 362.475 216.027 364.266 218.055C364.498 218.342 364.733 218.636 364.966 218.933C363.628 219.258 362.204 219.499 360.723 219.65C358.905 217.522 357.723 215.085 357.708 212.232C357.72 209.48 358.223 206.542 357.66 203.944C357.602 203.447 357.539 202.958 357.464 202.47Z" fill="#B6C8E3"/>
<path d="M365.325 204.77C362.917 209.086 363.675 213.966 366.379 217.988C366.496 218.157 366.6 218.308 366.696 218.449C366.44 218.528 366.19 218.611 365.927 218.684C365.841 218.619 365.757 218.554 365.663 218.482C361.438 214.981 360.805 208.136 365.325 204.77Z" fill="#8F4231"/>
<path d="M368.882 208.208C368.947 208.814 369.52 209.25 370.164 209.175C370.807 209.1 371.267 208.544 371.191 207.94C371.115 207.335 370.542 206.909 369.91 206.982C369.278 207.055 368.817 207.602 368.882 208.208Z" fill="#12205C"/>
<path d="M354.863 209.574C357.44 210.296 360.058 210.948 362.712 211.527C362.813 211.658 362.915 211.789 363.017 211.92C363.044 212.336 363.071 212.752 363.098 213.169C360.553 213.976 357.97 214.718 355.354 215.39C352.222 213.124 354.893 209.574 354.863 209.574Z" fill="#8F4231"/>
<path d="M248.062 231.042C244.973 232.351 242.483 233.967 240.992 235.766C237.868 233.092 231.913 231.449 225.1 231.226C215.979 230.968 207.992 233.317 206.738 237.797C207.285 238.364 207.838 238.927 208.398 239.488C207.897 239.796 207.394 240.1 206.887 240.402C208.278 244.419 215.465 248.319 224.561 248.587C232.305 248.84 238.88 246.368 241.608 243.197C243.455 244.719 246.458 245.825 250.151 246.2C255.714 237.685 247.897 231.096 248.062 231.042Z" fill="#CD725E"/>
<path d="M235.16 232.801C234.385 232.558 233.568 232.342 232.718 232.153C231.872 233.291 231.422 234.783 231.738 236.232C232.102 237.62 233.082 238.512 233.442 239.565C233.847 240.602 233.638 241.731 233.06 242.664C231.725 244.755 229.752 246.56 228.085 248.505C230.063 248.357 231.927 248.038 233.62 247.578C234.47 246.184 235.003 244.629 234.953 243.049C234.923 241.743 234.726 240.517 234.529 239.323C234.332 238.145 234.416 236.869 234.545 235.956C234.636 234.919 234.775 233.906 235.16 232.801Z" fill="#B6C8E3"/>
<path d="M225.458 231.243C225.338 231.238 225.22 231.229 225.099 231.226C224.215 231.198 223.352 231.207 222.501 231.229C222.433 231.749 222.425 232.276 222.506 232.795C222.759 234.344 223.628 235.552 223.905 236.846C224.217 238.13 223.98 239.458 223.345 240.607C222.063 242.917 220.447 244.799 218.656 246.827C218.424 247.114 218.189 247.408 217.955 247.705C219.294 248.03 220.718 248.272 222.199 248.423C224.016 246.293 225.198 243.857 225.213 241.005C225.201 238.252 224.698 235.314 225.261 232.717C225.32 232.221 225.383 231.731 225.458 231.243Z" fill="#B6C8E3"/>
<path d="M217.597 233.544C220.006 237.859 219.246 242.74 216.543 246.761C216.426 246.93 216.322 247.081 216.225 247.222C216.481 247.301 216.731 247.384 216.994 247.458C217.08 247.393 217.164 247.328 217.258 247.256C221.485 243.754 222.118 236.909 217.597 233.544Z" fill="#8F4231"/>
<path d="M214.041 236.981C213.976 237.587 213.403 238.023 212.759 237.948C212.116 237.873 211.656 237.317 211.732 236.713C211.808 236.108 212.381 235.682 213.013 235.755C213.645 235.828 214.106 236.374 214.041 236.981Z" fill="#12205C"/>
<path d="M228.061 238.347C225.483 239.069 222.866 239.722 220.212 240.301C220.111 240.432 220.009 240.563 219.907 240.694C219.88 241.11 219.853 241.526 219.826 241.943C222.371 242.75 224.953 243.491 227.569 244.163C230.701 241.897 228.03 238.347 228.061 238.347Z" fill="#8F4231"/>
<path d="M594.464 60.5909C591.793 61.7221 589.64 63.1192 588.351 64.6754C585.65 62.3621 580.501 60.943 574.611 60.7489C566.725 60.5259 559.819 62.5572 558.734 66.4306C559.208 66.9207 559.686 67.4077 560.171 67.8928C559.738 68.1578 559.303 68.4208 558.863 68.6819C560.067 72.1553 566.28 75.5266 574.144 75.7587C580.84 75.9777 586.525 73.8404 588.884 71.0981C590.481 72.4143 593.077 73.3704 596.27 73.6944C601.079 66.3346 594.321 60.6369 594.464 60.5909Z" fill="#CD725E"/>
<path d="M583.308 62.1111C582.638 61.9011 581.931 61.714 581.196 61.55C580.464 62.5341 580.076 63.8243 580.349 65.0774C580.664 66.2776 581.511 67.0487 581.822 67.9598C582.173 68.8559 581.991 69.832 581.492 70.6381C580.338 72.4463 578.632 74.0065 577.192 75.6886C578.901 75.5606 580.513 75.2846 581.977 74.8876C582.712 73.6824 583.172 72.3373 583.129 70.9711C583.103 69.842 582.933 68.7819 582.763 67.7497C582.593 66.7306 582.666 65.6275 582.777 64.8384C582.855 63.9423 582.976 63.0662 583.308 62.1111Z" fill="#B6C8E3"/>
<path d="M574.92 60.7639C574.816 60.7599 574.714 60.7519 574.61 60.7489C573.846 60.7249 573.1 60.7329 572.364 60.7519C572.305 61.202 572.298 61.657 572.369 62.1061C572.588 63.4452 573.339 64.4903 573.578 65.6085C573.848 66.7186 573.643 67.8667 573.093 68.8598C571.984 70.8571 570.588 72.4853 569.039 74.2385C568.838 74.4865 568.635 74.7405 568.433 74.9976C569.59 75.2786 570.821 75.4866 572.102 75.6176C573.673 73.7774 574.695 71.6702 574.708 69.2039C574.698 66.8236 574.262 64.2833 574.75 62.037C574.8 61.609 574.855 61.1859 574.92 60.7639Z" fill="#B6C8E3"/>
<path d="M568.122 62.7532C570.205 66.4846 569.549 70.7041 567.211 74.1815C567.11 74.3275 567.02 74.4575 566.937 74.5805C567.158 74.6495 567.375 74.7205 567.602 74.7845C567.676 74.7275 567.749 74.6715 567.83 74.6095C571.484 71.5812 572.031 65.6635 568.122 62.7532Z" fill="#8F4231"/>
<path d="M565.048 65.7255C564.992 66.2496 564.497 66.6266 563.939 66.5616C563.383 66.4966 562.985 66.0165 563.051 65.4935C563.117 64.9704 563.612 64.6014 564.159 64.6654C564.705 64.7284 565.104 65.2005 565.048 65.7255Z" fill="#12205C"/>
<path d="M577.169 66.9066C574.941 67.5307 572.678 68.0947 570.383 68.5958C570.295 68.7088 570.208 68.8218 570.12 68.9348C570.097 69.2949 570.073 69.6549 570.05 70.0149C572.25 70.713 574.483 71.3531 576.745 71.9342C579.453 69.9759 577.143 66.9066 577.169 66.9066Z" fill="#8F4231"/>
<path d="M32.9221 116.571C35.3104 117.583 37.2356 118.833 38.3887 120.224C40.804 118.156 45.4086 116.886 50.6752 116.713C57.727 116.514 63.9027 118.331 64.8728 121.794C64.4498 122.232 64.0217 122.668 63.5887 123.101C63.9757 123.338 64.3658 123.573 64.7578 123.807C63.6817 126.914 58.126 129.928 51.0932 130.135C45.1055 130.33 40.0219 128.42 37.9127 125.967C36.4845 127.145 34.1632 128 31.3079 128.289C27.0054 121.707 33.0491 116.612 32.9221 116.571Z" fill="#CD725E"/>
<path d="M42.8963 117.932C43.4953 117.744 44.1274 117.576 44.7845 117.43C45.4386 118.311 45.7866 119.464 45.5426 120.585C45.2615 121.658 44.5034 122.348 44.2254 123.162C43.9124 123.963 44.0744 124.836 44.5205 125.557C45.5526 127.175 47.0788 128.57 48.3659 130.074C46.8377 129.96 45.3955 129.713 44.0874 129.357C43.4303 128.279 43.0183 127.077 43.0563 125.854C43.0793 124.845 43.2313 123.896 43.3843 122.974C43.5363 122.063 43.4714 121.077 43.3723 120.371C43.3023 119.569 43.1943 118.786 42.8963 117.932Z" fill="#B6C8E3"/>
<path d="M50.3972 116.726C50.4902 116.722 50.5812 116.715 50.6742 116.713C51.3573 116.691 52.0254 116.698 52.6835 116.716C52.7355 117.118 52.7425 117.526 52.6794 117.928C52.4834 119.126 51.8124 120.059 51.5983 121.06C51.3573 122.053 51.5403 123.079 52.0314 123.967C53.0235 125.753 54.2716 127.209 55.6568 128.777C55.8368 128.999 56.0178 129.226 56.1988 129.456C55.1637 129.707 54.0636 129.894 52.9175 130.01C51.5123 128.364 50.5982 126.48 50.5862 124.274C50.5952 122.146 50.9842 119.874 50.5492 117.866C50.5052 117.482 50.4562 117.103 50.3972 116.726Z" fill="#B6C8E3"/>
<path d="M56.4758 118.505C54.6136 121.841 55.2006 125.614 57.2909 128.724C57.3809 128.855 57.4619 128.971 57.5359 129.081C57.3379 129.142 57.1448 129.206 56.9408 129.263C56.8748 129.212 56.8088 129.162 56.7368 129.107C53.4704 126.399 52.9804 121.108 56.4758 118.505Z" fill="#8F4231"/>
<path d="M59.2251 121.163C59.2751 121.632 59.7182 121.969 60.2163 121.911C60.7133 121.853 61.0694 121.423 61.0104 120.956C60.9514 120.488 60.5083 120.159 60.0192 120.215C59.5322 120.272 59.1751 120.694 59.2251 121.163Z" fill="#12205C"/>
<path d="M48.3859 122.219C50.3792 122.777 52.4024 123.281 54.4546 123.729C54.5326 123.83 54.6116 123.932 54.6896 124.033C54.7106 124.355 54.7316 124.677 54.7526 124.998C52.7854 125.622 50.7882 126.195 48.7649 126.714C46.3447 124.963 48.4099 122.219 48.3859 122.219Z" fill="#8F4231"/>
</svg>
