<svg width="90" height="204" viewBox="0 0 90 204" fill="none" xmlns="http://www.w3.org/2000/svg">
<g opacity="0.48">
<path d="M12.6112 163.845C19.5761 163.845 25.2224 158.199 25.2224 151.234C25.2224 144.269 19.5761 138.623 12.6112 138.623C5.64624 138.623 0 144.269 0 151.234C0 158.199 5.64624 163.845 12.6112 163.845Z" fill="url(#paint0_radial_11_69)"/>
<path d="M11.2213 153.799C14.8217 153.799 17.7404 150.88 17.7404 147.28C17.7404 143.679 14.8217 140.76 11.2213 140.76C7.62079 140.76 4.70202 143.679 4.70202 147.28C4.70202 150.88 7.62079 153.799 11.2213 153.799Z" fill="white"/>
</g>
<g opacity="0.48">
<path d="M79.6057 20.2191C85.189 20.2191 89.7153 15.6929 89.7153 10.1095C89.7153 4.52619 85.189 0 79.6057 0C74.0223 0 69.4962 4.52619 69.4962 10.1095C69.4962 15.6929 74.0223 20.2191 79.6057 20.2191Z" fill="url(#paint1_radial_11_69)"/>
<path d="M83.7184 6.9394C83.7184 9.82527 81.379 12.1658 78.4921 12.1658C75.6062 12.1658 73.2657 9.82627 73.2657 6.9394C73.2657 4.05253 75.6052 1.71302 78.4921 1.71302C81.379 1.71302 83.7184 4.05353 83.7184 6.9394Z" fill="white"/>
</g>
<g opacity="0.48">
<path d="M20.2514 73.8569C24.4531 73.8569 27.8593 70.4507 27.8593 66.2489C27.8593 62.0472 24.4531 58.641 20.2514 58.641C16.0497 58.641 12.6434 62.0472 12.6434 66.2489C12.6434 70.4507 16.0497 73.8569 20.2514 73.8569Z" fill="url(#paint2_radial_11_69)"/>
<path d="M23.3464 63.8634C23.3464 66.0359 21.5852 67.796 19.4138 67.796C17.2413 67.796 15.4812 66.0349 15.4812 63.8634C15.4812 61.692 17.2423 59.9309 19.4138 59.9309C21.5862 59.9299 23.3464 61.691 23.3464 63.8634Z" fill="white"/>
</g>
<g opacity="0.48">
<path d="M43.3311 150.27C48.5994 150.27 52.8703 145.999 52.8703 140.731C52.8703 135.463 48.5994 131.192 43.3311 131.192C38.0628 131.192 33.7919 135.463 33.7919 140.731C33.7919 145.999 38.0628 150.27 43.3311 150.27Z" fill="url(#paint3_radial_11_69)"/>
<path d="M47.2115 137.74C47.2115 140.464 45.0041 142.671 42.2804 142.671C39.5566 142.671 37.3491 140.464 37.3491 137.74C37.3491 135.016 39.5566 132.809 42.2804 132.809C45.0041 132.809 47.2115 135.016 47.2115 137.74Z" fill="white"/>
</g>
<g opacity="0.48">
<path d="M28.0354 204C32.3339 204 35.8185 200.515 35.8185 196.217C35.8185 191.919 32.3339 188.434 28.0354 188.434C23.737 188.434 20.2524 191.919 20.2524 196.217C20.2524 200.515 23.737 204 28.0354 204Z" fill="url(#paint4_radial_11_69)"/>
<path d="M31.2014 193.776C31.2014 195.999 29.4002 197.8 27.1778 197.8C24.9553 197.8 23.1542 195.999 23.1542 193.776C23.1542 191.554 24.9553 189.753 27.1778 189.753C29.4002 189.753 31.2014 191.554 31.2014 193.776Z" fill="white"/>
</g>
<defs>
<radialGradient id="paint0_radial_11_69" cx="0" cy="0" r="1" gradientUnits="userSpaceOnUse" gradientTransform="translate(9.25301 145.578) scale(20.5865 20.5864)">
<stop stop-color="#00BEE8"/>
<stop offset="0.4308" stop-color="#0093CF"/>
<stop offset="0.7935" stop-color="#0076BE"/>
<stop offset="1" stop-color="#006BB8"/>
</radialGradient>
<radialGradient id="paint1_radial_11_69" cx="0" cy="0" r="1" gradientUnits="userSpaceOnUse" gradientTransform="translate(76.9142 5.57571) scale(16.5028)">
<stop stop-color="#00BEE8"/>
<stop offset="0.4308" stop-color="#0093CF"/>
<stop offset="0.7935" stop-color="#0076BE"/>
<stop offset="1" stop-color="#006BB8"/>
</radialGradient>
<radialGradient id="paint2_radial_11_69" cx="0" cy="0" r="1" gradientUnits="userSpaceOnUse" gradientTransform="translate(18.2261 62.8369) scale(12.4191 12.4191)">
<stop stop-color="#00BEE8"/>
<stop offset="0.4308" stop-color="#0093CF"/>
<stop offset="0.7935" stop-color="#0076BE"/>
<stop offset="1" stop-color="#006BB8"/>
</radialGradient>
<radialGradient id="paint3_radial_11_69" cx="0" cy="0" r="1" gradientUnits="userSpaceOnUse" gradientTransform="translate(40.7914 136.453) scale(15.5714 15.5714)">
<stop stop-color="#00BEE8"/>
<stop offset="0.4308" stop-color="#0093CF"/>
<stop offset="0.7935" stop-color="#0076BE"/>
<stop offset="1" stop-color="#006BB8"/>
</radialGradient>
<radialGradient id="paint4_radial_11_69" cx="0" cy="0" r="1" gradientUnits="userSpaceOnUse" gradientTransform="translate(25.9629 192.727) scale(12.7058 12.7057)">
<stop stop-color="#00BEE8"/>
<stop offset="0.4308" stop-color="#0093CF"/>
<stop offset="0.7935" stop-color="#0076BE"/>
<stop offset="1" stop-color="#006BB8"/>
</radialGradient>
</defs>
</svg>
