<svg width="2282" height="10172" viewBox="0 0 2282 10172" fill="none" xmlns="http://www.w3.org/2000/svg">
<path d="M1710.97 3397.25C1715.76 3338.61 1675.45 2890.92 1642.46 3164.66L1573.96 3733.29C1628.93 3702 1617.37 3733.86 1619.63 3733.29C1644.72 3727.66 1655.15 3695.52 1688.13 3707.36C1690.39 3702.28 1687.29 3690.72 1688.13 3681.42L1710.97 3396.96V3397.25ZM1654.02 3319.72C1681.37 3435.31 1701.38 3577.68 1631.19 3681.7L1654.02 3319.72Z" fill="#5293AA"/>
<path d="M0.285019 9989.04C317.162 10016.1 283.896 9877.4 0.285019 9885.57V9989.04Z" fill="#4E5FAD"/>
<path d="M0.28125 9420.13V9704.59C414.421 9917.43 372.415 9489.2 0.28125 9420.13Z" fill="#4E5FAD"/>
<path d="M547.772 8334.46L524.937 8502.49C520.708 8534.35 568.634 8480.5 570.607 8489.52C610.358 8369.99 591.751 8399.59 547.772 8334.46Z" fill="#5877AB"/>
<path d="M479.264 8205.35C460.093 8183.64 -23.6802 7947.39 45.9539 8063.26C184.658 8102.16 462.349 8207.88 547.77 8334.74C549.462 8321.49 549.462 8284.85 547.77 8283.16L479.264 8205.63V8205.35Z" fill="#627DAF"/>
<path d="M479.268 6861.16L410.762 6822.26L570.328 6537.8L456.151 6679.89C351.277 6810.7 206.088 6910.22 136.736 7080.5L170.848 7119.4L330.414 6886.82L239.073 7145.34L478.704 6860.88L479.268 6861.16Z" fill="#3D5993"/>
<path d="M228.356 6395.72C222.154 6388.67 89.088 6506.51 125.738 6550.78C134.195 6553.03 240.761 6432.65 228.356 6395.72Z" fill="#435993"/>
<path d="M456.426 6680.17C365.648 6610.26 500.124 6196.12 479.262 6202.04L433.591 6215.01C400.324 6478.6 429.362 6529.91 262.466 6706.11C260.21 6708.36 216.795 6649.16 205.518 6693.14L148.57 6912.75C45.9518 6743.04 414.139 6359.63 365.367 6227.69C299.115 6048.68 208.619 6378.8 228.635 6395.72L274.307 6434.62C292.35 6449.84 18.8876 6909.09 0.562805 6628.58V9420.41C372.696 9489.48 414.702 9917.71 0.562805 9704.86V9885.85C284.174 9877.68 317.44 10016.4 0.562805 9989.32V10015.3C102.336 9921.09 500.688 10174 513.656 10144.4L536.491 10092.8C544.103 10075.3 537.055 10185 639.11 10170.3L684.781 10053.9C412.447 10015 443.74 10078.1 365.367 9782.39C351.834 9731.08 279.945 9525.85 308.419 9497.94L342.531 9523.87C238.503 9286.78 444.868 9364.87 536.491 9265.35C650.105 9141.87 733.271 8701.24 456.708 8735.35C539.592 8540.83 625.578 8734.78 570.886 8489.8C568.912 8480.78 520.986 8534.63 525.215 8502.77L548.05 8334.74C462.629 8207.88 184.938 8102.44 46.2336 8063.26C-23.4005 7947.39 460.373 8183.64 479.544 8205.35C706.207 8046.06 329.563 7927.37 548.05 7714.24C523.523 7703.25 210.875 7309.69 228.635 7287.7L502.379 6951.66C509.145 6943.2 496.177 6896.68 502.379 6887.1C506.044 6858.06 487.438 6865.67 479.544 6861.16L239.913 7145.62L331.254 6887.1L171.688 7119.68L137.576 7080.78C206.928 6910.5 352.116 6810.98 456.99 6680.17H456.426Z" fill="#435993"/>
<path d="M45.9537 6292.54C75.5552 6411.51 35.8048 6752.06 182.685 6357.09C186.914 6345.82 251.191 6102.52 182.685 6111.55L45.9537 6292.54Z" fill="#435993"/>
<path d="M0.283264 4767.37V5878.97C147.163 6170.75 113.615 5606.63 194.243 5904.9C294.607 5593.1 249.218 6024.15 182.967 6111.83C251.473 6102.81 187.196 6346.1 182.967 6357.38C35.805 6752.34 75.5555 6411.79 46.2358 6292.82C45.3901 6289.44 11.278 6243.77 0.565033 6241.23V6628.86C18.8898 6909.65 292.352 6450.41 274.309 6434.91L228.638 6396C241.042 6432.93 134.477 6553.59 126.019 6551.06C89.3695 6506.79 222.435 6388.95 228.638 6396C208.903 6379.09 299.118 6048.96 365.369 6227.98C414.141 6359.92 45.954 6743.33 148.573 6913.04L205.521 6693.42C217.079 6649.16 260.495 6708.65 262.468 6706.39C429.364 6530.19 400.327 6478.89 433.593 6215.29C362.831 6235.31 463.759 5741.67 456.429 5711.23L365.087 5336.27C360.012 5315.13 130.53 5165.15 137.014 5013.2C137.296 5003.89 208.058 4940.18 205.521 4935.67C197.627 4922.14 39.4701 4833.05 0.283264 4767.65V4767.37Z" fill="#415694"/>
<path d="M1779.48 3914.29L1551.4 4043.4L1482.9 4082.31V4508.85C1535.9 4464.02 1535.9 4118.68 1551.4 4108.24L1802.31 3940.22L1779.48 3914.29Z" fill="#4B88A0"/>
<path d="M1665.3 3759.23L1437.23 3991.81C1473.88 4082.87 1443.15 4002.8 1482.9 4017.75L1756.64 3836.76L1631.19 3888.35C1609.76 3878.76 1658.25 3775.02 1665.3 3759.23Z" fill="#4E8DA4"/>
<path d="M1482.89 3578.24V3785.16L1528.57 3759.23C1523.77 3691.85 1552.81 3602.77 1482.89 3578.24Z" fill="#5294AC"/>
<path d="M1391.56 3448.84V3862.41H1414.39C1438.07 3752.46 1495.02 3526.93 1391.56 3448.84Z" fill="#5294AC"/>
<path d="M1505.73 3319.72L1437.23 3371.31C1401.99 3397.81 1391.56 3393.02 1391.56 3448.84C1495.02 3526.93 1438.07 3752.46 1414.39 3862.41C1498.12 3862.41 1478.39 3787.42 1482.9 3784.88V3577.95C1482.9 3493.94 1449.91 3382.86 1505.73 3319.43V3319.72Z" fill="#5293AA"/>
<path d="M2030.4 3293.78L1916.23 3578.23C2045.35 3704.82 1878.17 3858.46 1779.5 3914.28L1802.33 3940.22C2068.75 3761.76 1926.94 3548.91 2281.31 3630.11C2261.86 3611.5 2007.85 3555.68 2007.57 3539.61C2007.29 3523.54 2116.11 3376.1 2030.4 3294.06V3293.78Z" fill="#589CB1"/>
<path d="M753.008 4586.37C721.715 4488.83 569.478 3977.71 547.77 3953.19L251.191 3617.14C173.099 3528.62 330.129 2994.1 0.282959 3087.13V3991.81C259.367 3988.14 150.546 4269.78 182.685 4418.35C214.824 4566.92 448.817 4626.97 228.356 4909.45C347.044 5008.68 499.562 4985 638.83 5051.54C641.086 5052.66 642.495 4997.69 684.501 5038.57C835.328 5185.17 684.219 5495.27 1049.3 5155L901.015 5103.41C862.11 5089.88 920.749 4990.92 912.292 4986.97L798.114 4935.39C783.173 4928.62 777.816 4665.87 752.444 4586.37H753.008Z" fill="#4E5FAD"/>
<path d="M1482.9 3138.73C1496.15 3068.25 1575.37 2988.46 1505.73 2919.11L1254.83 3474.77C1224.94 3540.74 1199.85 3608.97 1186.32 3681.7L1323.05 3888.63C1322.49 3795.88 1242.42 3336.92 1391.56 3449.12C1391.56 3393.3 1401.99 3398.09 1437.23 3371.59C1336.02 3290.96 1429.62 3206.67 1482.9 3139.01V3138.73Z" fill="#5294AC"/>
<path d="M1482.9 3138.73L1448.79 3319.72C1547.74 3126.04 1666.99 3023.14 1562.96 2776.75C1491.07 2814.24 1613.14 2972.68 1574.24 3022.3L1482.9 3138.73Z" fill="#5396AE"/>
<path d="M2052.95 3035.26C2063.39 2999.74 2104.55 2882.75 2052.95 2867.24C2006.44 2938.85 1867.45 3526.36 1836.16 3526.36C1716.62 3428.82 2034.07 2838.48 2007.28 2815.37L1961.61 2776.46C1935.96 2928.98 1857.87 3065.99 1824.88 3215.97L1802.05 3319.43C1794.15 3355.24 1779.77 3343.4 1779.21 3345.37C1742.28 3497.33 1815.3 3570.34 1687.87 3681.42C1687.02 3690.72 1690.12 3702.28 1687.87 3707.35L1665.03 3758.95C1657.99 3775.02 1609.5 3878.76 1630.92 3888.06L1756.38 3836.47C1826.57 3789.96 1868.86 3660.84 1893.11 3577.95L2052.67 3034.98L2052.95 3035.26Z" fill="#589CB1"/>
<path d="M1916.2 2647.63L1836.42 2828.62L1802.31 2660.6C1679.11 2686.25 1803.72 2855.12 1802.31 2867.53C1798.64 2902.77 1740.57 3297.45 1733.8 3320L1779.47 3345.94C1780.04 3344.25 1794.42 3355.8 1802.31 3320C1739.44 3301.11 1750.72 3181.02 1756.64 3113.07C1776.37 2886.7 1935.94 2856.25 1916.2 2647.91V2647.63Z" fill="#5C9FB3"/>
<path d="M1003.92 2544.16C972.347 2517.1 943.027 2731.36 958.251 2751.09L1003.92 2647.63V2544.16Z" fill="#4F91A9"/>
<path d="M91.3427 2492.58L0.000732422 2570.1V3087.14C329.846 2994.11 172.818 3528.62 250.909 3617.14L547.488 3953.19C569.196 3977.72 721.432 4489.11 752.725 4586.38C717.204 4517.59 906.372 4232.85 923.851 4224.4C943.303 4215.09 1048.18 4313.76 1049.3 4198.46L650.107 3681.42C640.803 3669.3 527.472 3709.9 501.817 3642.52C556.228 3468.86 442.896 3509.17 570.324 3306.47C306.447 3360.04 527.19 2880.49 501.817 2815.37C490.822 2786.9 365.086 2753.63 365.086 2647.35C208.903 2763.78 164.36 2757.58 250.909 2543.89L79.7839 2724.88L113.896 2492.29C105.721 2493.99 94.726 2489.19 91.061 2492.29L91.3427 2492.58Z" fill="#4772B0"/>
<path d="M205.524 2156.53C101.214 2014.44 162.672 2123.54 137.017 2156.53C248.094 2306.79 91.3467 2262.81 91.3467 2272.96V2492.58C95.0116 2489.47 106.006 2494.27 114.182 2492.58L250.913 2466.64C232.588 2435.63 250.349 2329.63 307.861 2363.18C350.712 2387.98 314.909 2454.52 250.913 2466.64L296.584 2544.16C299.403 2548.96 365.09 2533.45 365.09 2557.14V2647.63C365.09 2753.91 490.826 2787.18 501.821 2815.65C527.194 2881.06 306.451 3360.32 570.328 3306.75C442.9 3509.45 556.514 3469.14 501.821 3642.8C527.476 3710.18 640.807 3669.58 650.111 3681.7L1049.31 4198.74C1130.78 4304.18 1099.21 4333.22 1208.88 4224.68L912.296 3772.2C899.327 3752.75 1003.64 3539.33 1003.64 3423.18V3319.72C1003.64 3257.7 433.315 2596.04 433.315 2285.65C259.089 2241.95 303.068 2289.59 205.242 2156.53H205.524Z" fill="#4878B5"/>
<path d="M137.015 2156.53L57.2322 2259.99C-44.5407 2182.75 166.335 2092.53 0.28479 2053.07V2570.1L91.6264 2492.57V2272.96C91.6264 2262.81 248.374 2306.79 137.298 2156.53H137.015Z" fill="#4E7DB7"/>
<path d="M433.594 2182.18C390.178 1916.62 356.912 2205.59 205.521 2156.25C303.347 2289.6 259.368 2241.95 433.594 2285.37V2181.9V2182.18Z" fill="#4E7DB7"/>
<path d="M707.336 2208.12C668.995 2369.1 603.59 1936.92 513.376 1923.67L615.994 2233.78C698.315 2482.43 790.784 2737.84 912.573 2983.39C910.6 2982.27 913.701 2966.2 912.573 2957.46L775.842 2569.82C769.358 2551.78 727.916 2211.22 730.172 2182.18C707.618 2179.08 711.283 2192.05 707.336 2208.12Z" fill="#4F91A9"/>
<path d="M1391.56 1820.48C1412.99 1915.77 1371.26 1939.17 1345.89 2001.47L1368.72 2027.41C1387.89 1965.39 1477.55 1907.6 1391.56 1820.48Z" fill="#5DA5B7"/>
<path d="M1391.56 1820.48C1395.22 1711.38 1347.86 1829.22 1323.05 1820.48C1295.14 1878.84 1257.08 1996.96 1186.32 2001.47L1231.99 2053.07L1391.56 1820.48Z" fill="#65A9BC"/>
<path d="M730.172 2182.18L753.008 1910.7C749.907 1884.48 685.911 1703.21 638.83 1703.77C668.432 1731.12 772.742 2127.78 695.778 2078.72C564.686 1591.57 603.59 2047.99 707.055 2207.84C711.002 2191.77 707.055 2178.8 729.89 2181.9L730.172 2182.18Z" fill="#5B9FB6"/>
<path d="M935.416 2156.53C848.866 1932.68 831.106 1703.2 730.178 1523.34L866.909 2066.31C885.798 2141.58 831.105 2281.7 844.074 2389.39L912.58 2958.02C913.708 2966.76 910.607 2982.83 912.58 2983.96L1003.92 3035.54V2647.91L958.251 2751.37C910.889 2808.04 829.696 2168.37 935.416 2156.81V2156.53Z" fill="#5294AA"/>
<path d="M205.521 1561.96C164.361 1488.38 96.1362 1394.79 68.79 1316.42C41.4439 1238.04 163.233 1153.18 0.283844 1174.33V2053.35C166.334 2092.82 -44.5416 2183.03 57.2313 2260.27L137.014 2156.81C162.669 2123.82 101.211 2014.72 205.521 2156.81C356.912 2205.86 390.178 1916.9 433.594 2182.75V2105.22C433.594 2060.39 419.498 1996.96 410.758 1950.16L376.646 1769.17C392.997 1919.43 292.07 2041.5 205.521 1885.6C136.169 1760.72 210.032 1637.52 205.521 1562.53V1561.96Z" fill="#5587BD"/>
<path d="M866.906 1251.86V1161.36C818.416 1124.72 826.874 1162.49 821.235 1200.27V1419.88L866.906 1251.86Z" fill="#6AABBF"/>
<path d="M1140.65 1251.86L1015.2 2027.41C868.034 1799.34 1107.1 1592.13 1072.14 1342.35L980.802 1135.43C1042.54 1334.18 1047.05 1558.87 946.689 1742.96C869.443 1746.62 903.838 1486.13 912.577 1432.85C908.63 1430.31 925.827 1282.59 889.741 1368.29C731.303 1823.87 1170.82 2101.56 1117.81 2531.48C974.6 2534.3 1097.8 2351.34 1072.14 2298.9C1051.56 2256.05 1016.61 2367.69 1015.2 2363.46L935.413 2156.53C946.971 2171.19 1003.92 2494.83 1003.92 2544.17L1095.26 2621.69C1134.45 2655.24 1100.34 2683.43 1140.93 2699.22C1140.93 2584.2 1123.73 2451.13 1186.6 2350.21C1213.67 2623.1 1239.89 2913.76 1118.1 3164.38C1204.36 3286.74 1138.96 3381.18 1026.75 3319.44H1003.92V3422.9L1072.43 3616.86C1089.9 3666.2 1165.74 3650.13 1186.6 3681.42C1200.14 3608.69 1225.23 3540.74 1255.11 3474.49C1086.24 3314.36 1464.01 2715.85 1437.51 2685.97L1391.84 2634.38C1381.13 2622.26 1633.16 2297.77 1403.12 2492.29C1361.96 2452.26 1493.33 1956.37 1551.41 1884.76C1522.09 1815.13 1440.89 2030.52 1437.23 2039.82C1397.48 2148.08 1415.8 2364.59 1277.66 2388.83C1277.66 2426.89 1423.13 2397.29 1277.66 2530.92L1391.84 2556.85C1392.69 2570.67 1291.48 2797.89 1255.11 2789.44C1283.02 2624.8 1198.16 2419.84 1277.94 2285.37C1277.94 2156.53 1345.32 2103.53 1369.29 2026.85L1346.45 2000.91L1221 2311.02C1206.05 2278.04 1225.51 2062.65 1232.27 2052.5L1186.6 2000.91C1051.56 1847.83 1384.79 1451.46 1391.84 1341.79C1398.89 1232.13 1316 1438.21 1289.22 1432.29C1228.05 1419.04 1300.5 1343.2 1232.27 1277.23C1188.86 1355.32 1228.61 1507.56 1209.44 1561.68L1140.93 1755.64C1106.82 1852.06 1220.15 2224.75 1140.93 2195.15C981.365 1929.59 1140.93 1638.65 1140.93 1329.1V1251.58L1140.65 1251.86Z" fill="#579DB4"/>
<path d="M1323.05 1820.48C1386.2 1688.54 1444.55 1534.34 1448.5 1380.97C1428.77 1375.33 1281.89 1806.1 1323.05 1820.48Z" fill="#65A9BC"/>
<path d="M479.266 889.875C415.552 987.418 349.019 1213.23 479.266 1044.93V889.875Z" fill="#569BB2"/>
<path d="M342.252 708.883C307.858 834.054 403.147 946.26 273.746 1070.87C229.484 1113.44 199.601 1034.78 205.239 1057.9L228.075 1148.39C256.549 1261.44 263.878 1369.7 239.351 1484.44L205.239 1174.33H182.404L205.239 1561.96C209.75 1637.24 135.887 1760.15 205.239 1885.04C291.788 2040.94 392.716 1919.16 376.364 1768.61L410.476 1949.6C384.54 1798.78 445.153 1689.96 501.818 1561.96C462.632 1745.49 107.977 1719.28 467.706 1510.38C504.356 1503.61 508.584 1530.95 501.818 1561.96L547.489 1458.5L570.325 1225.92C574.836 1269.34 406.811 1606.22 365.087 1497.4C378.337 1481.9 454.456 1341.51 422.035 1329.38C319.698 1403.81 328.156 1536.59 262.469 1639.49C213.697 1454.55 436.695 1306.55 399.2 1122.46C278.256 1341.51 293.48 1134.86 365.087 993.34V734.82L342.252 708.883Z" fill="#569BB2"/>
<path d="M456.434 812.347L490.547 579.766C453.052 599.218 352.406 671.951 342.257 708.883L365.092 734.82C381.162 752.863 398.359 652.218 410.764 695.915C400.615 765.549 444.594 901.715 365.092 889.875V993.34L456.434 812.347Z" fill="#74B1C5"/>
<path d="M365.086 2647.63V2557.13C365.086 2533.73 299.399 2548.95 296.58 2544.16C282.202 2546.13 254.292 2540.78 250.909 2544.16C164.078 2757.85 208.621 2764.06 365.086 2647.63Z" fill="#5684BA"/>
<path d="M638.835 5051.54C499.567 4985.01 347.048 5008.69 228.36 4909.45C448.821 4626.97 214.546 4565.51 182.689 4418.35C150.833 4271.19 259.371 3988.15 0.287598 3991.81V4767.37C39.4744 4832.77 197.631 4921.86 205.525 4935.39C208.344 4939.9 137.582 5003.61 137.018 5012.92C130.534 5165.15 360.016 5315.13 365.091 5335.99C372.139 5304.98 433.034 5185.73 467.71 5206.88C374.677 5426.77 617.409 5477.52 729.895 5413.8C786.842 5270.31 708.751 5167.13 638.553 5051.82L638.835 5051.54Z" fill="#4E5FAD"/>
<path d="M182.689 6111.54C248.94 6023.87 294.611 5593.1 193.966 5904.62C113.337 5606.35 147.167 6170.75 0.00531006 5878.68V6240.66C10.7182 6243.2 44.8308 6288.87 45.6765 6292.25L182.407 6111.26L182.689 6111.54Z" fill="#4E5FAD"/>
<path d="M0.280685 269.372C82.6011 120.52 108.82 -193.256 0.280685 165.907V269.372Z" fill="#91ACDF"/>
<path d="M1140.64 2699.22C1100.05 2683.43 1134.44 2654.96 1094.97 2621.69L1072.14 3048.23L1038.03 2647.63L1003.91 3035.27L912.572 2983.68C968.392 3096.16 1049.87 3184.68 1026.75 3319.72C1138.95 3381.46 1204.36 3287.02 1118.09 3164.66L1072.42 3100.11C1068.75 3095.03 1140.93 3021.73 1140.93 2996.64V2699.5L1140.64 2699.22Z" fill="#4F91A9"/>
<path d="M1003.91 3423.18C1003.91 3539.33 899.885 3752.46 912.572 3772.2L1209.15 4224.68C1214.23 4232.29 1341.93 4294.87 1368.72 4276.27C1312.9 4149.97 1355.47 4069.34 1414.39 3966.16C1448.22 3906.67 1590.02 3819.28 1619.62 3733.57C1617.37 3734.14 1629.21 3702.28 1573.95 3733.57L1528.28 3759.51L1482.61 3785.45C1478.38 3787.98 1497.84 3862.97 1414.11 3862.97H1391.27C1387.61 3862.97 1352.08 3965.03 1322.76 3888.91L1186.03 3681.99C1165.17 3650.69 1089.33 3666.48 1071.86 3617.43L1003.35 3423.47L1003.91 3423.18Z" fill="#4D88A2"/>
<path d="M137.012 165.91L0.281677 501.957V682.949C122.071 812.913 174.508 1031.68 182.684 1174.05H205.519L228.354 1148.11L205.519 1057.61C199.599 1034.5 229.764 1113.15 274.025 1070.59C258.238 869.86 272.052 688.303 365.367 514.924L160.13 825.033C130.528 719.596 405.682 350.284 182.965 437.397C208.902 484.477 157.029 762.731 91.6233 695.916C69.6336 631.357 53.5642 498.009 68.7879 437.397L137.295 165.91H137.012Z" fill="#7A9CC5"/>
<path d="M251.196 2466.63C315.191 2454.51 350.995 2388.26 308.143 2363.17C250.632 2329.62 232.871 2435.62 251.196 2466.63Z" fill="#4772B0"/>
<path d="M1676.57 2621.69C1657.69 2737.84 1657.69 2867.53 1676.57 2983.68C1739.72 2877.11 1676.57 2739.25 1676.57 2621.69Z" fill="#5598AE"/>
<path d="M251.195 2466.64L114.464 2492.57L80.3524 2725.16L251.477 2544.16C254.86 2540.78 282.771 2546.14 297.148 2544.16L251.477 2466.64H251.195Z" fill="#4E7DB7"/>
</svg>
