<svg width="951" height="7304" viewBox="0 0 951 7304" fill="none" xmlns="http://www.w3.org/2000/svg">
<path d="M950.546 6295.44C836.087 6237.36 685.824 6327.58 562.907 6347.03C542.327 6416.66 630.568 6637.12 677.084 6683.07L768.426 6773.57C788.724 6793.59 858.077 7249.17 950.828 7303.58V6295.44H950.546Z" fill="#4E5FAD"/>
<path d="M950.547 4718.68C846.801 4836.52 961.542 5106.59 813.816 5183.84C818.327 5308.73 754.613 5368.21 745.31 5442.36C712.043 5707.92 693.718 6050.17 585.743 6269.5L562.908 6347.03C685.825 6327.58 836.37 6237.37 950.547 6295.44V4718.68Z" fill="#4E5FAD"/>
<path d="M904.877 4537.69C759.688 4663.7 822.838 4849.49 733.752 4537.69L710.916 4744.61L642.41 4512.03C620.702 4562.78 636.207 4699.79 653.686 4744.61L699.357 4861.05C467.056 4669.34 806.205 4983.4 813.535 5184.12C961.26 5106.88 846.519 4836.52 950.266 4718.96V4563.9C940.962 4561.08 905.722 4540.79 904.595 4537.97L904.877 4537.69Z" fill="#6E8BBC"/>
<path d="M562.906 4667.09L517.235 4395.6C489.043 4351.34 491.863 4497.66 494.4 4512.03C511.033 4600.27 513.007 4598.58 562.906 4667.09Z" fill="#5893AB"/>
<path d="M140.871 3038.45C137.77 3209.29 217.271 3379.57 277.602 3529.55C265.197 3351.94 188.515 3205.06 140.871 3038.45Z" fill="#608EBF"/>
<path d="M790.977 3245.38C790.977 3194.35 846.516 3060.44 802.254 2986.86L768.142 3219.44C775.472 3211.27 795.77 3227.9 790.977 3245.38Z" fill="#7A9CC5"/>
<path d="M608.297 2857.46L585.461 2909.05C645.228 3196.32 794.645 3405.22 767.863 3684.6L950.547 4356.69V3788.06C815.226 4005.14 790.981 3411.71 790.981 3296.97V3245.37C795.773 3227.89 775.475 3211.26 768.145 3219.44C764.48 3223.38 777.448 3305.42 722.474 3258.34V2922.3L711.197 3193.78C681.032 3128.66 602.095 2916.94 608.579 2857.74L608.297 2857.46Z" fill="#5C97AC"/>
<path d="M448.726 2547.35H425.891C438.295 2667.73 464.796 2964.03 334.549 2779.93C704.427 3408.61 350.336 3016.18 174.982 2728.34C129.875 2830.39 490.732 3190.4 562.622 3322.9L745.023 3658.95L448.444 2870.43C442.806 2855.49 514.131 2627.98 448.444 2547.35H448.726Z" fill="#5C97AC"/>
<path d="M289.161 2495.76C303.539 2584.28 322.146 2655.89 368.944 2728.34C407.003 2716.78 311.151 2470.67 289.161 2495.76Z" fill="#74A0C8"/>
<path d="M950.547 2573.28L676.803 2444.17C700.202 2482.79 694.564 2616.7 699.639 2625.16L745.31 2702.68L950.547 2805.87V2573.28Z" fill="#4E5FAD"/>
<path d="M494.396 2418.23L425.89 2379.32C634.228 2578.08 537.812 2679.85 585.456 2909.33L608.292 2857.74L631.127 2650.81C637.611 2591.04 522.588 2434.3 494.396 2418.23Z" fill="#729DC7"/>
<path d="M950.547 2211.3L745.31 2275.86L950.547 2392.3V2211.3Z" fill="#4E5FAD"/>
<path d="M950.547 2159.71C875.274 2147.31 811.843 2180.29 745.31 2211.3C673.702 2244.85 606.041 2344.93 494.401 2288.83L540.072 2366.36C544.301 2373.69 658.478 2435.15 676.803 2443.89L950.547 2573.28V2392.3L745.31 2275.86L950.547 2211.3V2159.71Z" fill="#475291"/>
<path d="M425.89 2133.78C413.486 2268.25 463.103 2235.83 494.396 2288.83C606.037 2344.93 673.697 2244.85 745.305 2211.3L425.89 2133.78Z" fill="#4E5FAD"/>
<path d="M448.727 2547.35L311.996 2379.33C301.001 2366.08 300.437 1876.95 266.325 2107.84C245.181 2238.93 301.565 2593.02 243.489 2262.89C238.415 2234.14 165.68 1935.87 129.312 2068.94C212.76 2229.35 228.266 2461.93 231.931 2650.53C157.504 2618.11 164.27 2382.71 152.147 2379.04L106.476 2366.08C110.705 2380.17 146.509 2536.92 106.476 2508.16L15.1346 2211.02C-48.5792 2349.44 103.657 2604.3 197.536 2676.19C204.021 2681.26 271.117 2698.46 288.878 2702.12C251.101 2637.85 268.298 2564.83 288.878 2495.19C294.517 2476.59 278.729 2419.08 300.155 2417.67L425.609 2546.79H448.445L448.727 2547.35Z" fill="#74A0C8"/>
<path d="M585.462 1797.73C589.973 1978.16 827.631 2010.3 950.266 1978.72V1927.13C796.901 1979.85 695.692 1923.18 585.462 1798.01V1797.73Z" fill="#3D5599"/>
<path d="M562.908 1771.79C589.69 1872.16 454.651 1827.05 448.73 1888.22L425.895 2133.77L745.31 2211.3C811.843 2180.01 875.274 2147.03 950.547 2159.71V1978.72C827.912 2010.29 590.254 1978.15 585.743 1797.73L562.908 1771.79Z" fill="#506EA8"/>
<path d="M950.547 1332.28L425.895 1280.7V1461.69C425.895 1479.17 551.067 1758.55 562.626 1771.8L585.461 1797.73C695.974 1922.9 797.183 1979.85 950.265 1926.85V1332.28H950.547Z" fill="#506EA8"/>
<path d="M950.547 246.618C829.322 147.947 761.943 208.842 631.132 195.028L585.461 272.555C679.622 370.099 829.885 440.861 950.265 376.02V246.9L950.547 246.618Z" fill="#7A9CC5"/>
<path d="M950.547 712.066H517.237L357.67 1048.11L426.177 1410.09V1280.98C426.177 1250.25 416.592 1169.62 437.454 1151.86C580.387 1281.82 781.395 1202.04 950.547 1255.32V712.349L950.547 712.066Z" fill="#657FB9"/>
<path d="M950.547 14.0381C775.475 -57.287 804.513 164.865 950.547 195.03V14.0381Z" fill="#7A9CC5"/>
<path d="M950.547 2805.86L745.31 2702.4C764.198 2734.54 930.249 3142.48 927.711 3167.57H950.547V2805.58V2805.86Z" fill="#4E5D98"/>
<path d="M950.547 4434.5C777.166 4364.59 785.342 3926.77 768.145 3904.5L608.579 3697.57C601.813 3688.83 581.796 3497.69 585.743 3464.99L540.072 3607.08L312 3568.17C505.96 3706.59 747.565 3746.06 722.474 4072.24L904.876 4537.4C906.004 4539.94 940.962 4560.24 950.547 4563.34V4434.22V4434.5Z" fill="#5C8ABF"/>
<path d="M585.462 272.556C583.207 276.502 518.083 270.581 516.956 324.145V350.083C649.176 335.423 797.465 451.008 950.266 479.2V375.738C829.886 440.579 679.341 369.817 585.462 272.273V272.556Z" fill="#4E5FAD"/>
<path d="M950.547 660.191L517.237 686.129C517.237 694.868 519.21 707.834 517.237 712.063H950.547V660.474V660.191Z" fill="#445A98"/>
<path d="M950.547 479.483C797.747 451.009 649.457 335.424 517.237 350.366V686.413L950.547 660.193V479.201V479.483Z" fill="#7A9CC5"/>
<path d="M106.477 2366.36L60.8057 2211.3C54.3215 2252.75 67.0079 2355.08 106.477 2366.36Z" fill="#74A0C8"/>
<path d="M950.547 1254.75C781.113 1201.75 580.105 1281.26 437.454 1151.29C416.592 1169.05 426.177 1249.96 426.177 1280.41L950.547 1332.28V1254.75Z" fill="#3A4C8D"/>
</svg>
