<?xml version="1.0" encoding="UTF-8"?>
<svg id="Layer_2" data-name="Layer 2" xmlns="http://www.w3.org/2000/svg" viewBox="0 0 946.19 8721.93">
  <defs>
    <style>
      .cls-1 {
        fill: #545b97;
      }

      .cls-2 {
        fill: #6373a1;
      }

      .cls-3 {
        fill: #7580ab;
      }

      .cls-4 {
        fill: #3c3c73;
      }

      .cls-5 {
        fill: #414582;
      }

      .cls-6 {
        fill: #45557f;
      }

      .cls-7 {
        fill: #1a2649;
      }

      .cls-8 {
        fill: #5b8798;
      }

      .cls-9 {
        fill: #5d6092;
      }

      .cls-10 {
        fill: #788aac;
      }

      .cls-11 {
        fill: #506d8d;
      }

      .cls-12 {
        fill: #4d618e;
      }

      .cls-13 {
        fill: #4a497e;
      }

      .cls-14 {
        fill: #3d4b79;
      }

      .cls-15 {
        fill: #505497;
      }

      .cls-16 {
        fill: #4b528b;
      }

      .cls-17 {
        fill: #76748e;
      }

      .cls-18 {
        fill: #384371;
      }
    </style>
  </defs>
  <g id="Layer_1-2" data-name="Layer 1">
    <g>
      <path class="cls-5" d="M224.66,0c-1.3,5.92,2.42,10.78,11.16,14.59,29.31,18.49,57.68,39.8,86.92,55.86,63.82,35,128.13,69.04,192.93,102.11,42.69,21.78,95.06,51.83,143.59,75.43,2.57,1.25,3.64,4.35,2.4,6.92-.47.98-1.24,1.78-2.19,2.29-25.48,13.85-52.84,20.97-80.74,40.07-1.73,1.18-2.26,3.47-1.21,5.24l5.92,10.02c-34.28-21.71-63.59-50.96-95.39-76.1-60.5-47.95-120.91-96.02-181.24-144.2-7.08-5.65-17.14-9.46-30.18-11.43-14.74-14.25-29.35-29.18-43.83-44.77-2.11-2.29-4.21-1.34-6.32,2.82-5.51-12.46-6.12-25.41-1.82-38.86Z"/>
      <path class="cls-1" d="M714.32,181.17l5.58,1.48c-18.08,16.67-39.33,41.01-29.44,66.22-4.12,3.18-5.38,6.07-3.76,8.67,2.2,3.63,5.15,6.45,8.87,8.47,56.47,30.65,92.5,53.91,146.28,82.69,34.02,18.15,67.76,43.23,104.2,59.56v726.42l-113.95-.2c-3.94,0-7.12,3.2-7.11,7.14,0,.29.02.58.05.86l3.97,32.13,15.39,103.06c1,6.46,5.34,11.93,11.43,14.39l90.21,36.43v57.01l-98.95-57.41c-.89-.49-1.82-.85-2.76-1.08-12.68-2.91-27.05-7.89-43.09-14.92-5.42-2.35-11.7.11-14.04,5.49-.05.12-.1.24-.15.36l-7.73,19.76c-1.73,4.37-5.01,7.94-9.21,10.02l-151.12,74.62c-2.47,1.2-3.49,4.18-2.29,6.65.46.95,1.22,1.73,2.15,2.22,69.06,35.99,137.25,69.98,204.56,101.98,9.46,4.48,20.77,5.15,33.95,2.02,25.32-5.96,51.79-13.11,79.39-21.44,2.04-.61,3.8-1.92,4.97-3.7,2.38-3.59,3.81-8.02,4.3-13.31v137.74c-24.25-9.37-49.48-17.3-75.69-23.8-22.72-5.65-39.53-12.84-60.43-22.65-100.39-47.15-154.73-72.36-163.02-75.63-19.76-7.84-32.83-13.13-39.19-15.86-24.13-10.42-58.35-18.08-87.12-29.71,24.07-27.52,48.15-54.94,72.27-82.28,17.75-20.17,11.76-45.71,45.71-50.42,39.08-5.47,82.95-14.97,131.62-28.5,5.97-1.66,10.09-7.08,10.08-13.24.04-69.51-2.2-142.16-6.72-217.94-1.61-27.38-4.48-55.8-8.6-85.24-5.69-40.33-8.63-63.39-8.81-69.17-1.68-46.79-6.18-88.67-13.85-130.48-1.72-9.34,1.45-18.92,8.4-25.41,23.3-21.6,54.38-48.25,93.24-79.93,1.17-.99,3.29-1.72,6.39-2.22,2.96-.49,4.46-2.44,4.5-5.85,0-1.28-.35-2.51-1.01-3.56-20.84-32.6-47.93-67.29-66.55-94.52-38.14-55.57-76.5-110.96-115.09-166.18-25.1-35.85-54-68.1-86.72-96.74-.58.45-1.25-.43-2.02-2.62l-5.92-10.02c-1.05-1.77-.52-4.06,1.21-5.24,27.9-19.09,55.26-26.22,80.74-40.07,2.51-1.36,3.45-4.5,2.09-7.02-.52-.95-1.32-1.72-2.29-2.19-48.54-23.6-100.9-53.64-143.59-75.43-64.8-33.07-129.11-67.11-192.93-102.11-29.24-16.07-57.61-37.38-86.92-55.86,23.48,5.33,41.28,10.04,53.38,14.12,84.07,28.23,157.95,54.83,221.64,79.8,55.73,21.85,120.4,42.28,183.72,67.76,2.69,1.08,9.28,2.71,19.76,4.91Z"/>
      <path class="cls-9" d="M276.63,80.8l232.46,197.24-235.49-131.36-17.95-18.35-13.44-39.26-15.73-50.22c2.11-4.17,4.21-5.11,6.32-2.82,14.48,15.6,29.09,30.52,43.83,44.77Z"/>
      <path class="cls-4" d="M583.44,312.52c.76,2.2,1.43,3.07,2.02,2.62l-76.37-37.11-232.46-197.24c13.04,1.97,23.1,5.78,30.18,11.43,60.32,48.18,120.73,96.24,181.24,144.2,31.8,25.14,61.11,54.38,95.39,76.1Z"/>
      <path class="cls-16" d="M946.05,178.21v54.38c-68.88,3-137.76,5.92-206.65,8.74-16.81.67-33.12,3.18-48.94,7.53-9.88-25.21,11.36-49.54,29.44-66.22,14.97,2.51,24.85,3.79,29.65,3.83,63.46.49,126.92.78,190.38.87,1.95,0,3.69-1.27,4.3-3.16l1.82-5.98Z"/>
      <path class="cls-3" d="M946.05,1134.68v33.61c-42.49-6.72-81.5-4.62-117.04,6.32l-3.97-32.13c-.48-3.91,2.29-7.46,6.2-7.95.29-.04.57-.05.86-.05l113.95.2Z"/>
      <path class="cls-10" d="M946.05,1168.29v75.22c-1.84,6.14-1.84,12.17,0,18.08v66.89l-90.21-36.43c-6.09-2.46-10.43-7.92-11.43-14.39l-15.39-103.06c35.54-10.93,74.55-13.04,117.04-6.32Z"/>
      <path class="cls-16" d="M946.05,1243.51v18.08c-1.84-5.92-1.84-11.94,0-18.08Z"/>
      <path class="cls-10" d="M946.05,1385.49v111.26c-.49,5.29-1.93,9.73-4.3,13.31-1.17,1.78-2.93,3.09-4.97,3.7-27.61,8.34-54.07,15.48-79.39,21.44-13.18,3.14-24.49,2.47-33.95-2.02-67.31-32-135.5-65.99-204.56-101.98-2.43-1.28-3.37-4.29-2.09-6.72.49-.94,1.27-1.69,2.22-2.15l151.12-74.62c4.2-2.08,7.48-5.64,9.21-10.02l7.73-19.76c2.14-5.46,8.32-8.15,13.82-6,.12.05.24.1.36.15,16.04,7.04,30.41,12.01,43.09,14.92.94.22,1.86.58,2.76,1.08l98.95,57.41Z"/>
      <path class="cls-10" d="M520.58,1466.83c28.77,11.63,62.99,19.29,87.12,29.71,6.36,2.73,19.43,8.02,39.19,15.86,8.29,3.27,62.63,28.48,163.02,75.63,20.91,9.82,37.71,17.01,60.43,22.65,26.22,6.5,51.45,14.43,75.69,23.8v177.27l-1.82,8.4c-.44,2.05-2.25,3.52-4.37,3.56-40.81,1.21-65.48,6.25-122.21,13.51-4.84.63-27.74,3.81-68.7,9.55-72.33,10.08-162.88,11.29-222.51,12.03l-7.87,1.48-2.62-389.03,4.64-4.44Z"/>
      <path class="cls-12" d="M946.05,1811.76v100.37c-32.09-2.02-64.24-4.01-96.47-5.98-93.71-5.71-204.03-23.53-280.12-31.8-18.15-1.97-32.49-7.15-43.02-15.53,59.63-.74,150.18-1.95,222.51-12.03,40.96-5.74,63.86-8.92,68.7-9.55,56.74-7.26,81.41-12.3,122.21-13.51,2.12-.04,3.93-1.52,4.37-3.56l1.82-8.4Z"/>
      <path class="cls-2" d="M526.43,1858.81c10.53,8.38,24.87,13.56,43.02,15.53,76.1,8.27,186.41,26.08,280.12,31.8,32.22,1.97,64.38,3.97,96.47,5.98v552.38c-27.79-.58-55.68-2.17-83.69-4.77-39.71-3.63-67.56-5.42-83.56-5.38-18.37.04-50.64-.85-96.8-2.69-31.95-1.26-61.44-5.76-88.47-13.51-55.53-15.86-106.89-35.81-154.08-59.83-6.32-3.23-10.08-8-14.32-9.88-1.44-.6-3.09.06-3.69,1.46-.16.37-.23.76-.21,1.16l1.61,48.6-33.88,37.85-33.34-192.06c1.93-4.35,4.01-9.86,6.25-16.54,7.46-22.12,20.3-43.83,29.78-65.41,50.42-115.09,90.06-209.9,118.92-284.43,3.5-8.96,6.16-21.89,8-38.79l7.87-1.48Z"/>
      <path class="cls-5" d="M946.05,2464.5v158.31l-5.04-44.84c-.82-7.06-6.39-12.62-13.44-13.44-156.59-18.42-318.75-33.88-486.5-46.38-4.59-.3-8.3-3.87-8.81-8.47l-9.41-90.01-1.61-48.6c-.06-1.52,1.15-2.79,2.71-2.84.41-.01.81.06,1.19.22,4.24,1.88,8,6.66,14.32,9.88,47.19,24.02,98.55,43.96,154.08,59.83,27.02,7.75,56.51,12.26,88.47,13.51,46.16,1.84,78.43,2.73,96.8,2.69,16-.05,43.85,1.75,83.56,5.38,28.01,2.6,55.91,4.19,83.69,4.77Z"/>
      <path class="cls-12" d="M422.84,2419.67l9.41,90.01c.51,4.6,4.22,8.17,8.81,8.47,167.75,12.5,329.91,27.97,486.5,46.38,7.06.82,12.62,6.39,13.44,13.44l5.04,44.84v585.39c-32.22,14.07-62.12,30.72-89.68,49.95-2.73,1.92-3.41,5.68-1.51,8.38.21.3.44.57.7.83,22.5,22.45,44.37,45.96,65.61,70.52,5.33,6.18,9.68,10.64,13.04,13.38,8.87,7.17,12.82,6.59,11.83-1.75v64.74c-52.57,2.49-101.24,16.47-152.26,27.43-16.54,3.54-30.7,4.39-42.49,2.55-62.52-9.68-112.6-12.97-170.28-24.4-8.34-1.66-48.02-7.69-119.05-18.08-4.03-.58-13.11-3.47-27.23-8.67,2.78-90.08,6.23-161.72,10.35-214.92.54-7.21,4.39-14.05,11.56-20.5,30.25-27.29,59.38-55.68,87.39-85.17l38.99,36.5,39.39,75.69c1.03,1.93,2.8,3.37,4.91,3.97l107.49,30.65c20.44,16.31,45.98,28.1,76.64,35.36,2.81.7,5.65-1.02,6.35-3.83.5-2-.23-4.11-1.85-5.38-50.06-40.51-103.32-76.59-159.79-108.23-21.78-12.19-56.51-39.3-104.2-81.34-7.04-25.14-16.94-50.98-29.71-77.51-16.07-33.48-40.67-97.07-73.34-167.46-8.02-17.25-13.29-35.31-15.8-54.18-13.4-100.3-28.12-200.04-44.17-299.21l33.88-37.85Z"/>
      <path class="cls-6" d="M734.83,3219.3c-45.4-30.97-86.58-62.74-123.56-95.32-8.25-7.26-17.66-12.26-28.23-14.99l-38.99-36.5,7.93-16.6c47.68,42.04,82.42,69.15,104.2,81.34,56.47,31.64,109.73,67.72,159.79,108.23,2.28,1.79,2.67,5.09.88,7.36-1.27,1.62-3.38,2.34-5.38,1.85-30.65-7.26-56.2-19.05-76.64-35.36Z"/>
      <path class="cls-18" d="M734.83,3219.3l-107.49-30.65c-2.11-.6-3.88-2.03-4.91-3.97l-39.39-75.69c10.58,2.73,19.99,7.73,28.23,14.99,36.97,32.58,78.16,64.36,123.56,95.32Z"/>
      <path class="cls-18" d="M946.05,3208.2v141.31c.99,8.34-2.96,8.92-11.83,1.75-3.36-2.73-7.71-7.19-13.04-13.38-21.24-24.56-43.11-48.07-65.61-70.52-2.36-2.31-2.37-6.12-.03-8.5.26-.26.54-.5.84-.71,27.56-19.23,57.45-35.88,89.68-49.95Z"/>
      <path class="cls-11" d="M202.95,3388.57c-12.73-6.54-22.12-14.52-28.17-23.93-12.86-20.21-25.55-36.59-38.05-49.14l-9.41-77.51c-.13-.96.54-1.84,1.5-1.96.54-.07,1.07.11,1.46.49l29.85,27.02c2.03,1.81,3.53,4.1,4.37,6.66l38.45,118.38Z"/>
      <path class="cls-10" d="M433.6,3786.13c-9.32,11.07-13.94,13.67-13.85,7.8-25.23-34.24-55.08-67.43-89.54-99.56-9.1-8.47-16.43-16.34-21.98-23.6-6.77-8.78-12.68-17.88-17.75-27.29-.32-.67-1.12-.95-1.79-.63-.5.24-.8.76-.76,1.31l.27,11.43c.09,2.05-.5,4.08-1.68,5.78-9.21,12.97-5.38,39.66-3.83,54.72.22,2.23.15,4.47-.2,6.66-7.35,45.49-14.18,93.73-20.5,144.73-.6,4.64-3.76,15.13-6.39,21.44-1.2,2.81-1.1,6.01.27,8.74l20.37,41.34c.69,1.36.14,3.02-1.22,3.7-.52.26-1.1.35-1.67.26l-21.85-3.29c-30.79,2.11-44.73-13.09-41.81-45.58,9.23-38.54,12.32-68.23,9.28-89.07-7.17-49.39-10.58-97.77-10.22-145.14,0-1.01.66-1.9,1.61-2.22,1.03-.4,1.73-1.05,2.08-1.95.09-.22.11-.43.07-.61-4.84-26.76-12.64-55.93-16.94-82.89-11.56-72.6-19.09-114.28-22.59-125.04-13.89-42.89-25.97-86.79-36.23-131.69,12.5,12.55,25.19,28.93,38.05,49.14,6.05,9.41,15.44,17.39,28.17,23.93,4.37,27.96,16.74,56.06,21.65,80.74,4.75,23.8,9.23,48.36,13.44,73.68,1.57,9.64,4.86,19.34,9.88,29.11.27.45.85.59,1.29.32.28-.17.45-.47.46-.79-1.17-25.9.49-70.77,4.97-134.58,3.81-54.23,6.79-97.36,8.94-129.41,1.08-16.22,2.91-31.17,5.51-44.84.25-1.24,1.46-2.04,2.69-1.79.95.19,1.68.96,1.81,1.92,3,21.69,5.96,58.84,8.87,111.46,3.23,58.75,10.82,143.79,12.3,196.63,1.08,36.77,10.29,54.18,34.69,83.09,47.26,55.73,79.46,89.68,104.13,132.03Z"/>
      <path class="cls-13" d="M434.74,3393.07c14.12,5.2,23.19,8.09,27.23,8.67,71.03,10.4,110.72,16.42,119.05,18.08,57.68,11.43,107.76,14.72,170.28,24.4,11.79,1.84,25.95.99,42.49-2.55,51.02-10.96,99.69-24.94,152.26-27.43v24.2c-7.71,4.84-15.71,8.99-24,12.44-51.27,21.38-102.88,41.66-154.82,60.84-1.11.43-1.66,1.67-1.24,2.78.15.4.42.74.77.99,38.95,26.66,79.12,51.4,120.53,74.21,22.9,12.59,42.49,28.59,58.75,48v185.07c-41.07-13.24-76.77-39.93-115.89-58.08-39.71-18.46-81.83-42.19-126.38-71.19-8.87-5.78-17.16-4.59-24.87,3.56-9.37-17.84-22-33.01-37.91-45.51-39.66-31.06-76.77-65.01-114.08-96.2-7.93-6.63-17.32-18.58-28.17-35.83-1.34-2.11-14.54-25.43-39.6-69.98-3.72-6.68-9.01-11.59-15.86-14.72l-5.98-10.49c-.89-1.53-2.85-2.08-4.39-1.23-1.05.58-1.67,1.71-1.59,2.91.09,2.55-.4,4.46-1.48,5.71l4.91-38.65Z"/>
      <path class="cls-2" d="M443.28,3434.82l28.5,58.89c.58,1.08.17,2.42-.91,3-.95.51-2.12.26-2.79-.58-8.34-9.73-17.52-20.01-27.56-30.86-6.77-7.26-10.33-18.44-10.69-33.54,1.08-1.26,1.57-3.16,1.48-5.71-.11-1.75,1.24-3.23,3.01-3.31,1.21-.05,2.36.58,2.97,1.63l5.98,10.49Z"/>
      <path class="cls-12" d="M946.05,3438.45v199.25c-16.27-19.41-35.85-35.4-58.75-48-41.41-22.81-81.59-47.55-120.53-74.21-.97-.69-1.2-2.03-.51-3,.25-.35.59-.61.99-.77,51.94-19.18,103.55-39.46,154.82-60.84,8.29-3.45,16.29-7.6,24-12.44Z"/>
      <path class="cls-10" d="M202.82,3917.62c3,10.22,8.27,20.06,15.8,29.51.3.34.4.82.27,1.28l-1.55,4.77c-.34,1.02-1.43,1.59-2.42,1.27-.34-.11-.65-.32-.87-.6l-43.36-51.96c-.94-2.91-3.02-5.36-6.25-7.33-7.73-16.34-25.48-24.47-30.25-42.49-5.98-22.59-21.38-29.04-33.95-44.17-7.93-9.55-23.6-17.21-33.34-30.05l-62.18-140.5-3.83-109.31c.58-3.14,1.32-5.24,2.22-6.32.36-.43,1.01-.46,1.46-.07.09.08.16.17.22.27l33.54,55.06c7.06,35.49,19.43,71.86,31.46,100.3,3.81,8.96,9.57,29.06,17.28,60.3,6.27,25.46,17.21,51.29,32.81,77.51.5.91,1.64,1.25,2.56.75.72-.4,1.1-1.22.94-2.02-5.11-34.62-5.18-72-11.23-103.59-8.16-42.49-21.22-84.99-39.19-127.52-.31-.71-.08-1.54.54-1.95l1.48-1.14c.64-.45,1.52-.3,1.97.34.04.06.08.13.12.2l38.32,83.76c.46,1.1,1.75,1.59,2.87,1.11.15-.06.29-.14.42-.24l1.41-1.01c.38-.3.56-.76.47-1.21-3.03-12.84-11.02-34.82-18.29-49.61-12.19-24.92-23.6-48.6-34.22-71.06-2.11-4.44-3.85-12.01-5.24-22.72-.31-2.18-.95-4.29-1.88-6.25-7.13-15.19-12.28-31.37-15.46-48.54,6.05,10.71,11.81,21.29,17.28,31.73,4.93,9.32,9.57,20.39,13.92,33.21,9.68,28.59,22.14,54.54,37.38,77.85,12.5,19.18,20.82,32.38,24.94,39.6,3.09,5.44,4.87,11.54,5.18,17.81,2.29,47.33,15.26,112.24,38.92,194.75,8.38,29.22,14.97,48.65,19.76,58.28Z"/>
      <path class="cls-6" d="M38.32,3577l-33.54-55.06c-.31-.51-.95-.69-1.43-.41-.1.06-.18.13-.25.21-.9,1.08-1.64,3.18-2.22,6.32l-.87-56.07,30.65,34.82c1.7,1.91,2.47,4.45,2.08,6.92l-2.29,14.79c-.76,5.02-.57,10.15.54,15.13l7.33,33.34Z"/>
      <path class="cls-8" d="M946.05,5117.57v588.08c-8.2-29.89-15.13-60.03-20.77-90.42-7.17-38.86-13.65-68.99-19.43-90.42-13.85-51.36-32.29-124.03-55.33-218.01-12.32-50.33-35-128.15-68.03-233.47-3.32-10.44-8.38-41.84-15.19-94.18-2.96-22.9-5.58-54.83-7.87-95.79-6.52-116.5-32.2-227.75-68.64-336.99-3.76-11.25-9.48-31.15-17.14-59.7-7.13-26.76-18.76-55.73-25.34-78.85-18.69-65.52-33.41-116.03-44.17-151.52-8.96-29.49-19.16-82.37-30.59-158.65-10.35-68.9-4.24-135.93-4.64-217.07-.22-37.78-8.07-71.75-23.53-101.91-13.92-27.16-37.51-69.17-58.89-102.99-7.53-11.97-20.84-27.43-28.91-43.02-1.05-2.01-.28-4.48,1.73-5.54,1.33-.7,2.94-.61,4.19.23,16.47,10.82,31.19,22.52,43.63,38.99,28.19,37.24,56.06,74.73,83.63,112.47,15.53,21.18,23.86,41.14,26.28,68.84,7.04,79.41,8.36,151.01,3.97,214.78-3.94,57.32-5.29,102-4.03,134.04.13,2.77.54,5.5,1.21,8.13,9.55,37.18,25.21,103.19,45.38,152.67,20.3,49.75,45.51,118.61,75.63,206.58,3.83,11.09,5.51,25.88,8.34,33.61.23,1.13,1.32,1.86,2.45,1.63,1.1-.22,1.82-1.27,1.65-2.37-.05-8.25.63-18.35,2.02-30.32,8.83-76.81,25.07-172.23,48.74-286.24,1.34-6.41,4.68-18.13,10.02-35.16.11-.2.35-.27.55-.16.09.05.16.13.19.23,4.12,38.23,4.82,77.02,2.08,116.37-.9,13.36-5.02,39.03-12.37,77.04-4.21,21.65-7.33,47.46-9.34,77.44-7.53,110.58-3.43,198.71,1.34,319.92,3.23,81.41,18.82,165.98,34.08,242.68,5.11,25.41,27.76,101.78,64,97.61,12.73-1.48,22.32-6.16,28.77-14.05,8.11-9.82,16.22-24.65,24.34-44.5Z"/>
      <path class="cls-16" d="M946.05,3822.77v320.93c-1.88-16.31-2.94-26.84-3.16-31.6-1.68-29.78-11.76-45.38-36.17-65.28-53.51-43.79-103.62-88.62-150.31-134.52-24.02-23.66-45.33-51.4-63.93-83.22l-13.58-132.03c7.71-8.16,16-9.34,24.87-3.56,44.55,29,86.67,52.73,126.38,71.19,39.12,18.15,74.82,44.84,115.89,58.08Z"/>
      <path class="cls-10" d="M374.91,4018.26c-12.5-20.03-20.19-33.9-23.06-41.61-9.9-26.84-20.03-52.17-30.39-75.96-15.19-34.82-23.8-71.32-32.74-109.98-.54-2.41-.83-4.87-.87-7.33l-.47-56.07c.01-1.78,1.47-3.22,3.25-3.2,1.22,0,2.33.7,2.87,1.79,6.05,12.59,16.36,38.61,30.92,78.05,18.96,51.22,30.79,108.84,47.86,169.88,1.48,5.24,3.03,19.83,4.64,43.76.1.59-.29,1.14-.88,1.24-.46.08-.92-.15-1.14-.57Z"/>
      <path class="cls-6" d="M66.89,3777.86c9.75,12.84,25.41,20.5,33.34,30.05,12.57,15.13,27.97,21.58,33.95,44.17,4.77,18.02,22.52,26.15,30.25,42.49-31.6-30.12-54.5-52.7-68.7-67.76-12.91-13.62-22.52-29.94-28.84-48.94Z"/>
      <path class="cls-8" d="M542.9,4560.02c-36.88-55.57-73.72-111.1-110.52-166.58-30.59-46.12-70.38-93.78-103.86-142.52-1.25-1.82-2.77-3.41-4.5-4.71l-60.57-44.03-20.03-24.27c-1.7-2.1-3.16-4.4-4.37-6.86l-72.33-149.71c-.8-1.56-.17-3.46,1.42-4.24,1.08-.53,2.37-.42,3.35.27,40.4,29.38,64,75.69,88.74,119.19,11.11,19.54,25.39,40.2,42.82,61.98,20.37,25.41,43.76,56.94,65.54,76.84,39.84,36.44,80.8,72.13,122.89,107.09,1.59,1.34,3.97,1.13,5.3-.46.85-1.01,1.11-2.39.68-3.64-8.4-25.61-16.6-52.3-29.18-75.83-27.88-52.03-50.84-101.69-68.9-148.97-15.15-39.62-29.06-70.9-41.75-93.84-.38-.73-.15-1.62.54-2.02h.07c.66-.48,1.58-.34,2.07.31l.02.02,57.68,82.42c.95,1.37,2.83,1.72,4.21.77.85-.58,1.34-1.56,1.3-2.58-1.03-70,.04-142.56,3.23-217.67.85-19.32-1.48-61.67-6.99-127.05-.09,5.87,4.53,3.27,13.85-7.8,15.64,24.83,23.64,49.61,24,74.35.94,70.72,4.84,116.37,1.55,174.78-.85,14.74-1.28,55.66-1.28,122.75,0,6.65.88,13.27,2.62,19.7,18.73,68.7,34.73,119.55,48,152.53,14.97,37.2,27.79,72.98,38.45,107.36,16.07,51.96,37.44,94.79,49.81,143.73,4.17,16.49,17.23,60.52,39.19,132.1,4.08,13.31,5.24,27.65,3.5,43.02-.27,2.17-.04,4.37.67,6.45,19.7,57.54,42.62,111.53,53.64,163.02.06.3-.18.56-.54.6-.13.01-.27,0-.4-.06-.22-.09-.38-.25-.47-.47-50.46-124.9-81.05-203.33-91.76-235.28-1.21-3.54-5.78-18.42-13.71-44.64-.22-.76-.54-1.5-.94-2.22l-43.02-83.83Z"/>
      <path class="cls-14" d="M946.05,4143.7v306.68l-3.9-35.7c-.36-3.2-1.31-6.3-2.82-9.14-9.86-19.05-19.18-38.5-27.97-58.35-30.39-68.93-81.12-185.96-152.2-351.11-3.09-7.26-5.49-12.97-7.19-17.14-9.73-24.11-23.84-54.77-42.35-91.96-8.16-16.4-13.87-35.7-17.14-57.88,18.6,31.82,39.91,59.56,63.93,83.22,46.7,45.89,96.8,90.73,150.31,134.52,24.4,19.9,34.49,35.49,36.17,65.28.22,4.75,1.28,15.28,3.16,31.6Z"/>
      <path class="cls-18" d="M209.67,3894.09c-2.91,32.49,11.02,47.68,41.81,45.58.09,10.13,7.71,23.01,22.86,38.65.78.79.78,2.07-.01,2.85-.42.42-1.01.63-1.6.58-50.96-5.02-84.97-31.64-102.05-79.86l43.36,51.96c.65.81,1.85.92,2.67.23.29-.24.5-.55.62-.9l1.55-4.77c.13-.45.03-.93-.27-1.28-7.53-9.46-12.79-19.29-15.8-29.51,5.2.31,7.48-7.53,6.86-23.53Z"/>
      <path class="cls-6" d="M542.9,4560.02c-33.93-37.78-65.61-77.26-95.06-118.45-33.21-46.52-57.3-79.08-72.27-97.68-27.02-33.57-54.16-67.07-81.41-100.5-10.89-13.4-21.13-27.14-30.72-41.21l60.57,44.03c1.74,1.29,3.26,2.88,4.5,4.71,33.48,48.74,73.27,96.4,103.86,142.52,36.79,55.48,73.63,111.01,110.52,166.58Z"/>
      <path class="cls-8" d="M186.21,4647.07c-8.65-20.84-13.8-35.72-15.46-44.64-15.73-84.03-25.28-139.76-28.64-167.19-1.88-15.01-3.79-49.14-5.71-102.38-2.06-4.21-3.09-7.93-3.09-11.16-.02-1.19.93-2.17,2.11-2.19.44,0,.88.12,1.25.37,5.51,3.59,8.76,9.01,9.75,16.27,1.88,14.12,8.13,39.53,18.76,76.23,15.06,51.94,24.33,86.47,27.83,103.59,9.41,46.05,29.04,96.47,37.04,145.88,9.55,58.89,20.46,117.78,32.74,176.67.22,1.21-.5,2.4-1.68,2.76h-.13c-1.69.48-3.45-.48-3.97-2.15-12.64-41.1-21.44-70.47-26.42-88.13-7.13-25.14-21.92-59.78-44.37-103.93Z"/>
      <path class="cls-8" d="M847.02,5688.51c-5.96-2.96-12.12-4.35-18.49-4.17-30.16-77.04-60.3-154.14-90.42-231.32-9.48-24.47-15.26-49.54-16.94-76.84-3.5-55.84-9.95-102.34-19.36-139.49-4.21-16.67-18.73-45.96-43.56-87.86-32.81-55.53-71.53-86.58-132.1-122.75-95.86-57.27-157.75-95.39-185.67-114.35-.65-.43-.82-1.31-.38-1.96.32-.48.9-.71,1.46-.59l170.55,28.44c2.21.35,4.49.19,6.66-.47,3.9-1.17,6.3-4.37,7.19-9.61.36-1.97,2.25-3.28,4.22-2.92.46.08.9.25,1.29.5,9.23,5.69,14.7,5.49,16.4-.61,13.94-49.84,24.42-107.67,31.46-173.51,0-.71.57-1.28,1.28-1.28s1.28.57,1.28,1.28l7.46,103.79c.31,4.19.02,8.42-.87,12.57-5.2,24.42-6.41,43.92-3.63,58.48,6.27,33.21,11.27,59,14.99,77.38,4.03,20.23,20.23,41.41,30.86,58.22,27.38,43.34,52.9,79.84,76.57,109.51,16.94,21.24,28.97,40.38,36.1,57.41,16.81,40.29,28.26,80.15,34.35,119.59,7.48,48.67,17.07,115.27,28.77,199.79,6.72,48.63,20.23,95.55,40.54,140.77Z"/>
      <path class="cls-3" d="M847.02,5688.51c22,38.54,55.01,66.95,99.02,85.24v261.3l-6.12,21.92c-23.75,54.41-39.84,111.21-48.27,170.41.81,2.78.45,6.63-1.08,11.56-11.25,22.59-18.04,40.33-20.37,53.24-11.56,64.18-26.58,127.52-45.04,190.04-2.47,8.42-7.46,19.11-14.99,32.07-13.36-47.1-26.93-94.09-40.74-140.97-5.6-19.05-21.27-47.93-46.99-86.65-.4-.67-.76-1.37-1.08-2.08l-25.68-63.33c-.36-.89-.61-1.8-.74-2.69-5.96-33.3-17.7-69.94-35.23-109.91-28.17-64.4-28.03-150.38-17.81-218.68.14-1.08,1.14-1.81,2.23-1.63.82.13,1.48.76,1.67,1.56,11.65,58.13,21.42,103.3,29.31,135.52,5.24,21.2,11.43,40.33,18.55,57.41,1.85,4.46,6.97,6.57,11.42,4.71,1.63-.67,3.01-1.83,3.97-3.3,1.79-2.78,2.8-5.76,3.03-8.94,5.02-65.39,8.34-120.76,9.95-166.11.05-.55.53-.97,1.09-.92.39.03.72.29.86.65,16.04,52.39,36.1,101.44,60.17,147.15,2.06,3.9,3.88,6.21,5.45,6.92,3.26,1.45,7.1-.02,8.6-3.29,11.97-26.53,24.2-53.31,36.7-80.33,12.64-27.29,30.92-55.53,47.46-81.74,6.39-10.15,7.93-21.92,5.18-34.35-14.32-64.67-36.7-119.72-59.02-178.95,6.36-.18,12.53,1.21,18.49,4.17Z"/>
      <path class="cls-10" d="M483.88,5712.1c-.04-.67.46-1.24,1.13-1.29.55-.03,1.05.3,1.22.82,32.67,94.11,46.45,199.25,63.73,295.92.16.88-.43,1.74-1.34,1.95l-1.68.4c-.57.14-1.15-.18-1.34-.74l-52.17-157.64c-.27-.8-.43-1.64-.47-2.49l-9.08-136.94Z"/>
      <path class="cls-15" d="M946.05,6035.05v232.06l-2.29-44.1c0-1.19-.96-2.15-2.15-2.15-.98,0-1.84.66-2.09,1.62-15.82,53.78-30.25,107.36-43.29,160.73-.76,3.18.47,5.11,3.7,5.78,1.08.22,2.13-.38,3.16-1.81,18.78-26.76,33.1-55.89,42.96-87.39v2336.17c-8-46.92-46.59-85.78-81.14-117.84-11.61-20.44-19.16-38.18-22.65-53.24-16.4-71.03-32.22-158.78-47.46-263.25-1.12-7.75-3.85-16.76-8.2-27.02-48.98-89.41-97.48-178.95-145.47-268.63-12.23-22.95-23.13-45.94-32.67-68.97-9.81-23.66-19.43-47.24-28.84-70.72,2.64-16.67,5.47-33.23,8.47-49.68,2.73-15.06,6.48-31.46,11.23-49.21,54.72-203.15,95.66-410,122.82-620.55,3.27-25.36,8.9-68.05,16.87-128.06,3.14-23.48,6.79-45.64,10.96-66.48,4.39-22.01,8.76-44.08,13.11-66.22l20.64-105.27c6.14-12.32,12.88-23.93,20.23-34.82,7.98-11.79,15.55-30.63,22.72-56.54.36-1.29.56-2.6.61-3.9l.54-19.56c9.28-22.72,18.42-45.09,27.43-67.09,10.31-25.19,17.93-48.06,22.86-68.64,8.65-35.81,13.04-64.4,13.18-85.78.22-35.32,0-70.5-.67-105.54,1.52-4.93,1.88-8.79,1.08-11.56,36.64-50.75,58.22-107.09,48.27-170.41l6.12-21.92Z"/>
      <path class="cls-1" d="M939.93,6056.96c9.95,63.32-11.63,119.66-48.27,170.41,8.43-59.2,24.51-116.01,48.27-170.41Z"/>
      <path class="cls-17" d="M624.04,6144.89c-.13-.87.46-1.7,1.32-1.86.68-.13,1.35.22,1.64.85l14.18,27.16c.67,1.24,1.56,2.34,2.62,3.23,26.62,21.24,40.54,31.53,40.81,63.59.04,1.76.56,3.43,1.48,4.84l11.76,17.68c.75,1.15.44,2.69-.71,3.44-.31.21-.67.34-1.04.39l-3.83.54c-.16.04-.34-.04-.47-.2-17.57-29.67-36.61-60.26-57.14-91.76-5.42-8.29-8.96-17.59-10.62-27.9Z"/>
      <path class="cls-1" d="M946.05,6267.11v32.67c-9.86,31.5-24.18,60.63-42.96,87.39-1.03,1.43-2.08,2.04-3.16,1.81-3.23-.67-4.46-2.6-3.7-5.78,13.04-53.38,27.47-106.95,43.29-160.73.3-1.15,1.47-1.84,2.62-1.55.95.24,1.62,1.1,1.62,2.09l2.29,44.1Z"/>
      <path class="cls-2" d="M890.59,6238.94c.67,35.04.9,70.23.67,105.54-.13,21.38-4.53,49.97-13.18,85.78-4.93,20.57-12.55,43.45-22.86,68.64-9.01,22-18.15,44.37-27.43,67.09l-17.61-51.69c7.53-12.95,12.53-23.64,14.99-32.07,18.46-62.52,33.48-125.87,45.04-190.04,2.33-12.91,9.12-30.65,20.37-53.24Z"/>
      <path class="cls-7" d="M783.7,6680.8l-20.64,105.27-19.56,51.36c-.53,1.23-1.96,1.79-3.19,1.25-.9-.39-1.47-1.28-1.45-2.26,1.97-43.87,6.52-91.85,13.65-143.93,3.67-26.66,1.86-62.94-5.45-108.84-5.29-33.3-13.27-72.98-23.93-119.06-.48-1.87.67-3.78,2.57-4.27.04,0,.08-.02.11-.03h.2c1.86-.42,3.73.74,4.24,2.62,8.38,34.15,18.33,68.03,29.85,101.64,5.83,17.08,13.69,55.82,23.6,116.23Z"/>
      <path class="cls-13" d="M579.61,7766.27c9.41,23.48,19.02,47.06,28.84,70.72,9.55,23.04,20.44,46.03,32.67,68.97,48,89.68,96.49,179.22,145.47,268.63-15.69-24.2-34.62-45.06-56.8-62.59-2.72-2.09-5.12-4.59-7.13-7.39-19.18-26.71-39.57-52.84-61.17-78.38-10.49-12.5-20.17-30.05-29.24-45.04-19.36-32.07-32.81-68.9-47.66-103.32-4.97-11.43-7.33-23.73-11.5-35.97l-5.98-54.85,12.5-20.77Z"/>
      <path class="cls-18" d="M946.05,8635.95v85.98c-6.9-28.46-19.25-56.58-37.04-84.36l-44.1-119.46c34.55,32.07,73.14,70.92,81.14,117.84Z"/>
    </g>
  </g>
</svg>