<?xml version="1.0" encoding="UTF-8"?>
<svg id="Layer_2" data-name="Layer 2" xmlns="http://www.w3.org/2000/svg" viewBox="0 0 1051.25 8005.72">
  <defs>
    <style>
      .cls-1 {
        fill: #414582;
      }

      .cls-2 {
        fill: #45557f;
      }

      .cls-3 {
        fill: #506d8d;
      }

      .cls-4 {
        fill: #161a39;
      }

      .cls-5 {
        fill: #4d618e;
      }

      .cls-6 {
        fill: #24365e;
      }

      .cls-7 {
        fill: #3d4b79;
      }

      .cls-8 {
        fill: #505497;
      }

      .cls-9 {
        fill: #4b528b;
      }

      .cls-10 {
        fill: #384371;
      }
    </style>
  </defs>
  <g id="Layer_1-2" data-name="Layer 1">
    <g>
      <path class="cls-9" d="M255.12,514.65c-36.03-20.93-65.25-49.27-87.66-85.04-35-55.93-67.76-113.16-98.28-171.69-12.77-24.47-35.83-56.29-69.17-95.46V12.29l2.35,28.1c.05.7.66,1.23,1.37,1.18.45-.03.85-.3,1.05-.71C12.75,25.8,22.92,12.58,35.29,1.19c1.45-1.3,3.56-1.56,5.31-.67,41.77,21.29,83.58,42.73,125.44,64.33,4.71,2.42,14.63,5.8,29.78,10.15,2.12.61,3.92,1.97,5.04,3.83,6.23,9.82,9.93,21.29,11.09,34.42,4.62,52.57,10.85,112.38,18.69,179.42,7.73,66.08,14.65,148.09,24.47,221.97Z"/>
      <path class="cls-8" d="M255.12,514.65c-.47,25.88-.81,48.94,15.8,68.77,92.99,111.37,186.77,222.04,281.33,332.02,10.13,11.74,18.08,27.27,23.86,46.59,29.76,99.31,60.19,206.8,91.29,322.47,14.32,53.24,39.33,103.52,49.68,156.57,5.51,28.17,7.26,56.06,23.6,71.79.18,1.21.07,2.33-.34,3.36-17.12,9.81-35.43,17.63-54.92,23.46-77.04,23.06-150.45,54.05-226.34,79.32-70.72,23.6-139.89,52.64-199.59,70.99-39.17,12.05-106.03,34.4-200.6,67.02-19.63,6.77-33.88,2.17-42.75-13.78.72-5.24.61-9.03-.34-11.36-.63-1.42-2.29-2.08-3.69-1.49-.64.27-1.15.78-1.42,1.42-5.87,12.77-8.83,26.13-8.87,40.07-.18,38.68-.78,77.35-1.82,116.03V162.47c33.34,39.17,56.4,70.99,69.17,95.46,30.52,58.53,63.28,115.76,98.28,171.69,22.41,35.76,51.63,64.11,87.66,85.04Z"/>
      <path class="cls-9" d="M740.34,1516.22c4.64,25.61,10.69,51.76,14.12,76.57,10.89,79.68,22.52,159.27,34.89,238.78,3.5,22.32,3.23,45.11,6.45,63.66,2.76,15.86,52.57,43.09,95.66,71.39,6.81,4.48,10.31,10.98,10.49,19.5.63,30.43.22,60.9-1.21,91.42-11.36,60.23-16.4,127.52-38.72,181.37-4.12,9.86-12.97,22.54-26.55,38.05-35.45-23.57-56.18-55.21-62.18-94.92-4.66-31.01-8.13-60.97-10.42-89.88-.84-10.27-4.59-20.09-10.82-28.3-18.73-24.6-39.75-49.61-63.06-75.02-7.98-8.65-16.38-9.68-25.21-3.09-14.61,10.89-17.55,25.68-8.81,44.37,7.93,17.03,18.26,37.29,30.99,60.77.13.22,9.68,15.64,28.64,46.25,17.21,27.74,28.01,56.56,32.4,86.45-40.96-15.51-70.07-24.69-87.32-27.56-49.3-8.16-98.15-18.49-146.55-30.99-22.32-5.85-58.42-23.19-88.74-30.79-31.26-7.86-73.81-8.87-95.73-9.48-15.42-.4-36.61-2.53-63.59-6.39-25.86-3.63-54.52-5.62-85.98-5.98-1.86,0-3.43-1.35-3.7-3.16l-5.24-32.6c-2.55-24.42-5.51-48.71-8.87-72.87-2.38-17.08-1.68-30.25,2.08-39.53,9.73-23.98,17.72-47.73,24-71.26.77-2.94-.28-6.07-2.69-7.93l-165.84-130.35c-1.23-.98-1.97-2.48-2.02-4.1l-.67-27.36c8.87,15.95,23.13,20.55,42.75,13.78,94.56-32.63,161.43-54.97,200.6-67.02,59.7-18.35,128.87-47.39,199.59-70.99,75.9-25.28,149.3-56.27,226.34-79.32,19.49-5.83,37.8-13.65,54.92-23.46Z"/>
      <path class="cls-10" d="M16.13,1743.24l.67,27.36c.05,1.62.78,3.12,2.02,4.1l165.84,130.35c2.4,1.87,3.46,4.99,2.69,7.93-6.27,23.53-14.27,47.28-24,71.26-3.76,9.28-4.46,22.45-2.08,39.53,3.36,24.16,6.32,48.45,8.87,72.87-16.99,90.48-36.75,180.38-59.29,269.7-10.22,40.4-16.07,86.11-25.48,124.77-18.46,76.1-35.2,152.91-50.22,230.44-4.39,22.77-14.21,42.37-29.44,58.82-.58.68-1.6.76-2.27.18-.3-.25-.49-.6-.55-.99l-2.89-14.45v-877.21c1.03-38.68,1.64-77.35,1.82-116.03.04-13.94,3-27.29,8.87-40.07.6-1.4,2.24-2.03,3.66-1.39.65.29,1.16.81,1.45,1.46.94,2.33,1.05,6.12.34,11.36Z"/>
      <path class="cls-7" d="M979.66,2211.86c-30.32,21.04-61.11,40.87-91.16,62.25-16.85,12.01-34.53,19.63-53.04,22.86,13.58-15.51,22.43-28.19,26.55-38.05,22.32-53.85,27.36-121.14,38.72-181.37l145.81,60.37c3.88,1.6,5.73,6.04,4.13,9.92-.44,1.07-1.12,2.02-1.98,2.79l-69.04,61.24Z"/>
      <path class="cls-1" d="M170.14,2096.64l5.24,32.6c.27,1.81,1.84,3.15,3.7,3.16,31.46.36,60.12,2.35,85.98,5.98,26.98,3.85,48.18,5.98,63.59,6.39,21.92.61,64.47,1.61,95.73,9.48,30.32,7.6,66.42,24.94,88.74,30.79,48.4,12.5,97.25,22.83,146.55,30.99,17.25,2.87,46.36,12.05,87.32,27.56l8.6,142.99c.23,3.93-2.41,7.46-6.25,8.34l-120.94,27.76c-7.91,1.84-16.19,1.15-23.66-1.95-43.83-18.02-84.25-41.46-121.27-70.32-8.6-6.72-23.06-12.44-26.69-25.48-3.23-11.38-3.76-25.99-1.61-43.83,2.15-17.97,5.94-44.14,11.36-78.52,1.25-7.75,1.34-14.95.27-21.58-.33-2.2-2.38-3.72-4.59-3.39-.96.14-1.84.63-2.47,1.37-3.81,4.35-7.66,9.07-11.56,14.18-32.49,42.22-60.52,83.52-84.1,123.9l-21.04,46.79c-.63,1.43-1.14,2.89-1.55,4.37-6.72,25.21-15.26,50.22-19.36,75.9-12.55,77.8-29.62,167.68-51.22,269.64-5.51,26.04-8.16,56.09-7.93,90.15l-2.02-9.88c-.13-.89-.97-1.48-1.88-1.31-.57.11-1.06.5-1.28,1.04l-48.27,122.82c-.79,1.96-3.03,2.91-4.99,2.12-1.12-.45-1.97-1.41-2.27-2.59-13.67-53.33-23.75-107.67-30.25-163.02-2.64-22.59-7.93-45.4-15.86-68.43-.02-.19-.18-.32-.37-.3-.19.02-.32.18-.3.37-7.53,60.77-16.27,124.1-31.33,187.76-6.27,26.49-12.21,54-17.81,82.55-.42,2.19-2.54,3.62-4.72,3.2-.66-.13-1.28-.42-1.8-.84-19.9-16-40.29-31.93-61.17-47.8-16.81-12.82-29.69-29.13-38.65-48.94v-95.53l2.89,14.45c.13.88.95,1.49,1.83,1.36.39-.06.74-.25.99-.55,15.24-16.45,25.05-36.05,29.44-58.82,15.01-77.53,31.75-154.35,50.22-230.44,9.41-38.65,15.26-84.37,25.48-124.77,22.54-89.32,42.31-179.22,59.29-269.7Z"/>
      <path class="cls-9" d="M262.98,2803.9l-31.8,201-6.05,36.84c-27.2,49.43-56.4,97.34-87.59,143.73-22.79,33.88-54.99,79.32-98.48,83.02-6.23.54-19.25-.04-39.06-1.75v-406.1c8.96,19.81,21.85,36.12,38.65,48.94,20.88,15.86,41.28,31.8,61.17,47.8,1.72,1.41,4.26,1.17,5.68-.56.43-.52.72-1.14.84-1.8,5.6-28.55,11.54-56.07,17.81-82.55,15.06-63.66,23.8-126.99,31.33-187.76-.02-.19.12-.35.3-.37.19-.02.35.12.37.3,7.93,23.04,13.22,45.85,15.86,68.43,6.5,55.35,16.58,109.69,30.25,163.02.53,2.05,2.63,3.28,4.67,2.74,1.17-.31,2.13-1.15,2.59-2.27l48.27-122.82c.35-.85,1.32-1.28,2.16-.96.53.2.91.67.99,1.23l2.02,9.88Z"/>
      <path class="cls-10" d="M417.19,3201.13l-183.45,1.21c-3.23.03-5.82,2.7-5.78,5.96,0,.77.17,1.53.47,2.24,5.51,13.18,11.7,25.95,20.71,38.12,24.87,33.61,48.94,67.79,72.2,102.52,14.12,21.11,16.43,43.38,6.92,66.82-16.47,40.6-36.57,83.22-50.69,121.14-33.61,90.08-59.96,161.41-96.47,233.94-16.27,32.34-22.99,53.51-20.1,87.26,8.34,96.53,29.65,201.67,47.53,285.5,13.44,62.99,15.8,105.27-.4,161.88-23.53,82.1-47.59,174.47-72.2,277.1-2.24,9.46-7.48,26.73-15.73,51.83-31.86,96.98-60.79,196.47-86.79,298.48l-5.45,30.25c-8.07,13.65-16.07,16.74-27.97,5.38v-152.73c5.06-79.59,9.5-159.23,13.31-238.91,2.22-45.71,14.45-96.13,19.23-143.59,21.87-217.4,36.77-376.1,44.7-476.08,5.33-67.49,10.62-122.84,15.86-166.04,5.51-45.85,6.72-135.52,22.99-218.61,14.57-74.57,31.8-154.08,51.7-238.51,10.96-46.59,13.44-85.78,24.34-128.67,7.44-29.31,16.63-70.39,27.56-123.22,2.87-13.8,4.68-28.01,5.45-42.62l6.05-36.84c10.96,21.45,28.64,5.04,37.24-6.72,54.5-74.93,108.79-149.98,162.88-225.13,2.91-4.08,7.98-9.07,15.19-14.99.59-.45,1.43-.33,1.88.26.21.27.3.61.27.95-18.82,149.15-32.45,285.7-40.87,409.67-.72,10.89,2.42,21.62,9.41,32.2Z"/>
      <path class="cls-2" d="M225.13,3041.74c-.76,14.61-2.58,28.82-5.45,42.62-10.94,52.84-20.12,93.91-27.56,123.22-10.89,42.89-13.38,82.08-24.34,128.67-19.9,84.43-37.13,163.94-51.7,238.51-16.27,83.09-17.48,172.77-22.99,218.61-5.24,43.2-10.53,98.55-15.86,166.04-7.93,99.98-22.83,258.68-44.7,476.08-4.77,47.46-17.01,97.88-19.23,143.59-3.81,79.68-8.25,159.32-13.31,238.91v-1551.26c19.81,1.7,32.83,2.28,39.06,1.75,43.49-3.7,75.69-49.14,98.48-83.02,31.19-46.39,60.39-94.29,87.59-143.73Z"/>
      <path class="cls-2" d="M450.54,3756.6c-20.84,27.23-32.4,56.8-49.68,95.93-8.83,20.08-20.26,43.27-34.28,69.58-43.83,82.1-78.59,168.17-104.26,258.21-14.52,18.15-32,43.02-20.84,62.45,15.19,26.49,25.9,46.65,32.13,60.5,17.79,51.67,40.33,101.35,67.63,149.04,15.33,26.76,27.18,50.13,35.56,70.11,31.42,75.07,62.56,148.56,93.44,220.5l4.3,23.86c11.79,27.87,19.7,53.29,23.73,76.23,5.51,31.1,13.33,57.83,23.46,80.2,7.53,16.58,13.29,33.39,17.28,50.42,6.1,30.7,7.8,61.02,5.11,90.95-.53,6.02-2.74,11.77-6.39,16.6-9.99,13.31-20.41,26.91-31.26,40.81-4.12,5.29-4.3,14.45-.54,27.49-56.33-36.25-96.38-58.89-120.13-67.9-33.39-12.68-66.42-26.13-99.09-40.33-38.99-16.98-71.86-30.79-98.62-41.41-51.99-20.66-103.55-42.24-154.68-64.74,25.99-102,54.92-201.49,86.79-298.48,8.25-25.1,13.49-42.37,15.73-51.83,24.6-102.63,48.67-194.99,72.2-277.1,16.2-56.6,13.85-98.89.4-161.88-17.88-83.83-39.19-188.97-47.53-285.5-2.89-33.75,3.83-54.92,20.1-87.26,36.5-72.54,62.85-143.86,96.47-233.94,14.12-37.91,34.22-80.53,50.69-121.14,9.5-23.44,7.19-45.71-6.92-66.82-23.26-34.73-47.33-68.9-72.2-102.52-9.01-12.17-15.19-24.94-20.71-38.12-1.26-3.01.12-6.48,3.1-7.74.7-.3,1.45-.45,2.21-.46l183.45-1.21,59.29-2.89c5.42-.23,10,3.94,10.24,9.32.03.59,0,1.19-.08,1.78-7.6,54.32-18.82,98.82-27.36,159.79-8.92,63.64-17.84,126.74-26.76,189.3-2.69,18.82-2.22,36.97-1.88,56.07.13,7.14,1.13,14.23,2.96,21.11,10.71,39.93,16.36,80.27,16.94,121Z"/>
      <path class="cls-10" d="M450.54,3756.6c.49,19.09,4.59,38.41,12.3,57.95,8.74,22.14,19.83,36.7,33.28,43.7,3.59,12.14,3.59,26.13,0,41.95-12.84,13.18-26.55,26.55-36.64,41.21-26.82,38.59-58.01,81.54-89.74,118.72-12.91,15.15-27.34,32.56-43.29,52.23-19.83,24.47-42.15,45.51-64.13,67.96,25.68-90.04,60.43-176.11,104.26-258.21,14.03-26.31,25.46-49.5,34.28-69.58,17.28-39.12,28.84-68.7,49.68-95.93Z"/>
      <path class="cls-7" d="M470.23,4742.92c-30.88-71.93-62.03-145.43-93.44-220.5-8.38-19.99-20.23-43.36-35.56-70.11-27.29-47.68-49.84-97.36-67.63-149.04,18.28,21.29,35.99,41.68,53.11,61.17,23.04,26.22,40.36,46.9,51.96,62.05,36.61,47.91,86.38,109.06,149.3,183.45,9.5,11.25,9.81,23.62.94,37.11-21.47,32.54-41.03,64.49-58.69,95.86Z"/>
      <path class="cls-3" d="M505.93,5149.49c14.25,13.71,26.11,29.4,35.56,47.06,6.36,11.83,12.66,30.45,18.89,55.86,5.96,24.15,12.41,48.13,19.36,71.93.58,1.97.94,4,1.08,6.05,1.39,22.09-2.06,43.61-10.35,64.53-3.67,15.1-4.03,33.23-1.08,54.38-15.6-23.21-22.25-43.31-19.97-60.3,4.3-31.42,6.95-62.99,7.93-94.72.04-2.23-.2-4.45-.74-6.59-.36-1.26-3.41-13.11-9.14-35.56-8.6-33.41-18.82-47.33-44.44-67.56-50.28-39.73-103.26-75.83-164.03-96.47-39.12-13.31-128.11-42.55-266.95-87.73-32.13-4.98-46.83-16.65-44.1-35.02l5.45-30.25c51.14,22.5,102.7,44.08,154.68,64.74,26.76,10.62,59.63,24.43,98.62,41.41,32.67,14.21,65.7,27.65,99.09,40.33,23.75,9.01,63.8,31.64,120.13,67.9Z"/>
      <path class="cls-7" d="M27.97,4965.36c-2.73,18.37,11.97,30.05,44.1,35.02,12.28,26.84,24.81,46.34,37.58,58.48,55.08,52.48,134.07,117.46,236.97,194.95,52.3,39.35,108.03,84.86,167.19,136.53,6.81,5.96,15.71,15.53,26.69,28.7,8.69,10.44,18.33,20.53,28.91,30.25-2.96-21.15-2.6-39.28,1.08-54.38-.09,13.18,0,26.33.27,39.46.67,33.88,11.09,67.9,20.17,100.9,1.62,5.94-.11,12.29-4.5,16.6-4.66,4.57-10.44,9.21-17.34,13.92-28.55,19.5-57.72,37.98-87.53,55.46-12.19,7.17-16.74,18.48-13.65,33.95,15.73,73.23,32.36,145.81,49.88,217.74,2.78,11.25,10.69,46.25,23.73,105,7.93,35.49,16.96,70.18,27.09,104.06-.81,12.15.38,30.34,3.56,54.59,3.5,26.58-5.18,50.58-26.02,72-1.47,1.51-3.2,2.72-5.11,3.56l-241.33,106.01c-3.69,1.62-5.86,5.49-5.31,9.48l3.03,21.04,13.98,160.53L0,6339.83v-1369.09c11.9,11.36,19.9,8.27,27.97-5.38Z"/>
      <path class="cls-2" d="M569.39,5449.31c-10.58-9.72-20.21-19.81-28.91-30.25-10.98-13.18-19.88-22.74-26.69-28.7-59.16-51.67-114.89-97.18-167.19-136.53-102.9-77.49-181.89-142.47-236.97-194.95-12.77-12.14-25.3-31.64-37.58-58.48,138.84,45.18,227.82,74.42,266.95,87.73,60.77,20.64,113.74,56.74,164.03,96.47,25.61,20.23,35.83,34.15,44.44,67.56,5.74,22.45,8.78,34.31,9.14,35.56.54,2.14.78,4.36.74,6.59-.99,31.73-3.63,63.3-7.93,94.72-2.29,16.98,4.37,37.08,19.97,60.3Z"/>
      <path class="cls-5" d="M467.88,5655.21c13.31,7.22,24.85,10.91,34.62,11.09,18.24.31,38.05-.07,59.43-1.14,2.08-.09,4.15.25,6.05,1.01,6.32,2.47,12.03,7.31,17.14,14.52,22.99,32.63,37.53,54.5,43.63,65.61,5.51,10.08,9.08,25.01,10.69,44.77,6.32,77.71,9.43,117.78,9.34,120.2-.54,14.79-1.48,30.32-5.24,45.11-11.2,43.92-19.58,78.72-25.14,104.4-7.26,33.25-17.68,64.18-31.26,92.77l-18.55-71.53c-10.13-33.88-19.16-68.57-27.09-104.06-13.04-58.75-20.95-93.75-23.73-105-17.52-71.93-34.15-144.51-49.88-217.74Z"/>
      <path class="cls-9" d="M311.38,6509.23l3.36,13.58c-10.31,36.93-14.92,77.42-13.85,121.47.27,9.28-2.96,19.65-9.68,31.12-1.74,3-4.47,5.33-7.73,6.59-42.15,16.27-97,36.64-131.15,25.01-44.86-15.19-92.75-32.38-143.66-51.56-3.03-1.12-6.39.4-7.51,3.4-.22.59-.34,1.21-.36,1.85l-.81,28.64v-349.5l311.38,169.4Z"/>
      <path class="cls-10" d="M686.83,7013.28c-16.27,15.59-25.66,28.05-28.17,37.38-4.48,16.36-8.74,32.71-12.77,49.07-1.39,5.65-5.94,11.9-13.65,18.76l-54.05-32.81c-9.99-7.75-20.3-13.33-30.92-16.74-2.94-.92-6.07.71-6.99,3.65-.25.8-.32,1.64-.2,2.46l2.69,18.55c.62,4.26-2.33,8.22-6.6,8.84-1.74.25-3.51-.09-5.03-.97-37.31-21.58-79.93-32.67-125.78-52.5-96.35-41.59-193.65-80.36-291.89-116.3l131.83-44.84c1.96-.71,2.97-2.87,2.26-4.82-.4-1.1-1.28-1.95-2.39-2.31-67.99-20.84-137.09-39.26-207.32-55.26-13.58-3.09-25.61-8.6-37.85-14.39v-121.74l.81-28.64c.08-3.19,2.77-5.7,5.99-5.61.64.02,1.27.14,1.87.36,50.91,19.18,98.8,36.37,143.66,51.56,34.15,11.63,89-8.74,131.15-25.01,3.26-1.26,5.99-3.58,7.73-6.59,6.72-11.47,9.95-21.85,9.68-31.12-1.08-44.05,3.54-84.55,13.85-121.47,5.31,18.55,13.38,38.32,17.07,55.8,18.35,85.58,39.6,152.53,61.64,240.39,14.88,59.29,25.05,96.42,30.52,111.39,5.65,15.39,5.85,18.55,23.86,22.99,78.29,19.41,157.95,39.37,238.98,59.9Z"/>
      <path class="cls-9" d="M113.47,6932.68l-113.47,12.24v-133.84c12.23,5.78,24.27,11.29,37.85,14.39,70.23,16,139.33,34.42,207.32,55.26,1.98.63,3.07,2.75,2.44,4.73-.36,1.11-1.21,2-2.31,2.39l-131.83,44.84Z"/>
      <path class="cls-6" d="M113.47,6932.68c98.24,35.94,195.53,74.71,291.89,116.3,45.85,19.83,88.47,30.92,125.78,52.5,3.73,2.16,8.5.89,10.66-2.83.88-1.52,1.22-3.29.97-5.03l-2.69-18.55c-.44-3.05,1.68-5.88,4.73-6.32.83-.12,1.67-.05,2.46.2,10.62,3.41,20.93,8.99,30.92,16.74-5.96-.54-11.07-2.17-15.33-4.91-1.34-.89-3.13-.51-4,.85-.66,1.04-.62,2.39.1,3.38,17.84,23.62,27.74,51.49,29.71,83.63,2.42,39.39,4.46,83.54,6.12,132.43,3.45,102.23,6.5,162.15,9.14,179.76,1.95,12.77,1.88,45.98,1.88,91.56.04-.27.07-.52.07-.74,10.94-151.12,19.72-302.17,26.35-453.16,7.71-6.86,12.26-13.11,13.65-18.76,4.03-16.36,8.29-32.72,12.77-49.07,2.51-9.32,11.9-21.78,28.17-37.38-.45,1.12-.87,2.26-1.28,3.43,11.43,64.87,20.64,139.83,29.85,195.08,34.35,206.31,59.02,381.9,97.41,619.54,4.57,28.24,11.97,52.41,22.18,72.54-23.62,21.92-47.95,44.19-73.01,66.82-13.18,11.92-22.92,23.19-29.24,33.81-.65,1.18-2.13,1.58-3.31.89-.75-.44-1.23-1.23-1.26-2.1l-4.77-167.12c0-.41-.32-.75-.73-.75-.12,0-.24.02-.35.08l-41.34,19.43-9.01-30.59,47.53-7.87c5.45-.9,9.6-5.38,10.08-10.89,1.68-18.62-5.18-30.12-24.27-37.92-22.45-9.14-45.65-23.08-69.58-41.81-8.78-6.9-20.77-10.69-35.96-11.36l6.05-58.75c.25-2.33-1.42-4.42-3.75-4.67-1.45-.16-2.88.44-3.78,1.58-15.69,19.9-25.39,40.31-29.11,61.24-11.34-32.27-22.3-65.54-32.87-99.83-4.53-14.7-6.32-26.44-5.38-35.23,5.18-49.14,20.37-103.32,24.6-131.89,7.39-50.15-5.71-87.59-20.91-143.12-1.38-5.05-6.05-8.47-11.23-8.2-21.11,1.14-50.96,25.81-62.59,38.05-1.15,1.21-3.06,1.26-4.28.11-.26-.25-.47-.54-.63-.86-2.02-3.99-13.53-10.46-34.55-19.43-21.87-9.32-40.69-16.81-56.47-22.45-2-.7-4.23.18-5.24,2.08-5.38,9.99-9.7,20.64-12.97,31.93-13.09,44.46-26.49,88.82-40.2,133.1-11.61,37.47-25.84,72.49-42.69,105.07-.62,1.25-1.05,2.58-1.28,3.97l-.74,4.1-6.72,11.03-7.87-.54c-.13-36.17-.56-72.04-1.28-107.63-.81-38.59,13.98-86.58,17.55-120.6,3.18-30.21,7.01-63.46,11.5-99.76,4.84-39.26.69-79.08-12.44-119.46-.81-2.55-5.18-7.8-13.11-15.73-.98-.96-2.56-.94-3.52.04-.27.27-.47.6-.58.96-3.36,11.16-5.18,22.34-5.45,33.54-1.12,51.27-1.86,102.25-2.22,152.93-.18,26.49-3.2,54.34-9.08,83.56-3.03,15.13-2.76,27.5-1.82,42.55.09.77-.47,1.47-1.24,1.56-.61.07-1.19-.26-1.44-.82l-38.79-78.52c-.92-1.88-3.19-2.62-5.06-1.66-1.47.75-2.31,2.38-2.07,4.02l29.58,172.5c-1.84,13.94-3.9,11.23-6.18-8.13-1.3-11.16-2.82-19.92-4.57-26.28-7.66-27.87-13.44-54.79-17.34-80.74-4.3-28.32-10.33-55.06-18.08-80.2-16.4-53.42-24.74-80.47-25.01-81.14-.9-2.44-3.6-3.69-6.04-2.79-.9.33-1.68.93-2.23,1.71-8.47,12.15-14.21,25.55-17.21,40.2-.14.77-.88,1.27-1.65,1.13-.37-.07-.7-.28-.91-.59-12.15-18.02-22.92-31.01-32.33-38.99-27.07-22.85-52.46-46-76.16-69.44v-239.12l113.47-12.24Z"/>
      <path class="cls-4" d="M578.19,7085.68l54.05,32.81c-6.63,150.99-15.42,302.04-26.35,453.16,0,.22-.02.47-.07.74,0-45.58.07-78.79-1.88-91.56-2.64-17.61-5.69-77.53-9.14-179.76-1.66-48.9-3.7-93.04-6.12-132.43-1.97-32.13-11.88-60.01-29.71-83.63-.95-1.31-.69-3.17.59-4.14.97-.74,2.29-.78,3.31-.1,4.26,2.73,9.37,4.37,15.33,4.91Z"/>
      <path class="cls-3" d="M247.18,7581.79c6.23,27.74,14.43,55.06,24.6,81.95,10.44,27.79,16.69,48.02,18.76,60.7,6.59,41.19,11.23,72.31,13.92,93.38.36,2.77.99,5.5,1.88,8.13l13.58,41.14c.58,1.72-.31,3.59-1.99,4.17-.18.06-.37.11-.56.14-16.9,2.96-29.62-2.35-38.18-15.93-22.63-35.85-50.31-67.11-83.02-93.78l-6.59-9.88c14.83-74.71,20.88-148.88,18.15-222.51l-29.58-172.5c-.31-2.08,1.12-4.04,3.18-4.39,1.62-.27,3.22.55,3.94,2.03l38.79,78.52c.32.71,1.16,1.03,1.87.7.56-.25.89-.84.82-1.44-.94-15.06-1.21-27.43,1.82-42.55,5.87-29.22,8.9-57.07,9.08-83.56.36-50.69,1.1-101.67,2.22-152.93.27-11.2,2.08-22.39,5.45-33.54.43-1.31,1.83-2.02,3.14-1.59.36.12.69.32.96.58,7.93,7.93,12.3,13.18,13.11,15.73,13.13,40.38,17.28,80.2,12.44,119.46-4.48,36.3-8.31,69.55-11.5,99.76-3.56,34.02-18.35,82.01-17.55,120.6.72,35.58,1.14,71.46,1.28,107.63Z"/>
      <path class="cls-9" d="M207.72,7529.29c2.73,73.63-3.32,147.8-18.15,222.51-22.39-13.04-60.91-11.63-81.95-10.15-35.99,2.55-71.86,4.89-107.63,6.99v-564.62c23.71,23.44,49.1,46.59,76.16,69.44,9.41,7.98,20.19,20.97,32.33,38.99.44.64,1.32.81,1.96.37.31-.21.52-.54.59-.91,3-14.65,8.74-28.05,17.21-40.2,1.49-2.13,4.43-2.64,6.55-1.15.78.55,1.38,1.33,1.71,2.23.27.67,8.6,27.72,25.01,81.14,7.75,25.14,13.78,51.88,18.08,80.2,3.9,25.95,9.68,52.86,17.34,80.74,1.75,6.36,3.27,15.13,4.57,26.28,2.29,19.36,4.35,22.07,6.18,8.13Z"/>
    </g>
  </g>
</svg>